<?xml version="1.0" encoding="utf-8" standalone="no"?>
<!DOCTYPE svg PUBLIC "-//W3C//DTD SVG 1.1//EN"
  "http://www.w3.org/Graphics/SVG/1.1/DTD/svg11.dtd">
<!-- Created with matplotlib (https://matplotlib.org/) -->
<svg height="576pt" version="1.1" viewBox="0 0 720 576" width="720pt" xmlns="http://www.w3.org/2000/svg" xmlns:xlink="http://www.w3.org/1999/xlink">
 <defs>
  <style type="text/css">
*{stroke-linecap:butt;stroke-linejoin:round;}
  </style>
 </defs>
 <g id="figure_1">
  <g id="patch_1">
   <path d="M 0 576 
L 720 576 
L 720 0 
L 0 0 
z
" style="fill:#ffffff;"/>
  </g>
  <g id="patch_2">
   <path d="M 90 504 
L 648 504 
L 648 69.12 
L 90 69.12 
z
" style="fill:#ffffff;"/>
  </g>
  <g id="pane3d_1">
   <g id="patch_3">
    <path d="M 495.804092 370.478931 
L 564.653 423.139691 
L 568.237184 171.843464 
L 497.857911 142.445644 
" style="fill:#f2f2f2;opacity:0.5;stroke:#f2f2f2;stroke-linejoin:miter;"/>
   </g>
  </g>
  <g id="pane3d_2">
   <g id="patch_4">
    <path d="M 495.804092 370.478931 
L 203.326697 379.029026 
L 200.292348 147.211535 
L 497.857911 142.445644 
" style="fill:#e6e6e6;opacity:0.5;stroke:#e6e6e6;stroke-linejoin:miter;"/>
   </g>
  </g>
  <g id="pane3d_3">
   <g id="patch_5">
    <path d="M 495.804092 370.478931 
L 203.326697 379.029026 
L 242.351948 433.587224 
L 564.653 423.139691 
" style="fill:#ececec;opacity:0.5;stroke:#ececec;stroke-linejoin:miter;"/>
   </g>
  </g>
  <g id="axis3d_1">
   <g id="line2d_1">
    <path d="M 564.653 423.139691 
L 242.351948 433.587224 
" style="fill:none;stroke:#000000;stroke-linecap:square;stroke-width:0.8;"/>
   </g>
   <g id="text_1">
    <!-- X Label -->
    <defs>
     <path d="M 6.296875 72.90625 
L 16.890625 72.90625 
L 35.015625 45.796875 
L 53.21875 72.90625 
L 63.8125 72.90625 
L 40.375 37.890625 
L 65.375 0 
L 54.78125 0 
L 34.28125 31 
L 13.625 0 
L 2.984375 0 
L 29 38.921875 
z
" id="DejaVuSans-88"/>
     <path id="DejaVuSans-32"/>
     <path d="M 9.8125 72.90625 
L 19.671875 72.90625 
L 19.671875 8.296875 
L 55.171875 8.296875 
L 55.171875 0 
L 9.8125 0 
z
" id="DejaVuSans-76"/>
     <path d="M 34.28125 27.484375 
Q 23.390625 27.484375 19.1875 25 
Q 14.984375 22.515625 14.984375 16.5 
Q 14.984375 11.71875 18.140625 8.90625 
Q 21.296875 6.109375 26.703125 6.109375 
Q 34.1875 6.109375 38.703125 11.40625 
Q 43.21875 16.703125 43.21875 25.484375 
L 43.21875 27.484375 
z
M 52.203125 31.203125 
L 52.203125 0 
L 43.21875 0 
L 43.21875 8.296875 
Q 40.140625 3.328125 35.546875 0.953125 
Q 30.953125 -1.421875 24.3125 -1.421875 
Q 15.921875 -1.421875 10.953125 3.296875 
Q 6 8.015625 6 15.921875 
Q 6 25.140625 12.171875 29.828125 
Q 18.359375 34.515625 30.609375 34.515625 
L 43.21875 34.515625 
L 43.21875 35.40625 
Q 43.21875 41.609375 39.140625 45 
Q 35.0625 48.390625 27.6875 48.390625 
Q 23 48.390625 18.546875 47.265625 
Q 14.109375 46.140625 10.015625 43.890625 
L 10.015625 52.203125 
Q 14.9375 54.109375 19.578125 55.046875 
Q 24.21875 56 28.609375 56 
Q 40.484375 56 46.34375 49.84375 
Q 52.203125 43.703125 52.203125 31.203125 
z
" id="DejaVuSans-97"/>
     <path d="M 48.6875 27.296875 
Q 48.6875 37.203125 44.609375 42.84375 
Q 40.53125 48.484375 33.40625 48.484375 
Q 26.265625 48.484375 22.1875 42.84375 
Q 18.109375 37.203125 18.109375 27.296875 
Q 18.109375 17.390625 22.1875 11.75 
Q 26.265625 6.109375 33.40625 6.109375 
Q 40.53125 6.109375 44.609375 11.75 
Q 48.6875 17.390625 48.6875 27.296875 
z
M 18.109375 46.390625 
Q 20.953125 51.265625 25.265625 53.625 
Q 29.59375 56 35.59375 56 
Q 45.5625 56 51.78125 48.09375 
Q 58.015625 40.1875 58.015625 27.296875 
Q 58.015625 14.40625 51.78125 6.484375 
Q 45.5625 -1.421875 35.59375 -1.421875 
Q 29.59375 -1.421875 25.265625 0.953125 
Q 20.953125 3.328125 18.109375 8.203125 
L 18.109375 0 
L 9.078125 0 
L 9.078125 75.984375 
L 18.109375 75.984375 
z
" id="DejaVuSans-98"/>
     <path d="M 56.203125 29.59375 
L 56.203125 25.203125 
L 14.890625 25.203125 
Q 15.484375 15.921875 20.484375 11.0625 
Q 25.484375 6.203125 34.421875 6.203125 
Q 39.59375 6.203125 44.453125 7.46875 
Q 49.3125 8.734375 54.109375 11.28125 
L 54.109375 2.78125 
Q 49.265625 0.734375 44.1875 -0.34375 
Q 39.109375 -1.421875 33.890625 -1.421875 
Q 20.796875 -1.421875 13.15625 6.1875 
Q 5.515625 13.8125 5.515625 26.8125 
Q 5.515625 40.234375 12.765625 48.109375 
Q 20.015625 56 32.328125 56 
Q 43.359375 56 49.78125 48.890625 
Q 56.203125 41.796875 56.203125 29.59375 
z
M 47.21875 32.234375 
Q 47.125 39.59375 43.09375 43.984375 
Q 39.0625 48.390625 32.421875 48.390625 
Q 24.90625 48.390625 20.390625 44.140625 
Q 15.875 39.890625 15.1875 32.171875 
z
" id="DejaVuSans-101"/>
     <path d="M 9.421875 75.984375 
L 18.40625 75.984375 
L 18.40625 0 
L 9.421875 0 
z
" id="DejaVuSans-108"/>
    </defs>
    <g transform="translate(392.38502 461.707248)rotate(-1.856618)scale(0.1 -0.1)">
     <use xlink:href="#DejaVuSans-88"/>
     <use x="68.505859" xlink:href="#DejaVuSans-32"/>
     <use x="100.292969" xlink:href="#DejaVuSans-76"/>
     <use x="156.005859" xlink:href="#DejaVuSans-97"/>
     <use x="217.285156" xlink:href="#DejaVuSans-98"/>
     <use x="280.761719" xlink:href="#DejaVuSans-101"/>
     <use x="342.285156" xlink:href="#DejaVuSans-108"/>
    </g>
   </g>
   <g id="Line3DCollection_1">
    <path d="M 525.101575 424.421768 
L 459.856664 371.529795 
L 461.29448 143.031254 
" style="fill:none;stroke:#b0b0b0;stroke-width:0.8;"/>
    <path d="M 482.776341 425.793759 
L 421.405508 372.653851 
L 422.18151 143.657698 
" style="fill:none;stroke:#b0b0b0;stroke-width:0.8;"/>
    <path d="M 440.242544 427.172512 
L 382.782912 373.782919 
L 382.891127 144.286983 
" style="fill:none;stroke:#b0b0b0;stroke-width:0.8;"/>
    <path d="M 397.498641 428.558074 
L 343.987727 374.917032 
L 343.42212 144.919129 
" style="fill:none;stroke:#b0b0b0;stroke-width:0.8;"/>
    <path d="M 354.543068 429.950498 
L 305.018793 376.056225 
L 303.773269 145.554156 
" style="fill:none;stroke:#b0b0b0;stroke-width:0.8;"/>
    <path d="M 311.374252 431.349835 
L 265.874941 377.200531 
L 263.943341 146.192083 
" style="fill:none;stroke:#b0b0b0;stroke-width:0.8;"/>
    <path d="M 267.990599 432.756136 
L 226.554991 378.349985 
L 223.931093 146.83293 
" style="fill:none;stroke:#b0b0b0;stroke-width:0.8;"/>
   </g>
   <g id="xtick_1">
    <g id="line2d_2">
     <path d="M 524.525466 423.954735 
L 526.256691 425.358184 
" style="fill:none;stroke:#000000;stroke-linecap:square;stroke-width:0.8;"/>
    </g>
    <g id="text_2">
     <!-- −0.1 -->
     <defs>
      <path d="M 10.59375 35.5 
L 73.1875 35.5 
L 73.1875 27.203125 
L 10.59375 27.203125 
z
" id="DejaVuSans-8722"/>
      <path d="M 31.78125 66.40625 
Q 24.171875 66.40625 20.328125 58.90625 
Q 16.5 51.421875 16.5 36.375 
Q 16.5 21.390625 20.328125 13.890625 
Q 24.171875 6.390625 31.78125 6.390625 
Q 39.453125 6.390625 43.28125 13.890625 
Q 47.125 21.390625 47.125 36.375 
Q 47.125 51.421875 43.28125 58.90625 
Q 39.453125 66.40625 31.78125 66.40625 
z
M 31.78125 74.21875 
Q 44.046875 74.21875 50.515625 64.515625 
Q 56.984375 54.828125 56.984375 36.375 
Q 56.984375 17.96875 50.515625 8.265625 
Q 44.046875 -1.421875 31.78125 -1.421875 
Q 19.53125 -1.421875 13.0625 8.265625 
Q 6.59375 17.96875 6.59375 36.375 
Q 6.59375 54.828125 13.0625 64.515625 
Q 19.53125 74.21875 31.78125 74.21875 
z
" id="DejaVuSans-48"/>
      <path d="M 10.6875 12.40625 
L 21 12.40625 
L 21 0 
L 10.6875 0 
z
" id="DejaVuSans-46"/>
      <path d="M 12.40625 8.296875 
L 28.515625 8.296875 
L 28.515625 63.921875 
L 10.984375 60.40625 
L 10.984375 69.390625 
L 28.421875 72.90625 
L 38.28125 72.90625 
L 38.28125 8.296875 
L 54.390625 8.296875 
L 54.390625 0 
L 12.40625 0 
z
" id="DejaVuSans-49"/>
     </defs>
     <g transform="translate(516.053771 445.663051)scale(0.1 -0.1)">
      <use xlink:href="#DejaVuSans-8722"/>
      <use x="83.789062" xlink:href="#DejaVuSans-48"/>
      <use x="147.412109" xlink:href="#DejaVuSans-46"/>
      <use x="179.199219" xlink:href="#DejaVuSans-49"/>
     </g>
    </g>
   </g>
   <g id="xtick_2">
    <g id="line2d_3">
     <path d="M 482.234315 425.324429 
L 483.863126 426.734788 
" style="fill:none;stroke:#000000;stroke-linecap:square;stroke-width:0.8;"/>
    </g>
    <g id="text_3">
     <!-- 0.0 -->
     <g transform="translate(477.763237 447.073979)scale(0.1 -0.1)">
      <use xlink:href="#DejaVuSans-48"/>
      <use x="63.623047" xlink:href="#DejaVuSans-46"/>
      <use x="95.410156" xlink:href="#DejaVuSans-48"/>
     </g>
    </g>
   </g>
   <g id="xtick_3">
    <g id="line2d_4">
     <path d="M 439.734945 426.700867 
L 441.260311 428.118187 
" style="fill:none;stroke:#000000;stroke-linecap:square;stroke-width:0.8;"/>
    </g>
    <g id="text_4">
     <!-- 0.1 -->
     <g transform="translate(435.072726 448.491886)scale(0.1 -0.1)">
      <use xlink:href="#DejaVuSans-48"/>
      <use x="63.623047" xlink:href="#DejaVuSans-46"/>
      <use x="95.410156" xlink:href="#DejaVuSans-49"/>
     </g>
    </g>
   </g>
   <g id="xtick_4">
    <g id="line2d_5">
     <path d="M 397.025814 428.084098 
L 398.446691 429.508431 
" style="fill:none;stroke:#000000;stroke-linecap:square;stroke-width:0.8;"/>
    </g>
    <g id="text_5">
     <!-- 0.2 -->
     <defs>
      <path d="M 19.1875 8.296875 
L 53.609375 8.296875 
L 53.609375 0 
L 7.328125 0 
L 7.328125 8.296875 
Q 12.9375 14.109375 22.625 23.890625 
Q 32.328125 33.6875 34.8125 36.53125 
Q 39.546875 41.84375 41.421875 45.53125 
Q 43.3125 49.21875 43.3125 52.78125 
Q 43.3125 58.59375 39.234375 62.25 
Q 35.15625 65.921875 28.609375 65.921875 
Q 23.96875 65.921875 18.8125 64.3125 
Q 13.671875 62.703125 7.8125 59.421875 
L 7.8125 69.390625 
Q 13.765625 71.78125 18.9375 73 
Q 24.125 74.21875 28.421875 74.21875 
Q 39.75 74.21875 46.484375 68.546875 
Q 53.21875 62.890625 53.21875 53.421875 
Q 53.21875 48.921875 51.53125 44.890625 
Q 49.859375 40.875 45.40625 35.40625 
Q 44.1875 33.984375 37.640625 27.21875 
Q 31.109375 20.453125 19.1875 8.296875 
z
" id="DejaVuSans-50"/>
     </defs>
     <g transform="translate(392.170518 449.916824)scale(0.1 -0.1)">
      <use xlink:href="#DejaVuSans-48"/>
      <use x="63.623047" xlink:href="#DejaVuSans-46"/>
      <use x="95.410156" xlink:href="#DejaVuSans-50"/>
     </g>
    </g>
   </g>
   <g id="xtick_5">
    <g id="line2d_6">
     <path d="M 354.105365 429.474173 
L 355.420699 430.905571 
" style="fill:none;stroke:#000000;stroke-linecap:square;stroke-width:0.8;"/>
    </g>
    <g id="text_6">
     <!-- 0.3 -->
     <defs>
      <path d="M 40.578125 39.3125 
Q 47.65625 37.796875 51.625 33 
Q 55.609375 28.21875 55.609375 21.1875 
Q 55.609375 10.40625 48.1875 4.484375 
Q 40.765625 -1.421875 27.09375 -1.421875 
Q 22.515625 -1.421875 17.65625 -0.515625 
Q 12.796875 0.390625 7.625 2.203125 
L 7.625 11.71875 
Q 11.71875 9.328125 16.59375 8.109375 
Q 21.484375 6.890625 26.8125 6.890625 
Q 36.078125 6.890625 40.9375 10.546875 
Q 45.796875 14.203125 45.796875 21.1875 
Q 45.796875 27.640625 41.28125 31.265625 
Q 36.765625 34.90625 28.71875 34.90625 
L 20.21875 34.90625 
L 20.21875 43.015625 
L 29.109375 43.015625 
Q 36.375 43.015625 40.234375 45.921875 
Q 44.09375 48.828125 44.09375 54.296875 
Q 44.09375 59.90625 40.109375 62.90625 
Q 36.140625 65.921875 28.71875 65.921875 
Q 24.65625 65.921875 20.015625 65.03125 
Q 15.375 64.15625 9.8125 62.3125 
L 9.8125 71.09375 
Q 15.4375 72.65625 20.34375 73.4375 
Q 25.25 74.21875 29.59375 74.21875 
Q 40.828125 74.21875 47.359375 69.109375 
Q 53.90625 64.015625 53.90625 55.328125 
Q 53.90625 49.265625 50.4375 45.09375 
Q 46.96875 40.921875 40.578125 39.3125 
z
" id="DejaVuSans-51"/>
     </defs>
     <g transform="translate(349.055035 451.348845)scale(0.1 -0.1)">
      <use xlink:href="#DejaVuSans-48"/>
      <use x="63.623047" xlink:href="#DejaVuSans-46"/>
      <use x="95.410156" xlink:href="#DejaVuSans-51"/>
     </g>
    </g>
   </g>
   <g id="xtick_6">
    <g id="line2d_7">
     <path d="M 310.972027 430.871143 
L 312.18075 432.309658 
" style="fill:none;stroke:#000000;stroke-linecap:square;stroke-width:0.8;"/>
    </g>
    <g id="text_7">
     <!-- 0.4 -->
     <defs>
      <path d="M 37.796875 64.3125 
L 12.890625 25.390625 
L 37.796875 25.390625 
z
M 35.203125 72.90625 
L 47.609375 72.90625 
L 47.609375 25.390625 
L 58.015625 25.390625 
L 58.015625 17.1875 
L 47.609375 17.1875 
L 47.609375 0 
L 37.796875 0 
L 37.796875 17.1875 
L 4.890625 17.1875 
L 4.890625 26.703125 
z
" id="DejaVuSans-52"/>
     </defs>
     <g transform="translate(305.724682 452.788004)scale(0.1 -0.1)">
      <use xlink:href="#DejaVuSans-48"/>
      <use x="63.623047" xlink:href="#DejaVuSans-46"/>
      <use x="95.410156" xlink:href="#DejaVuSans-52"/>
     </g>
    </g>
   </g>
   <g id="xtick_7">
    <g id="line2d_8">
     <path d="M 267.624212 432.275059 
L 268.725244 433.720746 
" style="fill:none;stroke:#000000;stroke-linecap:square;stroke-width:0.8;"/>
    </g>
    <g id="text_8">
     <!-- 0.5 -->
     <defs>
      <path d="M 10.796875 72.90625 
L 49.515625 72.90625 
L 49.515625 64.59375 
L 19.828125 64.59375 
L 19.828125 46.734375 
Q 21.96875 47.46875 24.109375 47.828125 
Q 26.265625 48.1875 28.421875 48.1875 
Q 40.625 48.1875 47.75 41.5 
Q 54.890625 34.8125 54.890625 23.390625 
Q 54.890625 11.625 47.5625 5.09375 
Q 40.234375 -1.421875 26.90625 -1.421875 
Q 22.3125 -1.421875 17.546875 -0.640625 
Q 12.796875 0.140625 7.71875 1.703125 
L 7.71875 11.625 
Q 12.109375 9.234375 16.796875 8.0625 
Q 21.484375 6.890625 26.703125 6.890625 
Q 35.15625 6.890625 40.078125 11.328125 
Q 45.015625 15.765625 45.015625 23.390625 
Q 45.015625 31 40.078125 35.4375 
Q 35.15625 39.890625 26.703125 39.890625 
Q 22.75 39.890625 18.8125 39.015625 
Q 14.890625 38.140625 10.796875 36.28125 
z
" id="DejaVuSans-53"/>
     </defs>
     <g transform="translate(262.177849 454.234352)scale(0.1 -0.1)">
      <use xlink:href="#DejaVuSans-48"/>
      <use x="63.623047" xlink:href="#DejaVuSans-46"/>
      <use x="95.410156" xlink:href="#DejaVuSans-53"/>
     </g>
    </g>
   </g>
  </g>
  <g id="axis3d_2">
   <g id="line2d_9">
    <path d="M 203.326697 379.029026 
L 242.351948 433.587224 
" style="fill:none;stroke:#000000;stroke-linecap:square;stroke-width:0.8;"/>
   </g>
   <g id="text_9">
    <!-- Y Label -->
    <defs>
     <path d="M -0.203125 72.90625 
L 10.40625 72.90625 
L 30.609375 42.921875 
L 50.6875 72.90625 
L 61.28125 72.90625 
L 35.5 34.71875 
L 35.5 0 
L 25.59375 0 
L 25.59375 34.71875 
z
" id="DejaVuSans-89"/>
    </defs>
    <g transform="translate(179.152226 415.810076)rotate(-305.575982)scale(0.1 -0.1)">
     <use xlink:href="#DejaVuSans-89"/>
     <use x="61.083984" xlink:href="#DejaVuSans-32"/>
     <use x="92.871094" xlink:href="#DejaVuSans-76"/>
     <use x="148.583984" xlink:href="#DejaVuSans-97"/>
     <use x="209.863281" xlink:href="#DejaVuSans-98"/>
     <use x="273.339844" xlink:href="#DejaVuSans-101"/>
     <use x="334.863281" xlink:href="#DejaVuSans-108"/>
    </g>
   </g>
   <g id="Line3DCollection_2">
    <path d="M 507.437655 146.447157 
L 505.190111 377.658056 
L 208.638785 386.455448 
" style="fill:none;stroke:#b0b0b0;stroke-width:0.8;"/>
    <path d="M 516.233007 150.121025 
L 513.803547 384.246252 
L 213.515882 393.273742 
" style="fill:none;stroke:#b0b0b0;stroke-width:0.8;"/>
    <path d="M 525.262017 153.892494 
L 522.641778 391.006387 
L 218.52251 400.273122 
" style="fill:none;stroke:#b0b0b0;stroke-width:0.8;"/>
    <path d="M 534.534122 157.765505 
L 531.71372 397.945283 
L 223.663898 407.460901 
" style="fill:none;stroke:#b0b0b0;stroke-width:0.8;"/>
    <path d="M 544.059275 161.744215 
L 541.028767 405.070123 
L 228.945562 414.844787 
" style="fill:none;stroke:#b0b0b0;stroke-width:0.8;"/>
    <path d="M 553.847976 165.833011 
L 550.596825 412.388484 
L 234.37332 422.432919 
" style="fill:none;stroke:#b0b0b0;stroke-width:0.8;"/>
    <path d="M 563.911319 170.036526 
L 560.428342 419.908358 
L 239.953322 430.233889 
" style="fill:none;stroke:#b0b0b0;stroke-width:0.8;"/>
   </g>
   <g id="xtick_8">
    <g id="line2d_10">
     <path d="M 211.05167 386.383868 
L 203.811023 386.598666 
" style="fill:none;stroke:#000000;stroke-linecap:square;stroke-width:0.8;"/>
    </g>
    <g id="text_10">
     <!-- −0.15 -->
     <g transform="translate(180.030232 404.725697)scale(0.1 -0.1)">
      <use xlink:href="#DejaVuSans-8722"/>
      <use x="83.789062" xlink:href="#DejaVuSans-48"/>
      <use x="147.412109" xlink:href="#DejaVuSans-46"/>
      <use x="179.199219" xlink:href="#DejaVuSans-49"/>
      <use x="242.822266" xlink:href="#DejaVuSans-53"/>
     </g>
    </g>
   </g>
   <g id="xtick_9">
    <g id="line2d_11">
     <path d="M 215.959705 393.200273 
L 208.626193 393.420739 
" style="fill:none;stroke:#000000;stroke-linecap:square;stroke-width:0.8;"/>
    </g>
    <g id="text_11">
     <!-- −0.10 -->
     <g transform="translate(184.733156 411.683767)scale(0.1 -0.1)">
      <use xlink:href="#DejaVuSans-8722"/>
      <use x="83.789062" xlink:href="#DejaVuSans-48"/>
      <use x="147.412109" xlink:href="#DejaVuSans-46"/>
      <use x="179.199219" xlink:href="#DejaVuSans-49"/>
      <use x="242.822266" xlink:href="#DejaVuSans-48"/>
     </g>
    </g>
   </g>
   <g id="xtick_10">
    <g id="line2d_12">
     <path d="M 220.998074 400.19769 
L 213.569285 400.42405 
" style="fill:none;stroke:#000000;stroke-linecap:square;stroke-width:0.8;"/>
    </g>
    <g id="text_12">
     <!-- −0.05 -->
     <g transform="translate(189.560982 418.826633)scale(0.1 -0.1)">
      <use xlink:href="#DejaVuSans-8722"/>
      <use x="83.789062" xlink:href="#DejaVuSans-48"/>
      <use x="147.412109" xlink:href="#DejaVuSans-46"/>
      <use x="179.199219" xlink:href="#DejaVuSans-48"/>
      <use x="242.822266" xlink:href="#DejaVuSans-53"/>
     </g>
    </g>
   </g>
   <g id="xtick_11">
    <g id="line2d_13">
     <path d="M 226.172037 407.383424 
L 218.645464 407.615919 
" style="fill:none;stroke:#000000;stroke-linecap:square;stroke-width:0.8;"/>
    </g>
    <g id="text_13">
     <!-- 0.00 -->
     <g transform="translate(198.708599 426.161757)scale(0.1 -0.1)">
      <use xlink:href="#DejaVuSans-48"/>
      <use x="63.623047" xlink:href="#DejaVuSans-46"/>
      <use x="95.410156" xlink:href="#DejaVuSans-48"/>
      <use x="159.033203" xlink:href="#DejaVuSans-48"/>
     </g>
    </g>
   </g>
   <g id="xtick_12">
    <g id="line2d_14">
     <path d="M 231.487145 414.765183 
L 223.860181 415.004065 
" style="fill:none;stroke:#000000;stroke-linecap:square;stroke-width:0.8;"/>
    </g>
    <g id="text_14">
     <!-- 0.05 -->
     <g transform="translate(203.801635 433.697006)scale(0.1 -0.1)">
      <use xlink:href="#DejaVuSans-48"/>
      <use x="63.623047" xlink:href="#DejaVuSans-46"/>
      <use x="95.410156" xlink:href="#DejaVuSans-48"/>
      <use x="159.033203" xlink:href="#DejaVuSans-53"/>
     </g>
    </g>
   </g>
   <g id="xtick_13">
    <g id="line2d_15">
     <path d="M 236.949252 422.351098 
L 229.219184 422.596634 
" style="fill:none;stroke:#000000;stroke-linecap:square;stroke-width:0.8;"/>
    </g>
    <g id="text_15">
     <!-- 0.10 -->
     <g transform="translate(209.035548 441.440685)scale(0.1 -0.1)">
      <use xlink:href="#DejaVuSans-48"/>
      <use x="63.623047" xlink:href="#DejaVuSans-46"/>
      <use x="95.410156" xlink:href="#DejaVuSans-49"/>
      <use x="159.033203" xlink:href="#DejaVuSans-48"/>
     </g>
    </g>
   </g>
   <g id="xtick_14">
    <g id="line2d_16">
     <path d="M 242.564541 430.149757 
L 234.728545 430.402229 
" style="fill:none;stroke:#000000;stroke-linecap:square;stroke-width:0.8;"/>
    </g>
    <g id="text_16">
     <!-- 0.15 -->
     <g transform="translate(214.416264 449.401563)scale(0.1 -0.1)">
      <use xlink:href="#DejaVuSans-48"/>
      <use x="63.623047" xlink:href="#DejaVuSans-46"/>
      <use x="95.410156" xlink:href="#DejaVuSans-49"/>
      <use x="159.033203" xlink:href="#DejaVuSans-53"/>
     </g>
    </g>
   </g>
  </g>
  <g id="axis3d_3">
   <g id="line2d_17">
    <path d="M 203.326697 379.029026 
L 200.292348 147.211535 
" style="fill:none;stroke:#000000;stroke-linecap:square;stroke-width:0.8;"/>
   </g>
   <g id="text_17">
    <!-- Z Label -->
    <defs>
     <path d="M 5.609375 72.90625 
L 62.890625 72.90625 
L 62.890625 65.375 
L 16.796875 8.296875 
L 64.015625 8.296875 
L 64.015625 0 
L 4.5 0 
L 4.5 7.515625 
L 50.59375 64.59375 
L 5.609375 64.59375 
z
" id="DejaVuSans-90"/>
    </defs>
    <g transform="translate(166.633186 242.610297)rotate(-270.749924)scale(0.1 -0.1)">
     <use xlink:href="#DejaVuSans-90"/>
     <use x="68.505859" xlink:href="#DejaVuSans-32"/>
     <use x="100.292969" xlink:href="#DejaVuSans-76"/>
     <use x="156.005859" xlink:href="#DejaVuSans-97"/>
     <use x="217.285156" xlink:href="#DejaVuSans-98"/>
     <use x="280.761719" xlink:href="#DejaVuSans-101"/>
     <use x="342.285156" xlink:href="#DejaVuSans-108"/>
    </g>
   </g>
   <g id="Line3DCollection_3">
    <path d="M 202.857805 343.206717 
L 496.121543 335.232687 
L 565.206152 384.356852 
" style="fill:none;stroke:#b0b0b0;stroke-width:0.8;"/>
    <path d="M 202.248506 296.657618 
L 496.53401 289.436905 
L 565.925326 333.933712 
" style="fill:none;stroke:#b0b0b0;stroke-width:0.8;"/>
    <path d="M 201.634916 249.78077 
L 496.949332 243.324106 
L 566.650004 283.124685 
" style="fill:none;stroke:#b0b0b0;stroke-width:0.8;"/>
    <path d="M 201.016992 202.572699 
L 497.36754 196.890985 
L 567.38025 231.925325 
" style="fill:none;stroke:#b0b0b0;stroke-width:0.8;"/>
    <path d="M 200.394685 155.029883 
L 497.788663 150.134195 
L 568.116127 180.331116 
" style="fill:none;stroke:#b0b0b0;stroke-width:0.8;"/>
   </g>
   <g id="xtick_15">
    <g id="line2d_18">
     <path d="M 205.243476 343.141849 
L 198.084516 343.336506 
" style="fill:none;stroke:#000000;stroke-linecap:square;stroke-width:0.8;"/>
    </g>
    <g id="text_18">
     <!-- 0.5 -->
     <g transform="translate(180.122267 349.12621)scale(0.1 -0.1)">
      <use xlink:href="#DejaVuSans-48"/>
      <use x="63.623047" xlink:href="#DejaVuSans-46"/>
      <use x="95.410156" xlink:href="#DejaVuSans-53"/>
     </g>
    </g>
   </g>
   <g id="xtick_16">
    <g id="line2d_19">
     <path d="M 204.642628 296.598875 
L 197.4583 296.775152 
" style="fill:none;stroke:#000000;stroke-linecap:square;stroke-width:0.8;"/>
    </g>
    <g id="text_19">
     <!-- 1.0 -->
     <g transform="translate(179.463439 302.735653)scale(0.1 -0.1)">
      <use xlink:href="#DejaVuSans-49"/>
      <use x="63.623047" xlink:href="#DejaVuSans-46"/>
      <use x="95.410156" xlink:href="#DejaVuSans-48"/>
     </g>
    </g>
   </g>
   <g id="xtick_17">
    <g id="line2d_20">
     <path d="M 204.03755 249.72824 
L 196.827675 249.885874 
" style="fill:none;stroke:#000000;stroke-linecap:square;stroke-width:0.8;"/>
    </g>
    <g id="text_20">
     <!-- 1.5 -->
     <g transform="translate(178.799989 256.019621)scale(0.1 -0.1)">
      <use xlink:href="#DejaVuSans-49"/>
      <use x="63.623047" xlink:href="#DejaVuSans-46"/>
      <use x="95.410156" xlink:href="#DejaVuSans-53"/>
     </g>
    </g>
   </g>
   <g id="xtick_18">
    <g id="line2d_21">
     <path d="M 203.428197 202.526471 
L 196.192592 202.665194 
" style="fill:none;stroke:#000000;stroke-linecap:square;stroke-width:0.8;"/>
    </g>
    <g id="text_21">
     <!-- 2.0 -->
     <g transform="translate(178.131868 208.974676)scale(0.1 -0.1)">
      <use xlink:href="#DejaVuSans-50"/>
      <use x="63.623047" xlink:href="#DejaVuSans-46"/>
      <use x="95.410156" xlink:href="#DejaVuSans-48"/>
     </g>
    </g>
   </g>
   <g id="xtick_19">
    <g id="line2d_22">
     <path d="M 202.814524 154.990047 
L 195.553004 155.109586 
" style="fill:none;stroke:#000000;stroke-linecap:square;stroke-width:0.8;"/>
    </g>
    <g id="text_22">
     <!-- 2.5 -->
     <g transform="translate(177.459026 161.597333)scale(0.1 -0.1)">
      <use xlink:href="#DejaVuSans-50"/>
      <use x="63.623047" xlink:href="#DejaVuSans-46"/>
      <use x="95.410156" xlink:href="#DejaVuSans-53"/>
     </g>
    </g>
   </g>
  </g>
  <g id="axes_1">
   <g id="Path3DCollection_1">
    <defs>
     <path d="M 0 2.236068 
C 0.593012 2.236068 1.161816 2.000462 1.581139 1.581139 
C 2.000462 1.161816 2.236068 0.593012 2.236068 0 
C 2.236068 -0.593012 2.000462 -1.161816 1.581139 -1.581139 
C 1.161816 -2.000462 0.593012 -2.236068 0 -2.236068 
C -0.593012 -2.236068 -1.161816 -2.000462 -1.581139 -1.581139 
C -2.000462 -1.161816 -2.236068 -0.593012 -2.236068 0 
C -2.236068 0.593012 -2.000462 1.161816 -1.581139 1.581139 
C -1.161816 2.000462 -0.593012 2.236068 0 2.236068 
z
" id="C0_0_f3113b28fd"/>
    </defs>
    <g clip-path="url(#pdce94e25a4)">
     <use style="fill:#ffffa4;fill-opacity:0.3;stroke:#ffffa4;stroke-opacity:0.3;" x="289.740448" xlink:href="#C0_0_f3113b28fd" y="224.883409"/>
    </g>
    <g clip-path="url(#pdce94e25a4)">
     <use style="fill:#ffff4a;fill-opacity:0.493346;stroke:#ffff4a;stroke-opacity:0.493346;" x="307.39804" xlink:href="#C0_0_f3113b28fd" y="264.82177"/>
    </g>
    <g clip-path="url(#pdce94e25a4)">
     <use style="fill:#fff400;fill-opacity:0.719348;stroke:#fff400;stroke-opacity:0.719348;" x="330.351903" xlink:href="#C0_0_f3113b28fd" y="311.025184"/>
    </g>
    <g clip-path="url(#pdce94e25a4)">
     <use style="fill:#ffb500;fill-opacity:0.884051;stroke:#ffb500;stroke-opacity:0.884051;" x="352.62951" xlink:href="#C0_0_f3113b28fd" y="343.730828"/>
    </g>
    <g clip-path="url(#pdce94e25a4)">
     <use style="fill:#ff7900;fill-opacity:0.981224;stroke:#ff7900;stroke-opacity:0.981224;" x="373.653403" xlink:href="#C0_0_f3113b28fd" y="362.024394"/>
    </g>
    <g clip-path="url(#pdce94e25a4)">
     <use style="fill:#ff3c00;stroke:#ff3c00;" x="392.397395" xlink:href="#C0_0_f3113b28fd" y="375.651267"/>
    </g>
    <g clip-path="url(#pdce94e25a4)">
     <use style="fill:#ff0000;fill-opacity:0.964098;stroke:#ff0000;stroke-opacity:0.964098;" x="408.39902" xlink:href="#C0_0_f3113b28fd" y="380.699323"/>
    </g>
    <g clip-path="url(#pdce94e25a4)">
     <use style="fill:#c00000;fill-opacity:0.882968;stroke:#c00000;stroke-opacity:0.882968;" x="422.023174" xlink:href="#C0_0_f3113b28fd" y="385.815874"/>
    </g>
    <g clip-path="url(#pdce94e25a4)">
     <use style="fill:#830000;fill-opacity:0.770498;stroke:#830000;stroke-opacity:0.770498;" x="433.86864" xlink:href="#C0_0_f3113b28fd" y="388.346429"/>
    </g>
    <g clip-path="url(#pdce94e25a4)">
     <use style="fill:#470000;fill-opacity:0.642308;stroke:#470000;stroke-opacity:0.642308;" x="444.230145" xlink:href="#C0_0_f3113b28fd" y="389.349377"/>
    </g>
    <g clip-path="url(#pdce94e25a4)">
     <use style="fill:#0b0000;fill-opacity:0.478964;stroke:#0b0000;stroke-opacity:0.478964;" x="453.502106" xlink:href="#C0_0_f3113b28fd" y="384.169953"/>
    </g>
   </g>
   <g id="Poly3DCollection_1">
    <path clip-path="url(#pdce94e25a4)" d="M 457.08212 199.627191 
L 431.241002 223.242957 
L 436.100165 270.580138 
L 462.0515 250.6729 
z
" style="fill:#ad52ff;"/>
    <path clip-path="url(#pdce94e25a4)" d="M 431.241002 223.242957 
L 405.454908 227.047955 
L 410.197324 270.290239 
L 436.100165 270.580138 
z
" style="fill:#9e61ff;"/>
    <path clip-path="url(#pdce94e25a4)" d="M 483.067753 159.298597 
L 457.08212 199.627191 
L 462.0515 250.6729 
L 488.188136 208.225929 
z
" style="fill:#d827ff;"/>
    <path clip-path="url(#pdce94e25a4)" d="M 405.454908 227.047955 
L 379.606614 221.980678 
L 384.22021 258.065461 
L 410.197324 270.290239 
z
" style="fill:#a35cff;"/>
    <path clip-path="url(#pdce94e25a4)" d="M 379.606614 221.980678 
L 353.653529 213.46552 
L 358.107597 240.506447 
L 384.22021 258.065461 
z
" style="fill:#b34cff;"/>
    <path clip-path="url(#pdce94e25a4)" d="M 462.0515 250.6729 
L 436.100165 270.580138 
L 441.060544 307.94182 
L 467.124556 294.140778 
z
" style="fill:#748bff;"/>
    <path clip-path="url(#pdce94e25a4)" d="M 488.188136 208.225929 
L 462.0515 250.6729 
L 467.124556 294.140778 
L 493.344923 259.412357 
z
" style="fill:#9966ff;"/>
    <path clip-path="url(#pdce94e25a4)" d="M 436.100165 270.580138 
L 410.197324 270.290239 
L 415.015317 305.966819 
L 441.060544 307.94182 
z
" style="fill:#6a95ff;"/>
    <path clip-path="url(#pdce94e25a4)" d="M 353.653529 213.46552 
L 327.579204 202.626282 
L 331.856842 226.394007 
L 358.107597 240.506447 
z
" style="fill:#c53aff;"/>
    <path clip-path="url(#pdce94e25a4)" d="M 410.197324 270.290239 
L 384.22021 258.065461 
L 388.891382 292.964935 
L 415.015317 305.966819 
z
" style="fill:#748bff;"/>
    <path clip-path="url(#pdce94e25a4)" d="M 327.579204 202.626282 
L 301.388169 192.791555 
L 305.474462 213.255873 
L 331.856842 226.394007 
z
" style="fill:#d629ff;"/>
    <path clip-path="url(#pdce94e25a4)" d="M 384.22021 258.065461 
L 358.107597 240.506447 
L 362.628017 273.608985 
L 388.891382 292.964935 
z
" style="fill:#8b74ff;"/>
    <path clip-path="url(#pdce94e25a4)" d="M 467.124556 294.140778 
L 441.060544 307.94182 
L 446.1086 340.419285 
L 472.327145 327.926226 
z
" style="fill:#46b9ff;"/>
    <path clip-path="url(#pdce94e25a4)" d="M 493.344923 259.412357 
L 467.124556 294.140778 
L 472.327145 327.926226 
L 498.653327 300.146424 
z
" style="fill:#649bff;"/>
    <path clip-path="url(#pdce94e25a4)" d="M 301.388169 192.791555 
L 275.095631 185.269124 
L 278.95741 199.968909 
L 305.474462 213.255873 
z
" style="fill:#e619ff;"/>
    <path clip-path="url(#pdce94e25a4)" d="M 441.060544 307.94182 
L 415.015317 305.966819 
L 419.905109 338.280892 
L 446.1086 340.419285 
z
" style="fill:#40bfff;"/>
    <path clip-path="url(#pdce94e25a4)" d="M 358.107597 240.506447 
L 331.856842 226.394007 
L 336.202922 253.19687 
L 362.628017 273.608985 
z
" style="fill:#a45bff;"/>
    <path clip-path="url(#pdce94e25a4)" d="M 275.095631 185.269124 
L 248.676693 176.071064 
L 252.338938 190.289375 
L 278.95741 199.968909 
z
" style="fill:#f40bff;"/>
    <path clip-path="url(#pdce94e25a4)" d="M 415.015317 305.966819 
L 388.891382 292.964935 
L 393.625598 324.592514 
L 419.905109 338.280892 
z
" style="fill:#4bb4ff;"/>
    <path clip-path="url(#pdce94e25a4)" d="M 248.676693 176.071064 
L 222.188531 171.081994 
L 225.625277 182.917016 
L 252.338938 190.289375 
z
" style="fill:#ff00ff;"/>
    <path clip-path="url(#pdce94e25a4)" d="M 331.856842 226.394007 
L 305.474462 213.255873 
L 309.618729 233.659806 
L 336.202922 253.19687 
z
" style="fill:#bb44ff;"/>
    <path clip-path="url(#pdce94e25a4)" d="M 388.891382 292.964935 
L 362.628017 273.608985 
L 367.200153 298.468923 
L 393.625598 324.592514 
z
" style="fill:#659aff;"/>
    <path clip-path="url(#pdce94e25a4)" d="M 498.653327 300.146424 
L 472.327145 327.926226 
L 477.686177 350.296868 
L 504.1708 326.016927 
z
" style="fill:#3fc0ff;"/>
    <path clip-path="url(#pdce94e25a4)" d="M 472.327145 327.926226 
L 446.1086 340.419285 
L 451.27645 363.651768 
L 477.686177 350.296868 
z
" style="fill:#25daff;"/>
    <path clip-path="url(#pdce94e25a4)" d="M 446.1086 340.419285 
L 419.905109 338.280892 
L 424.899261 359.815215 
L 451.27645 363.651768 
z
" style="fill:#20dfff;"/>
    <path clip-path="url(#pdce94e25a4)" d="M 305.474462 213.255873 
L 278.95741 199.968909 
L 282.916747 220.269718 
L 309.618729 233.659806 
z
" style="fill:#d02fff;"/>
    <path clip-path="url(#pdce94e25a4)" d="M 362.628017 273.608985 
L 336.202922 253.19687 
L 340.600467 277.242488 
L 367.200153 298.468923 
z
" style="fill:#837cff;"/>
    <path clip-path="url(#pdce94e25a4)" d="M 419.905109 338.280892 
L 393.625598 324.592514 
L 398.437877 346.981339 
L 424.899261 359.815215 
z
" style="fill:#2cd3ff;"/>
    <path clip-path="url(#pdce94e25a4)" d="M 278.95741 199.968909 
L 252.338938 190.289375 
L 256.071769 206.211317 
L 282.916747 220.269718 
z
" style="fill:#e21dff;"/>
    <path clip-path="url(#pdce94e25a4)" d="M 336.202922 253.19687 
L 309.618729 233.659806 
L 313.833796 256.389889 
L 340.600467 277.242488 
z
" style="fill:#a05fff;"/>
    <path clip-path="url(#pdce94e25a4)" d="M 252.338938 190.289375 
L 225.625277 182.917016 
L 229.118285 195.047824 
L 256.071769 206.211317 
z
" style="fill:#f10eff;"/>
    <path clip-path="url(#pdce94e25a4)" d="M 393.625598 324.592514 
L 367.200153 298.468923 
L 371.838015 325.992214 
L 398.437877 346.981339 
z
" style="fill:#46b9ff;"/>
    <path clip-path="url(#pdce94e25a4)" d="M 504.1708 326.016927 
L 477.686177 350.296868 
L 483.166565 367.646998 
L 509.852369 343.635519 
z
" style="fill:#28d7ff;"/>
    <path clip-path="url(#pdce94e25a4)" d="M 477.686177 350.296868 
L 451.27645 363.651768 
L 456.57848 377.428528 
L 483.166565 367.646998 
z
" style="fill:#11eeff;"/>
    <path clip-path="url(#pdce94e25a4)" d="M 309.618729 233.659806 
L 282.916747 220.269718 
L 286.910422 237.229224 
L 313.833796 256.389889 
z
" style="fill:#b946ff;"/>
    <path clip-path="url(#pdce94e25a4)" d="M 451.27645 363.651768 
L 424.899261 359.815215 
L 429.989159 376.256494 
L 456.57848 377.428528 
z
" style="fill:#0cf3ff;"/>
    <path clip-path="url(#pdce94e25a4)" d="M 367.200153 298.468923 
L 340.600467 277.242488 
L 345.063282 302.538163 
L 371.838015 325.992214 
z
" style="fill:#6699ff;"/>
    <path clip-path="url(#pdce94e25a4)" d="M 424.899261 359.815215 
L 398.437877 346.981339 
L 403.33219 364.106832 
L 429.989159 376.256494 
z
" style="fill:#17e8ff;"/>
    <path clip-path="url(#pdce94e25a4)" d="M 282.916747 220.269718 
L 256.071769 206.211317 
L 259.85484 221.490755 
L 286.910422 237.229224 
z
" style="fill:#cf30ff;"/>
    <path clip-path="url(#pdce94e25a4)" d="M 340.600467 277.242488 
L 313.833796 256.389889 
L 318.104586 278.133084 
L 345.063282 302.538163 
z
" style="fill:#857aff;"/>
    <path clip-path="url(#pdce94e25a4)" d="M 398.437877 346.981339 
L 371.838015 325.992214 
L 376.540541 345.224183 
L 403.33219 364.106832 
z
" style="fill:#2ed1ff;"/>
    <path clip-path="url(#pdce94e25a4)" d="M 256.071769 206.211317 
L 229.118285 195.047824 
L 232.681955 208.703946 
L 259.85484 221.490755 
z
" style="fill:#e21dff;"/>
    <path clip-path="url(#pdce94e25a4)" d="M 509.852369 343.635519 
L 483.166565 367.646998 
L 488.809472 376.150751 
L 515.674249 356.538448 
z
" style="fill:#1be4ff;"/>
    <path clip-path="url(#pdce94e25a4)" d="M 483.166565 367.646998 
L 456.57848 377.428528 
L 461.993109 387.232887 
L 488.809472 376.150751 
z
" style="fill:#06f9ff;"/>
    <path clip-path="url(#pdce94e25a4)" d="M 313.833796 256.389889 
L 286.910422 237.229224 
L 290.982569 257.034669 
L 318.104586 278.133084 
z
" style="fill:#a35cff;"/>
    <path clip-path="url(#pdce94e25a4)" d="M 456.57848 377.428528 
L 429.989159 376.256494 
L 435.196439 384.555693 
L 461.993109 387.232887 
z
" style="fill:#02fdff;"/>
    <path clip-path="url(#pdce94e25a4)" d="M 371.838015 325.992214 
L 345.063282 302.538163 
L 349.582759 324.624461 
L 376.540541 345.224183 
z
" style="fill:#4bb4ff;"/>
    <path clip-path="url(#pdce94e25a4)" d="M 429.989159 376.256494 
L 403.33219 364.106832 
L 408.320486 374.296608 
L 435.196439 384.555693 
z
" style="fill:#0bf4ff;"/>
    <path clip-path="url(#pdce94e25a4)" d="M 286.910422 237.229224 
L 259.85484 221.490755 
L 263.691085 236.23214 
L 290.982569 257.034669 
z
" style="fill:#bd42ff;"/>
    <path clip-path="url(#pdce94e25a4)" d="M 345.063282 302.538163 
L 318.104586 278.133084 
L 322.435465 299.327556 
L 349.582759 324.624461 
z
" style="fill:#6c93ff;"/>
    <path clip-path="url(#pdce94e25a4)" d="M 403.33219 364.106832 
L 376.540541 345.224183 
L 381.317664 358.417377 
L 408.320486 374.296608 
z
" style="fill:#20dfff;"/>
    <path clip-path="url(#pdce94e25a4)" d="M 259.85484 221.490755 
L 232.681955 208.703946 
L 236.292435 221.579928 
L 263.691085 236.23214 
z
" style="fill:#d32cff;"/>
    <path clip-path="url(#pdce94e25a4)" d="M 318.104586 278.133084 
L 290.982569 257.034669 
L 295.106587 275.479287 
L 322.435465 299.327556 
z
" style="fill:#8c73ff;"/>
    <path clip-path="url(#pdce94e25a4)" d="M 515.674249 356.538448 
L 488.809472 376.150751 
L 494.590349 380.137846 
L 521.693441 360.340597 
z
" style="fill:#17e8ff;"/>
    <path clip-path="url(#pdce94e25a4)" d="M 488.809472 376.150751 
L 461.993109 387.232887 
L 467.560879 388.25366 
L 494.590349 380.137846 
z
" style="fill:#04fbff;"/>
    <path clip-path="url(#pdce94e25a4)" d="M 376.540541 345.224183 
L 349.582759 324.624461 
L 354.15091 335.776116 
L 381.317664 358.417377 
z
" style="fill:#3bc4ff;"/>
    <path clip-path="url(#pdce94e25a4)" d="M 461.993109 387.232887 
L 435.196439 384.555693 
L 440.509013 389.713879 
L 467.560879 388.25366 
z
" style="fill:#00ffff;"/>
    <path clip-path="url(#pdce94e25a4)" d="M 290.982569 257.034669 
L 263.691085 236.23214 
L 267.596277 252.119366 
L 295.106587 275.479287 
z
" style="fill:#ab54ff;"/>
    <path clip-path="url(#pdce94e25a4)" d="M 435.196439 384.555693 
L 408.320486 374.296608 
L 413.400429 382.037445 
L 440.509013 389.713879 
z
" style="fill:#07f8ff;"/>
    <path clip-path="url(#pdce94e25a4)" d="M 349.582759 324.624461 
L 322.435465 299.327556 
L 326.79947 312.161148 
L 354.15091 335.776116 
z
" style="fill:#5aa5ff;"/>
    <path clip-path="url(#pdce94e25a4)" d="M 263.691085 236.23214 
L 236.292435 221.579928 
L 239.948748 233.371625 
L 267.596277 252.119366 
z
" style="fill:#c53aff;"/>
    <path clip-path="url(#pdce94e25a4)" d="M 408.320486 374.296608 
L 381.317664 358.417377 
L 386.175555 368.997907 
L 413.400429 382.037445 
z
" style="fill:#18e7ff;"/>
    <path clip-path="url(#pdce94e25a4)" d="M 322.435465 299.327556 
L 295.106587 275.479287 
L 299.269267 289.783129 
L 326.79947 312.161148 
z
" style="fill:#7b84ff;"/>
    <path clip-path="url(#pdce94e25a4)" d="M 521.693441 360.340597 
L 494.590349 380.137846 
L 500.517427 379.667253 
L 527.867653 360.096853 
z
" style="fill:#1be4ff;"/>
    <path clip-path="url(#pdce94e25a4)" d="M 381.317664 358.417377 
L 354.15091 335.776116 
L 358.799943 350.12402 
L 386.175555 368.997907 
z
" style="fill:#30cfff;"/>
    <path clip-path="url(#pdce94e25a4)" d="M 494.590349 380.137846 
L 467.560879 388.25366 
L 473.237064 388.508247 
L 500.517427 379.667253 
z
" style="fill:#09f6ff;"/>
    <path clip-path="url(#pdce94e25a4)" d="M 467.560879 388.25366 
L 440.509013 389.713879 
L 445.93717 390.988641 
L 473.237064 388.508247 
z
" style="fill:#03fcff;"/>
    <path clip-path="url(#pdce94e25a4)" d="M 295.106587 275.479287 
L 267.596277 252.119366 
L 271.567106 268.647592 
L 299.269267 289.783129 
z
" style="fill:#9a65ff;"/>
    <path clip-path="url(#pdce94e25a4)" d="M 354.15091 335.776116 
L 326.79947 312.161148 
L 331.244397 327.695596 
L 358.799943 350.12402 
z
" style="fill:#4eb1ff;"/>
    <path clip-path="url(#pdce94e25a4)" d="M 440.509013 389.713879 
L 413.400429 382.037445 
L 418.586984 384.275702 
L 445.93717 390.988641 
z
" style="fill:#08f7ff;"/>
    <path clip-path="url(#pdce94e25a4)" d="M 267.596277 252.119366 
L 239.948748 233.371625 
L 243.669761 245.730119 
L 271.567106 268.647592 
z
" style="fill:#b748ff;"/>
    <path clip-path="url(#pdce94e25a4)" d="M 413.400429 382.037445 
L 386.175555 368.997907 
L 391.122562 374.055008 
L 418.586984 384.275702 
z
" style="fill:#15eaff;"/>
    <path clip-path="url(#pdce94e25a4)" d="M 326.79947 312.161148 
L 299.269267 289.783129 
L 303.488889 302.252941 
L 331.244397 327.695596 
z
" style="fill:#6e91ff;"/>
    <path clip-path="url(#pdce94e25a4)" d="M 386.175555 368.997907 
L 358.799943 350.12402 
L 363.519186 358.082245 
L 391.122562 374.055008 
z
" style="fill:#29d6ff;"/>
    <path clip-path="url(#pdce94e25a4)" d="M 527.867653 360.096853 
L 500.517427 379.667253 
L 506.567199 378.051179 
L 534.222676 354.379659 
z
" style="fill:#23dcff;"/>
    <path clip-path="url(#pdce94e25a4)" d="M 500.517427 379.667253 
L 473.237064 388.508247 
L 479.021295 388.547704 
L 506.567199 378.051179 
z
" style="fill:#10efff;"/>
    <path clip-path="url(#pdce94e25a4)" d="M 299.269267 289.783129 
L 271.567106 268.647592 
L 275.552452 278.918326 
L 303.488889 302.252941 
z
" style="fill:#8d72ff;"/>
    <path clip-path="url(#pdce94e25a4)" d="M 473.237064 388.508247 
L 445.93717 390.988641 
L 451.4847 389.045878 
L 479.021295 388.547704 
z
" style="fill:#09f6ff;"/>
    <path clip-path="url(#pdce94e25a4)" d="M 358.799943 350.12402 
L 331.244397 327.695596 
L 335.743834 337.567871 
L 363.519186 358.082245 
z
" style="fill:#44bbff;"/>
    <path clip-path="url(#pdce94e25a4)" d="M 445.93717 390.988641 
L 418.586984 384.275702 
L 423.872525 385.69086 
L 451.4847 389.045878 
z
" style="fill:#0df2ff;"/>
    <path clip-path="url(#pdce94e25a4)" d="M 271.567106 268.647592 
L 243.669761 245.730119 
L 247.421568 255.024895 
L 275.552452 278.918326 
z
" style="fill:#ac53ff;"/>
    <path clip-path="url(#pdce94e25a4)" d="M 418.586984 384.275702 
L 391.122562 374.055008 
L 396.162459 376.887565 
L 423.872525 385.69086 
z
" style="fill:#17e8ff;"/>
    <path clip-path="url(#pdce94e25a4)" d="M 331.244397 327.695596 
L 303.488889 302.252941 
L 307.776471 314.316605 
L 335.743834 337.567871 
z
" style="fill:#639cff;"/>
    <path clip-path="url(#pdce94e25a4)" d="M 391.122562 374.055008 
L 363.519186 358.082245 
L 368.319811 362.978238 
L 396.162459 376.887565 
z
" style="fill:#28d7ff;"/>
    <path clip-path="url(#pdce94e25a4)" d="M 303.488889 302.252941 
L 275.552452 278.918326 
L 279.600319 288.519129 
L 307.776471 314.316605 
z
" style="fill:#837cff;"/>
    <path clip-path="url(#pdce94e25a4)" d="M 534.222676 354.379659 
L 506.567199 378.051179 
L 512.805555 369.348607 
L 540.721036 347.122997 
z
" style="fill:#31ceff;"/>
    <path clip-path="url(#pdce94e25a4)" d="M 506.567199 378.051179 
L 479.021295 388.547704 
L 484.95297 383.968876 
L 512.805555 369.348607 
z
" style="fill:#1be4ff;"/>
    <path clip-path="url(#pdce94e25a4)" d="M 479.021295 388.547704 
L 451.4847 389.045878 
L 457.137961 387.272408 
L 484.95297 383.968876 
z
" style="fill:#12edff;"/>
    <path clip-path="url(#pdce94e25a4)" d="M 363.519186 358.082245 
L 335.743834 337.567871 
L 340.307832 342.578378 
L 368.319811 362.978238 
z
" style="fill:#41beff;"/>
    <path clip-path="url(#pdce94e25a4)" d="M 275.552452 278.918326 
L 247.421568 255.024895 
L 251.245935 265.249941 
L 279.600319 288.519129 
z
" style="fill:#a35cff;"/>
    <path clip-path="url(#pdce94e25a4)" d="M 451.4847 389.045878 
L 423.872525 385.69086 
L 429.271755 383.534007 
L 457.137961 387.272408 
z
" style="fill:#14ebff;"/>
    <path clip-path="url(#pdce94e25a4)" d="M 335.743834 337.567871 
L 307.776471 314.316605 
L 312.109065 320.747563 
L 340.307832 342.578378 
z
" style="fill:#5da2ff;"/>
    <path clip-path="url(#pdce94e25a4)" d="M 423.872525 385.69086 
L 396.162459 376.887565 
L 401.300217 377.590605 
L 429.271755 383.534007 
z
" style="fill:#1de2ff;"/>
    <path clip-path="url(#pdce94e25a4)" d="M 396.162459 376.887565 
L 368.319811 362.978238 
L 373.207282 363.58789 
L 401.300217 377.590605 
z
" style="fill:#2bd4ff;"/>
    <path clip-path="url(#pdce94e25a4)" d="M 307.776471 314.316605 
L 279.600319 288.519129 
L 283.69078 294.228894 
L 312.109065 320.747563 
z
" style="fill:#7e81ff;"/>
    <path clip-path="url(#pdce94e25a4)" d="M 368.319811 362.978238 
L 340.307832 342.578378 
L 344.951402 345.954455 
L 373.207282 363.58789 
z
" style="fill:#42bdff;"/>
    <path clip-path="url(#pdce94e25a4)" d="M 279.600319 288.519129 
L 251.245935 265.249941 
L 255.086932 270.148255 
L 283.69078 294.228894 
z
" style="fill:#9e61ff;"/>
    <path clip-path="url(#pdce94e25a4)" d="M 340.307832 342.578378 
L 312.109065 320.747563 
L 316.517199 326.610676 
L 344.951402 345.954455 
z
" style="fill:#5ca3ff;"/>
    <path clip-path="url(#pdce94e25a4)" d="M 312.109065 320.747563 
L 283.69078 294.228894 
L 287.844321 298.278645 
L 316.517199 326.610676 
z
" style="fill:#7c83ff;"/>
    <path clip-path="url(#pdce94e25a4)" d="M 283.69078 294.228894 
L 255.086932 270.148255 
L 258.991013 274.252145 
L 287.844321 298.278645 
z
" style="fill:#9d62ff;"/>
   </g>
   <g id="line2d_23">
    <path clip-path="url(#pdce94e25a4)" d="M 289.740448 224.883409 
L 307.39804 264.82177 
L 330.351903 311.025184 
L 352.62951 343.730828 
L 373.653403 362.024394 
L 392.397395 375.651267 
L 408.39902 380.699323 
L 422.023174 385.815874 
L 433.86864 388.346429 
L 444.230145 389.349377 
L 453.502106 384.169953 
" style="fill:none;stroke:#000000;stroke-linecap:square;stroke-width:1.5;"/>
   </g>
   <g id="line2d_24">
    <path clip-path="url(#pdce94e25a4)" d="M 289.740448 224.883409 
" style="fill:none;stroke:#ff7f0e;stroke-linecap:square;stroke-width:1.5;"/>
    <defs>
     <path d="M 0 2.5 
C 0.663008 2.5 1.29895 2.236584 1.767767 1.767767 
C 2.236584 1.29895 2.5 0.663008 2.5 0 
C 2.5 -0.663008 2.236584 -1.29895 1.767767 -1.767767 
C 1.29895 -2.236584 0.663008 -2.5 0 -2.5 
C -0.663008 -2.5 -1.29895 -2.236584 -1.767767 -1.767767 
C -2.236584 -1.29895 -2.5 -0.663008 -2.5 0 
C -2.5 0.663008 -2.236584 1.29895 -1.767767 1.767767 
C -1.29895 2.236584 -0.663008 2.5 0 2.5 
z
" id="mf8b8f4ec98" style="stroke:#ffffa4;"/>
    </defs>
    <g clip-path="url(#pdce94e25a4)">
     <use style="fill:#ffffa4;stroke:#ffffa4;" x="289.740448" xlink:href="#mf8b8f4ec98" y="224.883409"/>
    </g>
   </g>
   <g id="line2d_25">
    <path clip-path="url(#pdce94e25a4)" d="M 307.39804 264.82177 
" style="fill:none;stroke:#2ca02c;stroke-linecap:square;stroke-width:1.5;"/>
    <defs>
     <path d="M 0 2.5 
C 0.663008 2.5 1.29895 2.236584 1.767767 1.767767 
C 2.236584 1.29895 2.5 0.663008 2.5 0 
C 2.5 -0.663008 2.236584 -1.29895 1.767767 -1.767767 
C 1.29895 -2.236584 0.663008 -2.5 0 -2.5 
C -0.663008 -2.5 -1.29895 -2.236584 -1.767767 -1.767767 
C -2.236584 -1.29895 -2.5 -0.663008 -2.5 0 
C -2.5 0.663008 -2.236584 1.29895 -1.767767 1.767767 
C -1.29895 2.236584 -0.663008 2.5 0 2.5 
z
" id="m6e121e0eb3" style="stroke:#ffff4a;"/>
    </defs>
    <g clip-path="url(#pdce94e25a4)">
     <use style="fill:#ffff4a;stroke:#ffff4a;" x="307.39804" xlink:href="#m6e121e0eb3" y="264.82177"/>
    </g>
   </g>
   <g id="line2d_26">
    <path clip-path="url(#pdce94e25a4)" d="M 330.351903 311.025184 
" style="fill:none;stroke:#d62728;stroke-linecap:square;stroke-width:1.5;"/>
    <defs>
     <path d="M 0 2.5 
C 0.663008 2.5 1.29895 2.236584 1.767767 1.767767 
C 2.236584 1.29895 2.5 0.663008 2.5 0 
C 2.5 -0.663008 2.236584 -1.29895 1.767767 -1.767767 
C 1.29895 -2.236584 0.663008 -2.5 0 -2.5 
C -0.663008 -2.5 -1.29895 -2.236584 -1.767767 -1.767767 
C -2.236584 -1.29895 -2.5 -0.663008 -2.5 0 
C -2.5 0.663008 -2.236584 1.29895 -1.767767 1.767767 
C -1.29895 2.236584 -0.663008 2.5 0 2.5 
z
" id="m600dbe8eb7" style="stroke:#fff400;"/>
    </defs>
    <g clip-path="url(#pdce94e25a4)">
     <use style="fill:#fff400;stroke:#fff400;" x="330.351903" xlink:href="#m600dbe8eb7" y="311.025184"/>
    </g>
   </g>
   <g id="line2d_27">
    <path clip-path="url(#pdce94e25a4)" d="M 352.62951 343.730828 
" style="fill:none;stroke:#9467bd;stroke-linecap:square;stroke-width:1.5;"/>
    <defs>
     <path d="M 0 2.5 
C 0.663008 2.5 1.29895 2.236584 1.767767 1.767767 
C 2.236584 1.29895 2.5 0.663008 2.5 0 
C 2.5 -0.663008 2.236584 -1.29895 1.767767 -1.767767 
C 1.29895 -2.236584 0.663008 -2.5 0 -2.5 
C -0.663008 -2.5 -1.29895 -2.236584 -1.767767 -1.767767 
C -2.236584 -1.29895 -2.5 -0.663008 -2.5 0 
C -2.5 0.663008 -2.236584 1.29895 -1.767767 1.767767 
C -1.29895 2.236584 -0.663008 2.5 0 2.5 
z
" id="m5ab7f2c079" style="stroke:#ffb500;"/>
    </defs>
    <g clip-path="url(#pdce94e25a4)">
     <use style="fill:#ffb500;stroke:#ffb500;" x="352.62951" xlink:href="#m5ab7f2c079" y="343.730828"/>
    </g>
   </g>
   <g id="line2d_28">
    <path clip-path="url(#pdce94e25a4)" d="M 373.653403 362.024394 
" style="fill:none;stroke:#8c564b;stroke-linecap:square;stroke-width:1.5;"/>
    <defs>
     <path d="M 0 2.5 
C 0.663008 2.5 1.29895 2.236584 1.767767 1.767767 
C 2.236584 1.29895 2.5 0.663008 2.5 0 
C 2.5 -0.663008 2.236584 -1.29895 1.767767 -1.767767 
C 1.29895 -2.236584 0.663008 -2.5 0 -2.5 
C -0.663008 -2.5 -1.29895 -2.236584 -1.767767 -1.767767 
C -2.236584 -1.29895 -2.5 -0.663008 -2.5 0 
C -2.5 0.663008 -2.236584 1.29895 -1.767767 1.767767 
C -1.29895 2.236584 -0.663008 2.5 0 2.5 
z
" id="mfd4f43af27" style="stroke:#ff7900;"/>
    </defs>
    <g clip-path="url(#pdce94e25a4)">
     <use style="fill:#ff7900;stroke:#ff7900;" x="373.653403" xlink:href="#mfd4f43af27" y="362.024394"/>
    </g>
   </g>
   <g id="line2d_29">
    <path clip-path="url(#pdce94e25a4)" d="M 392.397395 375.651267 
" style="fill:none;stroke:#e377c2;stroke-linecap:square;stroke-width:1.5;"/>
    <defs>
     <path d="M 0 2.5 
C 0.663008 2.5 1.29895 2.236584 1.767767 1.767767 
C 2.236584 1.29895 2.5 0.663008 2.5 0 
C 2.5 -0.663008 2.236584 -1.29895 1.767767 -1.767767 
C 1.29895 -2.236584 0.663008 -2.5 0 -2.5 
C -0.663008 -2.5 -1.29895 -2.236584 -1.767767 -1.767767 
C -2.236584 -1.29895 -2.5 -0.663008 -2.5 0 
C -2.5 0.663008 -2.236584 1.29895 -1.767767 1.767767 
C -1.29895 2.236584 -0.663008 2.5 0 2.5 
z
" id="m39dcc93843" style="stroke:#ff3c00;"/>
    </defs>
    <g clip-path="url(#pdce94e25a4)">
     <use style="fill:#ff3c00;stroke:#ff3c00;" x="392.397395" xlink:href="#m39dcc93843" y="375.651267"/>
    </g>
   </g>
   <g id="line2d_30">
    <path clip-path="url(#pdce94e25a4)" d="M 408.39902 380.699323 
" style="fill:none;stroke:#7f7f7f;stroke-linecap:square;stroke-width:1.5;"/>
    <defs>
     <path d="M 0 2.5 
C 0.663008 2.5 1.29895 2.236584 1.767767 1.767767 
C 2.236584 1.29895 2.5 0.663008 2.5 0 
C 2.5 -0.663008 2.236584 -1.29895 1.767767 -1.767767 
C 1.29895 -2.236584 0.663008 -2.5 0 -2.5 
C -0.663008 -2.5 -1.29895 -2.236584 -1.767767 -1.767767 
C -2.236584 -1.29895 -2.5 -0.663008 -2.5 0 
C -2.5 0.663008 -2.236584 1.29895 -1.767767 1.767767 
C -1.29895 2.236584 -0.663008 2.5 0 2.5 
z
" id="m6bdddc01da" style="stroke:#ff0000;"/>
    </defs>
    <g clip-path="url(#pdce94e25a4)">
     <use style="fill:#ff0000;stroke:#ff0000;" x="408.39902" xlink:href="#m6bdddc01da" y="380.699323"/>
    </g>
   </g>
   <g id="line2d_31">
    <path clip-path="url(#pdce94e25a4)" d="M 422.023174 385.815874 
" style="fill:none;stroke:#bcbd22;stroke-linecap:square;stroke-width:1.5;"/>
    <defs>
     <path d="M 0 2.5 
C 0.663008 2.5 1.29895 2.236584 1.767767 1.767767 
C 2.236584 1.29895 2.5 0.663008 2.5 0 
C 2.5 -0.663008 2.236584 -1.29895 1.767767 -1.767767 
C 1.29895 -2.236584 0.663008 -2.5 0 -2.5 
C -0.663008 -2.5 -1.29895 -2.236584 -1.767767 -1.767767 
C -2.236584 -1.29895 -2.5 -0.663008 -2.5 0 
C -2.5 0.663008 -2.236584 1.29895 -1.767767 1.767767 
C -1.29895 2.236584 -0.663008 2.5 0 2.5 
z
" id="m08c79608db" style="stroke:#c00000;"/>
    </defs>
    <g clip-path="url(#pdce94e25a4)">
     <use style="fill:#c00000;stroke:#c00000;" x="422.023174" xlink:href="#m08c79608db" y="385.815874"/>
    </g>
   </g>
   <g id="line2d_32">
    <path clip-path="url(#pdce94e25a4)" d="M 433.86864 388.346429 
" style="fill:none;stroke:#17becf;stroke-linecap:square;stroke-width:1.5;"/>
    <defs>
     <path d="M 0 2.5 
C 0.663008 2.5 1.29895 2.236584 1.767767 1.767767 
C 2.236584 1.29895 2.5 0.663008 2.5 0 
C 2.5 -0.663008 2.236584 -1.29895 1.767767 -1.767767 
C 1.29895 -2.236584 0.663008 -2.5 0 -2.5 
C -0.663008 -2.5 -1.29895 -2.236584 -1.767767 -1.767767 
C -2.236584 -1.29895 -2.5 -0.663008 -2.5 0 
C -2.5 0.663008 -2.236584 1.29895 -1.767767 1.767767 
C -1.29895 2.236584 -0.663008 2.5 0 2.5 
z
" id="m1440cb624f" style="stroke:#830000;"/>
    </defs>
    <g clip-path="url(#pdce94e25a4)">
     <use style="fill:#830000;stroke:#830000;" x="433.86864" xlink:href="#m1440cb624f" y="388.346429"/>
    </g>
   </g>
   <g id="line2d_33">
    <path clip-path="url(#pdce94e25a4)" d="M 444.230145 389.349377 
" style="fill:none;stroke:#1f77b4;stroke-linecap:square;stroke-width:1.5;"/>
    <defs>
     <path d="M 0 2.5 
C 0.663008 2.5 1.29895 2.236584 1.767767 1.767767 
C 2.236584 1.29895 2.5 0.663008 2.5 0 
C 2.5 -0.663008 2.236584 -1.29895 1.767767 -1.767767 
C 1.29895 -2.236584 0.663008 -2.5 0 -2.5 
C -0.663008 -2.5 -1.29895 -2.236584 -1.767767 -1.767767 
C -2.236584 -1.29895 -2.5 -0.663008 -2.5 0 
C -2.5 0.663008 -2.236584 1.29895 -1.767767 1.767767 
C -1.29895 2.236584 -0.663008 2.5 0 2.5 
z
" id="me816bc4aae" style="stroke:#470000;"/>
    </defs>
    <g clip-path="url(#pdce94e25a4)">
     <use style="fill:#470000;stroke:#470000;" x="444.230145" xlink:href="#me816bc4aae" y="389.349377"/>
    </g>
   </g>
   <g id="line2d_34">
    <path clip-path="url(#pdce94e25a4)" d="M 453.502106 384.169953 
" style="fill:none;stroke:#ff7f0e;stroke-linecap:square;stroke-width:1.5;"/>
    <defs>
     <path d="M 0 2.5 
C 0.663008 2.5 1.29895 2.236584 1.767767 1.767767 
C 2.236584 1.29895 2.5 0.663008 2.5 0 
C 2.5 -0.663008 2.236584 -1.29895 1.767767 -1.767767 
C 1.29895 -2.236584 0.663008 -2.5 0 -2.5 
C -0.663008 -2.5 -1.29895 -2.236584 -1.767767 -1.767767 
C -2.236584 -1.29895 -2.5 -0.663008 -2.5 0 
C -2.5 0.663008 -2.236584 1.29895 -1.767767 1.767767 
C -1.29895 2.236584 -0.663008 2.5 0 2.5 
z
" id="mb930596866" style="stroke:#0b0000;"/>
    </defs>
    <g clip-path="url(#pdce94e25a4)">
     <use style="fill:#0b0000;stroke:#0b0000;" x="453.502106" xlink:href="#mb930596866" y="384.169953"/>
    </g>
   </g>
   <g id="line2d_35">
    <path clip-path="url(#pdce94e25a4)" d="M 453.502106 384.169953 
" style="fill:none;stroke:#2ca02c;stroke-linecap:square;stroke-opacity:0.6;stroke-width:1.5;"/>
    <defs>
     <path d="M -2.5 5 
L 0 2.5 
L 2.5 5 
L 5 2.5 
L 2.5 0 
L 5 -2.5 
L 2.5 -5 
L 0 -2.5 
L -2.5 -5 
L -5 -2.5 
L -2.5 0 
L -5 2.5 
z
" id="m606a2c1347" style="stroke:#ff0000;stroke-linejoin:miter;stroke-opacity:0.6;"/>
    </defs>
    <g clip-path="url(#pdce94e25a4)">
     <use style="fill:#ff0000;fill-opacity:0.6;stroke:#ff0000;stroke-linejoin:miter;stroke-opacity:0.6;" x="453.502106" xlink:href="#m606a2c1347" y="384.169953"/>
    </g>
   </g>
   <g id="line2d_36">
    <path clip-path="url(#pdce94e25a4)" d="M 289.740448 224.883409 
" style="fill:none;stroke:#d62728;stroke-linecap:square;stroke-opacity:0.6;stroke-width:1.5;"/>
    <defs>
     <path d="M -0 5 
L 5 -5 
L -5 -5 
z
" id="m3fb3703d38" style="stroke:#000000;stroke-linejoin:miter;stroke-opacity:0.6;"/>
    </defs>
    <g clip-path="url(#pdce94e25a4)">
     <use style="fill-opacity:0.6;stroke:#000000;stroke-linejoin:miter;stroke-opacity:0.6;" x="289.740448" xlink:href="#m3fb3703d38" y="224.883409"/>
    </g>
   </g>
  </g>
 </g>
 <defs>
  <clipPath id="pdce94e25a4">
   <rect height="434.88" width="558" x="90" y="69.12"/>
  </clipPath>
 </defs>
</svg>
