<?xml version="1.0" encoding="utf-8" standalone="no"?>
<!DOCTYPE svg PUBLIC "-//W3C//DTD SVG 1.1//EN"
  "http://www.w3.org/Graphics/SVG/1.1/DTD/svg11.dtd">
<!-- Created with matplotlib (https://matplotlib.org/) -->
<svg height="576pt" version="1.1" viewBox="0 0 720 576" width="720pt" xmlns="http://www.w3.org/2000/svg" xmlns:xlink="http://www.w3.org/1999/xlink">
 <defs>
  <style type="text/css">
*{stroke-linecap:butt;stroke-linejoin:round;}
  </style>
 </defs>
 <g id="figure_1">
  <g id="axes_1">
   <g id="patch_1">
    <path d="M 90 512.64 
L 648 512.64 
L 648 69.12 
L 90 69.12 
z
" style="fill:#ffffff;"/>
   </g>
   <g id="LineCollection_1"/>
   <g id="LineCollection_2">
    <path clip-path="url(#p613b30c446)" d="M 90 79.798382 
L 117.9 79.22165 
L 145.8 83.514899 
L 173.7 90.335996 
L 175.848261 91.296 
L 201.6 103.359722 
L 229.5 110.593252 
L 236.932826 113.472 
L 257.4 122.927429 
L 281.360998 135.648 
L 285.3 138.84391 
L 313.2 155.732681 
L 316.45282 157.824 
L 328.836758 167.543095 
" style="fill:none;stroke:#450559;stroke-width:1.5;"/>
    <path clip-path="url(#p613b30c446)" d="M 355.296054 195.748597 
L 359.989171 202.176 
L 369 215.142577 
L 374.152872 224.352 
L 383.572941 246.528 
L 383.551974 268.704 
L 379.592882 290.88 
L 369 303.021857 
L 356.429667 313.056 
L 341.1 320.348887 
L 313.2 328.412932 
L 285.3 333.212547 
L 257.4 331.088967 
L 229.5 328.829704 
L 201.6 322.049586 
L 173.7 316.816335 
L 166.657301 313.056 
L 145.8 303.407698 
L 117.9 296.962803 
L 107.285767 290.88 
L 90 279.626554 
" style="fill:none;stroke:#450559;stroke-width:1.5;"/>
   </g>
   <g id="LineCollection_3">
    <path clip-path="url(#p613b30c446)" d="M 220.146119 69.12 
L 229.5 73.836412 
L 257.4 85.162367 
L 275.138862 91.296 
L 285.3 96.407291 
L 313.2 111.119798 
L 316.560242 113.472 
L 341.1 134.098253 
L 343.264013 135.648 
L 367.329071 157.824 
L 369 159.485007 
L 384.73348 177.387911 
" style="fill:none;stroke:#460a5d;stroke-width:1.5;"/>
    <path clip-path="url(#p613b30c446)" d="M 406.807996 209.415648 
L 415.463955 224.352 
L 423.269326 246.528 
L 424.8 252.564551 
L 427.993977 268.704 
L 428.51023 290.88 
L 424.8 302.283187 
L 419.244779 313.056 
L 402.49599 335.232 
L 396.9 339.93337 
L 369 352.445072 
L 356.992674 357.408 
L 341.1 362.160064 
L 313.2 362.232634 
L 285.3 363.830638 
L 257.4 363.45608 
L 229.5 359.967841 
L 217.71206 357.408 
L 201.6 352.451179 
L 173.7 347.201107 
L 145.8 337.391071 
L 138.69507 335.232 
L 117.9 327.438203 
L 90 316.232579 
" style="fill:none;stroke:#460a5d;stroke-width:1.5;"/>
   </g>
   <g id="LineCollection_4">
    <path clip-path="url(#p613b30c446)" d="M 278.486806 69.12 
L 285.3 72.247099 
L 313.2 86.722611 
L 318.609393 91.296 
L 341.1 107.092888 
L 350.604619 113.472 
L 369 126.822267 
L 377.31295 135.648 
L 396.9 156.297913 
L 398.180147 157.824 
L 415.682928 180 
L 424.8 194.218725 
L 428.480306 202.176 
L 439.701902 224.352 
L 448.430723 246.528 
L 449.279938 249.740043 
" style="fill:none;stroke:#470e61;stroke-width:1.5;"/>
    <path clip-path="url(#p613b30c446)" d="M 454.788455 288.176579 
L 454.931974 290.88 
L 452.7 309.601936 
L 451.979881 313.056 
L 439.971473 335.232 
L 424.8 355.901515 
L 423.003036 357.408 
L 396.9 372.072627 
L 377.94182 379.584 
L 369 382.254856 
L 341.1 386.601107 
L 313.2 386.206041 
L 285.3 385.886542 
L 257.4 384.142292 
L 235.661526 379.584 
L 229.5 378.342612 
L 201.6 372.717098 
L 173.7 368.021403 
L 149.678271 357.408 
L 145.8 355.902723 
L 117.9 348.364283 
L 90 338.442585 
" style="fill:none;stroke:#470e61;stroke-width:1.5;"/>
   </g>
   <g id="LineCollection_5">
    <path clip-path="url(#p613b30c446)" d="M 322.549185 69.12 
L 341.1 84.579521 
L 350.287477 91.296 
L 369 104.173538 
L 379.363424 113.472 
L 396.9 131.745021 
L 399.96758 135.648 
L 419.012277 157.824 
L 424.8 164.485358 
L 434.960308 180 
L 447.113826 202.176 
L 452.7 212.245213 
L 457.589832 224.352 
L 464.680486 246.528 
L 470.13417 268.704 
L 472.729657 290.88 
L 472.380497 293.70342 
" style="fill:none;stroke:#471365;stroke-width:1.5;"/>
    <path clip-path="url(#p613b30c446)" d="M 464.037154 331.62604 
L 462.881755 335.232 
L 454.292778 357.408 
L 452.7 359.809322 
L 429.932977 379.584 
L 424.8 383.84931 
L 396.9 394.892305 
L 369.138012 401.76 
L 369 401.795466 
L 341.1 406.336068 
L 313.2 407.094596 
L 285.3 404.332987 
L 257.4 402.887188 
L 253.338495 401.76 
L 229.5 394.409965 
L 201.6 388.193528 
L 173.7 385.994397 
L 152.752658 379.584 
L 145.8 376.475131 
L 117.9 365.11656 
L 97.234829 357.408 
L 90 354.362492 
" style="fill:none;stroke:#471365;stroke-width:1.5;"/>
   </g>
   <g id="LineCollection_6">
    <path clip-path="url(#p613b30c446)" d="M 348.946017 69.12 
L 369 83.778976 
L 376.09807 91.296 
L 396.9 109.72528 
L 399.990279 113.472 
L 418.173372 135.648 
L 424.8 143.079445 
L 434.902893 157.824 
L 441.696183 167.383263 
" style="fill:none;stroke:#481769;stroke-width:1.5;"/>
    <path clip-path="url(#p613b30c446)" d="M 460.797743 201.206549 
L 461.240289 202.176 
L 471.155495 224.352 
L 479.158293 246.528 
L 480.6 251.322181 
L 484.834588 268.704 
L 487.402839 290.88 
L 485.693647 313.056 
L 481.112257 335.232 
L 480.6 336.637716 
L 470.801601 357.408 
L 456.422016 379.584 
L 452.7 384.46407 
L 431.883252 401.76 
L 424.8 406.706005 
L 396.9 416.778297 
L 369.937688 423.936 
L 369 424.099544 
L 341.1 425.348197 
L 313.2 424.089604 
L 312.395086 423.936 
L 285.3 418.240686 
L 257.4 417.199204 
L 229.5 409.936142 
L 201.782173 401.76 
L 201.6 401.712222 
L 173.7 400.19881 
L 145.8 390.327703 
L 118.713354 379.584 
L 117.9 379.223841 
L 90 369.14828 
" style="fill:none;stroke:#481769;stroke-width:1.5;"/>
   </g>
   <g id="LineCollection_7">
    <path clip-path="url(#p613b30c446)" d="M 374.414929 69.12 
L 396.127912 91.296 
L 396.9 91.980025 
L 414.626492 113.472 
L 424.8 125.052099 
L 433.899221 135.648 
L 448.892463 157.824 
L 452.7 163.107322 
L 462.489284 180 
L 473.437071 202.176 
L 475.675913 206.744229 
" style="fill:none;stroke:#481b6d;stroke-width:1.5;"/>
    <path clip-path="url(#p613b30c446)" d="M 489.94532 242.939899 
L 491.083077 246.528 
L 496.563456 268.704 
L 499.598934 290.88 
L 498.418301 313.056 
L 493.86471 335.232 
L 485.895449 357.408 
L 480.6 369.567088 
L 474.534729 379.584 
L 457.572914 401.76 
L 452.7 408.251711 
L 429.608634 423.936 
L 424.8 426.774711 
L 396.9 435.901841 
L 369 438.579645 
L 341.1 439.10167 
L 313.2 436.716082 
L 285.3 431.882833 
L 257.4 429.667953 
L 229.5 424.871196 
L 226.782532 423.936 
L 201.6 414.527469 
L 173.7 410.466731 
L 145.8 402.697654 
L 143.040042 401.76 
L 117.9 391.312386 
L 90 382.693701 
" style="fill:none;stroke:#481b6d;stroke-width:1.5;"/>
   </g>
   <g id="LineCollection_8">
    <path clip-path="url(#p613b30c446)" d="M 391.942804 69.12 
L 396.9 74.160516 
L 412.027038 91.296 
L 424.8 107.417188 
L 429.520106 113.472 
L 448.205827 135.648 
L 452.7 142.333658 
L 461.981793 157.824 
L 473.738434 180 
L 480.6 193.226526 
L 485.789048 202.176 
L 495.411786 224.352 
L 502.725514 246.528 
L 508.292324 268.704 
L 508.5 270.067977 
L 511.909106 290.88 
L 511.814489 293.568069 
" style="fill:none;stroke:#481f70;stroke-width:1.5;"/>
    <path clip-path="url(#p613b30c446)" d="M 507.243862 332.165138 
L 506.617163 335.232 
L 498.923186 357.408 
L 489.769146 379.584 
L 480.6 395.12602 
L 475.508063 401.76 
L 459.823258 423.936 
L 452.7 430.783685 
L 427.091432 446.112 
L 424.8 447.527787 
L 396.9 453.190819 
L 369 453.703985 
L 341.1 452.576661 
L 313.2 449.498979 
L 290.405235 446.112 
L 285.3 445.340819 
L 257.4 440.497449 
L 229.5 436.673263 
L 201.6 426.958204 
L 190.065454 423.936 
L 173.7 420.248572 
L 145.8 412.536828 
L 117.9 403.00277 
L 113.598562 401.76 
L 90 393.753835 
" style="fill:none;stroke:#481f70;stroke-width:1.5;"/>
   </g>
   <g id="LineCollection_9">
    <path clip-path="url(#p613b30c446)" d="M 408.950447 69.12 
L 424.8 87.60798 
L 428.222709 91.296 
L 445.000511 113.472 
L 452.7 122.793611 
L 462.641628 135.648 
L 474.734481 157.824 
L 480.6 169.823933 
L 487.008444 180 
L 498.361861 202.176 
L 506.772318 224.352 
L 508.5 229.492247 
L 516.405521 246.528 
L 521.717046 268.704 
L 524.527443 290.88 
L 523.783728 313.056 
L 523.333414 315.961991 
" style="fill:none;stroke:#482374;stroke-width:1.5;"/>
    <path clip-path="url(#p613b30c446)" d="M 514.068415 353.693456 
L 512.805066 357.408 
L 508.5 366.827204 
L 503.554489 379.584 
L 493.692041 401.76 
L 480.6 423.871078 
L 480.556407 423.936 
L 459.205447 446.112 
L 452.7 452.342855 
L 424.8 468.101485 
L 422.394391 468.288 
L 396.9 470.618739 
L 369 469.537527 
L 360.905619 468.288 
L 341.1 465.762138 
L 313.2 462.736809 
L 285.3 457.623174 
L 257.4 451.467537 
L 229.5 447.877111 
L 223.180762 446.112 
L 201.6 438.333126 
L 173.7 430.518564 
L 151.459716 423.936 
L 145.8 422.376002 
L 117.9 412.421638 
L 90 404.325934 
" style="fill:none;stroke:#482374;stroke-width:1.5;"/>
   </g>
   <g id="LineCollection_10">
    <path clip-path="url(#p613b30c446)" d="M 426.060717 69.12 
L 446.412297 91.296 
L 452.7 100.332493 
L 463.033064 113.472 
L 466.672 119.193758 
" style="fill:none;stroke:#482878;stroke-width:1.5;"/>
    <path clip-path="url(#p613b30c446)" d="M 487.823629 151.865176 
L 492.395411 157.824 
L 503.438794 180 
L 508.5 193.61628 
L 514.469892 202.176 
L 526.379376 224.352 
L 532.090646 246.528 
L 535.172337 268.704 
L 536.4 282.16217 
L 538.038557 290.88 
L 536.488069 313.056 
L 536.4 313.487765 
L 534.246833 335.232 
L 529.057318 357.408 
L 521.908257 379.584 
L 512.932307 401.76 
L 508.5 409.840043 
L 501.541955 423.936 
L 485.081844 446.112 
L 480.6 451.917148 
L 463.19534 468.288 
L 452.7 476.473427 
L 424.8 489.723717 
L 420.382978 490.464 
L 396.9 494.298166 
L 386.605915 490.464 
L 369 485.497669 
L 341.1 480.470829 
L 313.2 474.978603 
L 285.3 469.534034 
L 279.772205 468.288 
L 257.4 462.588992 
L 229.5 456.691775 
L 201.6 448.747706 
L 190.463901 446.112 
L 173.7 441.083913 
L 145.8 430.698203 
L 123.734178 423.936 
L 117.9 421.840505 
L 90 413.618615 
" style="fill:none;stroke:#482878;stroke-width:1.5;"/>
   </g>
   <g id="LineCollection_11">
    <path clip-path="url(#p613b30c446)" d="M 389.89238 512.64 
L 369 504.669394 
L 341.1 495.43149 
L 327.294743 490.464 
L 313.2 486.501071 
L 285.3 479.37526 
L 257.4 472.932446 
L 248.361039 470.453891 
" style="fill:none;stroke:#472c7a;stroke-width:1.5;"/>
    <path clip-path="url(#p613b30c446)" d="M 210.831906 459.871526 
L 201.6 457.084901 
L 173.7 450.136212 
L 163.560435 446.112 
L 145.8 438.734569 
L 117.9 432.298277 
L 93.465377 423.936 
L 90 422.911296 
" style="fill:none;stroke:#472c7a;stroke-width:1.5;"/>
    <path clip-path="url(#p613b30c446)" d="M 448.290071 69.12 
L 452.7 74.279268 
L 469.346719 91.296 
L 480.6 107.983134 
L 487.570331 113.472 
L 506.785248 135.648 
L 508.5 139.184866 
L 533.587757 157.824 
L 536.4 162.62312 
L 564.3 172.923662 
L 569.535285 180 
L 578.621448 202.176 
L 577.777007 224.352 
L 572.284924 246.528 
L 568.007882 268.704 
L 567.670491 271.518608 
" style="fill:none;stroke:#472c7a;stroke-width:1.5;"/>
    <path clip-path="url(#p613b30c446)" d="M 564.804908 310.372391 
L 564.729917 313.056 
L 564.3 315.807732 
L 558.916683 335.232 
L 550.859626 357.408 
L 543.250579 379.584 
L 536.4 401.315884 
L 536.253715 401.76 
L 520.287851 423.936 
L 508.5 439.957416 
L 503.715282 446.112 
L 484.598716 468.288 
L 480.6 472.506162 
L 457.725452 490.464 
L 452.7 494.353453 
L 426.455723 512.64 
" style="fill:none;stroke:#472c7a;stroke-width:1.5;"/>
   </g>
   <g id="LineCollection_12">
    <path clip-path="url(#p613b30c446)" d="M 347.069143 512.64 
L 341.1 510.17765 
L 313.2 498.816636 
L 289.81784 490.464 
L 285.3 489.216487 
L 257.4 482.458218 
L 229.5 474.738948 
L 229.348122 474.686195 
" style="fill:none;stroke:#472f7d;stroke-width:1.5;"/>
    <path clip-path="url(#p613b30c446)" d="M 192.201147 462.859308 
L 173.7 457.814594 
L 145.8 446.856392 
L 139.556264 446.112 
L 117.9 443.053319 
L 90 430.647387 
" style="fill:none;stroke:#472f7d;stroke-width:1.5;"/>
    <path clip-path="url(#p613b30c446)" d="M 497.812847 69.12 
L 508.5 73.205221 
L 521.856273 69.12 
" style="fill:none;stroke:#472f7d;stroke-width:1.5;"/>
    <path clip-path="url(#p613b30c446)" d="M 582.52866 69.12 
L 592.2 78.790011 
L 595.882525 91.296 
L 599.900049 113.472 
L 601.945338 135.648 
L 605.139157 157.824 
L 602.733518 180 
L 600.540389 202.176 
L 598.201278 224.352 
L 595.199774 246.528 
L 592.772217 268.704 
L 592.2 273.091198 
L 585.248209 290.88 
L 579.75007 313.056 
L 579.144517 316.105462 
" style="fill:none;stroke:#472f7d;stroke-width:1.5;"/>
    <path clip-path="url(#p613b30c446)" d="M 570.280124 354.062364 
L 569.379983 357.408 
L 564.737084 379.584 
L 564.3 380.804835 
L 550.470777 401.76 
L 537.248484 423.936 
L 536.4 424.823151 
L 515.865863 446.112 
L 508.5 456.004346 
L 497.02866 468.288 
L 480.6 485.618254 
L 474.427528 490.464 
L 452.7 507.28004 
L 445.007554 512.64 
" style="fill:none;stroke:#472f7d;stroke-width:1.5;"/>
   </g>
   <g id="LineCollection_13">
    <path clip-path="url(#p613b30c446)" d="M 315.804651 512.64 
L 313.2 511.547964 
L 285.3 501.583878 
L 257.4 491.923379 
L 252.023178 490.464 
L 229.5 484.164105 
L 219.928613 480.687898 
" style="fill:none;stroke:#46337f;stroke-width:1.5;"/>
    <path clip-path="url(#p613b30c446)" d="M 183.021082 468.110218 
L 173.7 465.492976 
L 145.8 455.934981 
L 117.9 450.93006 
L 106.592989 446.112 
L 90 438.19056 
" style="fill:none;stroke:#46337f;stroke-width:1.5;"/>
    <path clip-path="url(#p613b30c446)" d="M 609.107044 69.12 
L 615.193527 91.296 
L 620.1 101.479716 
L 622.481306 113.472 
L 621.396178 135.648 
L 621.150045 157.824 
L 620.1 165.915183 
L 615.78773 180 
L 610.538228 202.176 
L 606.418361 224.352 
L 602.34544 246.528 
L 599.413409 268.704 
L 596.245591 290.88 
L 594.480999 303.460666 
" style="fill:none;stroke:#46337f;stroke-width:1.5;"/>
    <path clip-path="url(#p613b30c446)" d="M 586.550999 341.423307 
L 579.738046 357.408 
L 572.418683 379.584 
L 564.438056 401.76 
L 564.3 402.051324 
L 547.075661 423.936 
L 536.4 435.098172 
L 525.776624 446.112 
L 508.984053 468.288 
L 508.5 468.832134 
L 485.35854 490.464 
L 480.6 495.806357 
L 459.050059 512.64 
" style="fill:none;stroke:#46337f;stroke-width:1.5;"/>
   </g>
   <g id="LineCollection_14">
    <path clip-path="url(#p613b30c446)" d="M 282.668155 512.64 
L 257.4 501.069299 
L 229.5 493.24448 
L 221.849904 490.464 
L 201.6 482.782674 
L 192.413396 480.091213 
" style="fill:none;stroke:#453781;stroke-width:1.5;"/>
    <path clip-path="url(#p613b30c446)" d="M 155.318341 468.100482 
L 145.8 465.013571 
L 117.9 457.662909 
L 90.792355 446.112 
L 90 445.733732 
" style="fill:none;stroke:#453781;stroke-width:1.5;"/>
    <path clip-path="url(#p613b30c446)" d="M 624.302623 69.12 
L 627.169208 91.296 
L 630.440242 113.472 
L 628.647091 135.648 
L 626.683442 157.824 
L 623.805185 180 
L 620.332493 202.176 
L 620.1 203.540912 
L 614.635444 224.352 
L 609.491105 246.528 
L 606.054601 268.704 
L 602.463464 290.88 
L 598.59999 313.056 
L 598.310622 315.836732 
" style="fill:none;stroke:#453781;stroke-width:1.5;"/>
    <path clip-path="url(#p613b30c446)" d="M 591.604303 354.132114 
L 590.09611 357.408 
L 580.100283 379.584 
L 570.355082 401.76 
L 564.3 414.53741 
L 556.902838 423.936 
L 536.4 445.373193 
L 535.687384 446.112 
L 515.260621 468.288 
L 508.5 475.887757 
L 492.906544 490.464 
L 480.6 504.280412 
L 469.898298 512.64 
" style="fill:none;stroke:#453781;stroke-width:1.5;"/>
   </g>
   <g id="LineCollection_15">
    <path clip-path="url(#p613b30c446)" d="M 262.69525 512.64 
L 257.4 510.215218 
L 229.5 501.629847 
L 201.6 491.377429 
L 196.84609 490.464 
L 192.592435 489.376589 
" style="fill:none;stroke:#443a83;stroke-width:1.5;"/>
    <path clip-path="url(#p613b30c446)" d="M 155.571296 477.363579 
L 145.8 473.491799 
L 131.148426 468.288 
L 117.9 464.395757 
L 90 452.743404 
" style="fill:none;stroke:#443a83;stroke-width:1.5;"/>
    <path clip-path="url(#p613b30c446)" d="M 633.73245 69.12 
L 636.646331 91.296 
L 638.399178 113.472 
L 635.898005 135.648 
L 632.21684 157.824 
L 629.338084 180 
L 625.662938 202.176 
L 621.795831 224.352 
L 620.1 233.415065 
L 616.63677 246.528 
L 612.695793 268.704 
L 608.681336 290.88 
L 604.064843 313.056 
L 603.743402 315.858973 
" style="fill:none;stroke:#443a83;stroke-width:1.5;"/>
    <path clip-path="url(#p613b30c446)" d="M 596.76217 354.142225 
L 595.9402 357.408 
L 592.2 370.287872 
L 587.781882 379.584 
L 576.272109 401.76 
L 565.324368 423.936 
L 564.3 425.343284 
L 542.05692 446.112 
L 536.4 452.356227 
L 521.537189 468.288 
L 508.5 482.94338 
L 500.454548 490.464 
L 480.670509 512.64 
" style="fill:none;stroke:#443a83;stroke-width:1.5;"/>
   </g>
   <g id="LineCollection_16">
    <path clip-path="url(#p613b30c446)" d="M 237.834068 512.64 
L 229.5 510.015213 
L 201.6 498.847133 
L 184.833733 495.634933 
" style="fill:none;stroke:#433e85;stroke-width:1.5;"/>
    <path clip-path="url(#p613b30c446)" d="M 148.238597 482.691207 
L 145.8 481.63133 
L 117.9 471.114184 
L 110.759267 468.288 
L 90 459.72491 
" style="fill:none;stroke:#433e85;stroke-width:1.5;"/>
    <path clip-path="url(#p613b30c446)" d="M 643.162278 69.12 
L 646.123453 91.296 
L 646.358114 113.472 
L 643.148919 135.648 
L 637.750237 157.824 
L 634.870983 180 
L 630.993383 202.176 
L 626.858373 224.352 
L 622.988529 246.528 
L 620.1 264.661299 
L 619.336985 268.704 
L 614.899208 290.88 
L 609.529697 313.056 
L 609.17545 315.883286 
" style="fill:none;stroke:#433e85;stroke-width:1.5;"/>
    <path clip-path="url(#p613b30c446)" d="M 601.56561 354.029879 
L 600.633731 357.408 
L 594.031894 379.584 
L 592.2 384.03492 
L 582.189136 401.76 
L 569.466997 423.936 
L 564.3 431.034453 
L 548.152104 446.112 
L 536.4 459.084218 
L 527.813758 468.288 
L 508.5 489.999003 
L 508.002552 490.464 
L 485.890369 512.64 
" style="fill:none;stroke:#433e85;stroke-width:1.5;"/>
   </g>
   <g id="LineCollection_17">
    <path clip-path="url(#p613b30c446)" d="M 217.00121 512.64 
L 201.6 506.316837 
L 173.7 501.009863 
L 163.880408 497.073149 
" style="fill:none;stroke:#424186;stroke-width:1.5;"/>
    <path clip-path="url(#p613b30c446)" d="M 127.876874 482.088964 
L 117.9 477.81285 
L 93.834192 468.288 
L 90 466.706416 
" style="fill:none;stroke:#424186;stroke-width:1.5;"/>
    <path clip-path="url(#p613b30c446)" d="M 648 141.850561 
L 643.283634 157.824 
L 640.403881 180 
L 636.323829 202.176 
L 631.920915 224.352 
L 628.59364 246.528 
L 624.62452 268.704 
L 620.892905 290.88 
L 620.1 294.184233 
L 614.99455 313.056 
L 611.980555 335.232 
L 610.930927 338.730502 
" style="fill:none;stroke:#424186;stroke-width:1.5;"/>
    <path clip-path="url(#p613b30c446)" d="M 599.470075 376.007552 
L 598.343815 379.584 
L 592.2 394.511516 
L 588.106163 401.76 
L 573.609626 423.936 
L 564.3 436.725623 
L 554.247287 446.112 
L 536.4 465.81221 
L 534.090326 468.288 
L 512.786956 490.464 
L 508.5 495.320222 
L 491.110229 512.64 
" style="fill:none;stroke:#424186;stroke-width:1.5;"/>
   </g>
   <g id="LineCollection_18">
    <path clip-path="url(#p613b30c446)" d="M 195.504212 512.64 
L 173.7 508.517873 
L 149.659962 497.929574 
" style="fill:none;stroke:#404688;stroke-width:1.5;"/>
    <path clip-path="url(#p613b30c446)" d="M 113.657849 482.952505 
L 90 474.25813 
" style="fill:none;stroke:#404688;stroke-width:1.5;"/>
    <path clip-path="url(#p613b30c446)" d="M 648 164.114187 
L 645.93678 180 
L 641.654274 202.176 
L 636.983457 224.352 
L 634.198751 246.528 
L 629.736345 268.704 
L 625.74029 290.88 
L 620.419504 313.056 
L 620.1 315.414342 
L 617.20997 335.232 
L 610.020794 357.408 
L 608.801939 361.077942 
" style="fill:none;stroke:#404688;stroke-width:1.5;"/>
    <path clip-path="url(#p613b30c446)" d="M 595.059898 397.543767 
L 593.2767 401.76 
L 592.2 403.560193 
L 577.752255 423.936 
L 564.3 442.416792 
L 560.342471 446.112 
L 539.02042 468.288 
L 536.4 471.2219 
L 517.376376 490.464 
L 508.5 500.519072 
L 496.330089 512.64 
" style="fill:none;stroke:#404688;stroke-width:1.5;"/>
   </g>
   <g id="LineCollection_19">
    <path clip-path="url(#p613b30c446)" d="M 167.577133 512.64 
L 145.8 502.531622 
L 135.947578 498.50017 
" style="fill:none;stroke:#3e4989;stroke-width:1.5;"/>
    <path clip-path="url(#p613b30c446)" d="M 99.354258 485.110683 
L 90 481.976853 
" style="fill:none;stroke:#3e4989;stroke-width:1.5;"/>
    <path clip-path="url(#p613b30c446)" d="M 648 197.009669 
L 646.984719 202.176 
L 642.045999 224.352 
L 639.803862 246.528 
L 634.848169 268.704 
L 630.587676 290.88 
L 625.277669 313.056 
L 621.791906 335.232 
L 620.1 341.45243 
L 614.714326 357.408 
L 613.398447 361.1749 
" style="fill:none;stroke:#3e4989;stroke-width:1.5;"/>
    <path clip-path="url(#p613b30c446)" d="M 598.821369 397.300884 
L 596.77105 401.76 
L 592.2 409.402586 
L 581.894883 423.936 
L 565.480542 446.112 
L 564.3 447.539603 
L 543.166547 468.288 
L 536.4 475.864027 
L 521.965796 490.464 
L 508.5 505.717922 
L 501.549949 512.64 
" style="fill:none;stroke:#3e4989;stroke-width:1.5;"/>
   </g>
   <g id="LineCollection_20">
    <path clip-path="url(#p613b30c446)" d="M 154.000009 512.64 
L 145.8 508.833769 
L 135.843407 504.597524 
" style="fill:none;stroke:#3d4d8a;stroke-width:1.5;"/>
    <path clip-path="url(#p613b30c446)" d="M 98.999283 492.165942 
L 92.293689 490.464 
L 90 489.695577 
" style="fill:none;stroke:#3d4d8a;stroke-width:1.5;"/>
    <path clip-path="url(#p613b30c446)" d="M 648 220.390076 
L 647.108541 224.352 
L 645.408974 246.528 
L 639.959994 268.704 
L 635.435061 290.88 
L 630.135834 313.056 
L 625.573961 335.232 
L 620.1 355.357462 
L 619.407858 357.408 
L 611.279579 379.584 
L 608.939525 384.295477 
" style="fill:none;stroke:#3d4d8a;stroke-width:1.5;"/>
    <path clip-path="url(#p613b30c446)" d="M 590.00949 418.334278 
L 586.037512 423.936 
L 568.846669 446.112 
L 564.3 451.610186 
L 547.312673 468.288 
L 536.4 480.506154 
L 526.555216 490.464 
L 508.5 510.916772 
L 506.769808 512.64 
" style="fill:none;stroke:#3d4d8a;stroke-width:1.5;"/>
   </g>
   <g id="LineCollection_21">
    <path clip-path="url(#p613b30c446)" d="M 140.479758 512.64 
L 135.779427 510.593907 
" style="fill:none;stroke:#3c508b;stroke-width:1.5;"/>
    <path clip-path="url(#p613b30c446)" d="M 98.982865 498.078824 
L 90 495.831809 
" style="fill:none;stroke:#3c508b;stroke-width:1.5;"/>
    <path clip-path="url(#p613b30c446)" d="M 648 257.265691 
L 645.071818 268.704 
L 640.282447 290.88 
L 634.994 313.056 
L 629.356015 335.232 
L 623.031262 357.408 
L 620.1 367.368247 
L 615.591501 379.584 
L 612.938969 384.555584 
" style="fill:none;stroke:#3c508b;stroke-width:1.5;"/>
    <path clip-path="url(#p613b30c446)" d="M 593.750441 418.495105 
L 592.2 421.087372 
L 590.180141 423.936 
L 572.212797 446.112 
L 564.3 455.680769 
L 551.4588 468.288 
L 536.4 485.14828 
L 531.144635 490.464 
L 510.870928 512.64 
" style="fill:none;stroke:#3c508b;stroke-width:1.5;"/>
   </g>
   <g id="LineCollection_22">
    <path clip-path="url(#p613b30c446)" d="M 98.964862 503.999107 
L 90 501.793081 
" style="fill:none;stroke:#3a538b;stroke-width:1.5;"/>
    <path clip-path="url(#p613b30c446)" d="M 648 277.997832 
L 645.129832 290.88 
L 639.852165 313.056 
L 633.13807 335.232 
L 626.46956 357.408 
L 620.1 379.051373 
L 619.903422 379.584 
L 607.254101 401.76 
L 603.861564 407.303485 
" style="fill:none;stroke:#3a538b;stroke-width:1.5;"/>
    <path clip-path="url(#p613b30c446)" d="M 581.400899 439.074582 
L 575.578925 446.112 
L 564.3 459.751352 
L 555.604926 468.288 
L 536.4 489.790407 
L 535.734055 490.464 
L 514.417372 512.64 
" style="fill:none;stroke:#3a538b;stroke-width:1.5;"/>
   </g>
   <g id="LineCollection_23">
    <path clip-path="url(#p613b30c446)" d="M 110.080435 512.64 
L 90 507.754353 
" style="fill:none;stroke:#39568c;stroke-width:1.5;"/>
    <path clip-path="url(#p613b30c446)" d="M 648 299.216542 
L 644.71033 313.056 
L 636.920125 335.232 
L 629.907859 357.408 
L 622.950794 379.584 
L 620.1 385.413614 
L 610.748451 401.76 
L 607.077026 407.504853 
" style="fill:none;stroke:#39568c;stroke-width:1.5;"/>
    <path clip-path="url(#p613b30c446)" d="M 584.583468 439.296463 
L 578.945053 446.112 
L 564.3 463.821935 
L 559.751053 468.288 
L 539.136009 490.464 
L 536.4 493.595824 
L 517.963816 512.64 
" style="fill:none;stroke:#39568c;stroke-width:1.5;"/>
   </g>
   <g id="LineCollection_24">
    <path clip-path="url(#p613b30c446)" d="M 648 316.234624 
L 640.702179 335.232 
L 633.346157 357.408 
L 625.937763 379.584 
L 620.1 391.521692 
L 614.242801 401.76 
L 603.326216 418.146958 
" style="fill:none;stroke:#375a8c;stroke-width:1.5;"/>
    <path clip-path="url(#p613b30c446)" d="M 579.77072 449.184121 
L 564.3 467.892519 
L 563.897179 468.288 
L 542.336409 490.464 
L 536.4 497.259224 
L 521.510261 512.64 
" style="fill:none;stroke:#375a8c;stroke-width:1.5;"/>
   </g>
   <g id="LineCollection_25">
    <path clip-path="url(#p613b30c446)" d="M 648 326.079908 
L 644.484234 335.232 
L 636.784455 357.408 
L 628.924732 379.584 
L 620.1 397.629771 
L 617.737151 401.76 
L 603.481718 422.322612 
" style="fill:none;stroke:#365d8d;stroke-width:1.5;"/>
    <path clip-path="url(#p613b30c446)" d="M 579.655663 453.156238 
L 566.720538 468.288 
L 564.3 471.247301 
L 545.53681 490.464 
L 536.4 500.922623 
L 525.056705 512.64 
" style="fill:none;stroke:#365d8d;stroke-width:1.5;"/>
   </g>
   <g id="LineCollection_26">
    <path clip-path="url(#p613b30c446)" d="M 648 335.901443 
L 640.222754 357.408 
L 631.911701 379.584 
L 621.153605 401.76 
L 620.1 403.076687 
L 605.25671 423.936 
L 603.50094 426.404977 
" style="fill:none;stroke:#34618d;stroke-width:1.5;"/>
    <path clip-path="url(#p613b30c446)" d="M 579.397525 457.002388 
L 569.401554 468.288 
L 564.3 474.525056 
L 548.737211 490.464 
L 536.4 504.586023 
L 528.603149 512.64 
" style="fill:none;stroke:#34618d;stroke-width:1.5;"/>
   </g>
   <g id="LineCollection_27">
    <path clip-path="url(#p613b30c446)" d="M 648 345.409431 
L 643.661052 357.408 
L 634.898669 379.584 
L 624.407392 401.76 
L 620.1 407.142936 
L 608.150214 423.936 
L 603.670671 430.227249 
" style="fill:none;stroke:#32648e;stroke-width:1.5;"/>
    <path clip-path="url(#p613b30c446)" d="M 579.202699 460.503868 
L 572.082569 468.288 
L 564.3 477.802811 
L 551.937611 490.464 
L 536.4 508.249422 
L 532.149593 512.64 
" style="fill:none;stroke:#32648e;stroke-width:1.5;"/>
   </g>
   <g id="LineCollection_28">
    <path clip-path="url(#p613b30c446)" d="M 648 354.917418 
L 647.099351 357.408 
L 637.885638 379.584 
L 627.66118 401.76 
L 620.1 411.209185 
L 611.043719 423.936 
L 606.395365 430.33513 
" style="fill:none;stroke:#31678e;stroke-width:1.5;"/>
    <path clip-path="url(#p613b30c446)" d="M 581.835812 460.556237 
L 574.763584 468.288 
L 564.3 481.080566 
L 555.138012 490.464 
L 536.4 511.912821 
L 535.696037 512.64 
" style="fill:none;stroke:#31678e;stroke-width:1.5;"/>
   </g>
   <g id="LineCollection_29">
    <path clip-path="url(#p613b30c446)" d="M 648 362.646779 
L 640.872607 379.584 
L 630.914967 401.76 
L 620.1 415.275434 
L 613.937223 423.936 
L 609.117014 430.442933 
" style="fill:none;stroke:#306a8e;stroke-width:1.5;"/>
    <path clip-path="url(#p613b30c446)" d="M 584.468925 460.608606 
L 577.444599 468.288 
L 564.3 484.35832 
L 558.338413 490.464 
L 538.629643 512.64 
" style="fill:none;stroke:#306a8e;stroke-width:1.5;"/>
   </g>
   <g id="LineCollection_30">
    <path clip-path="url(#p613b30c446)" d="M 648 369.744879 
L 643.859575 379.584 
L 634.168755 401.76 
L 620.1 419.341683 
L 616.830727 423.936 
L 611.835663 430.550604 
" style="fill:none;stroke:#2e6d8e;stroke-width:1.5;"/>
    <path clip-path="url(#p613b30c446)" d="M 587.102039 460.660975 
L 580.125614 468.288 
L 564.3 487.636075 
L 561.538813 490.464 
L 541.411476 512.64 
" style="fill:none;stroke:#2e6d8e;stroke-width:1.5;"/>
   </g>
   <g id="LineCollection_31">
    <path clip-path="url(#p613b30c446)" d="M 648 376.842979 
L 646.846544 379.584 
L 637.422543 401.76 
L 620.1 423.407932 
L 619.724232 423.936 
L 614.551357 430.658093 
" style="fill:none;stroke:#2d708e;stroke-width:1.5;"/>
    <path clip-path="url(#p613b30c446)" d="M 589.735152 460.713343 
L 582.806629 468.288 
L 564.664596 490.464 
L 564.3 490.877215 
L 544.193308 512.64 
" style="fill:none;stroke:#2d708e;stroke-width:1.5;"/>
   </g>
   <g id="LineCollection_32">
    <path clip-path="url(#p613b30c446)" d="M 648 384.335872 
L 640.67633 401.76 
L 622.775061 423.936 
L 620.1 426.840233 
L 605.233751 446.112 
L 605.069218 446.299304 
" style="fill:none;stroke:#2c728e;stroke-width:1.5;"/>
    <path clip-path="url(#p613b30c446)" d="M 579.432714 475.679361 
L 567.321282 490.464 
L 564.3 493.888174 
L 546.97514 512.64 
" style="fill:none;stroke:#2c728e;stroke-width:1.5;"/>
   </g>
   <g id="LineCollection_33">
    <path clip-path="url(#p613b30c446)" d="M 648 392.077129 
L 643.930118 401.76 
L 625.84937 423.936 
L 620.1 430.177918 
L 607.808442 446.112 
L 605.069218 449.230343 
" style="fill:none;stroke:#2b758e;stroke-width:1.5;"/>
    <path clip-path="url(#p613b30c446)" d="M 579.589625 478.746572 
L 569.977967 490.464 
L 564.3 496.899133 
L 549.756973 512.64 
" style="fill:none;stroke:#2b758e;stroke-width:1.5;"/>
   </g>
   <g id="LineCollection_34">
    <path clip-path="url(#p613b30c446)" d="M 648 399.818387 
L 647.183905 401.76 
L 628.923679 423.936 
L 620.1 433.515604 
L 610.383134 446.112 
L 605.069218 452.161382 
" style="fill:none;stroke:#29798e;stroke-width:1.5;"/>
    <path clip-path="url(#p613b30c446)" d="M 579.742519 481.81048 
L 572.634653 490.464 
L 564.3 499.910091 
L 552.538805 512.64 
" style="fill:none;stroke:#29798e;stroke-width:1.5;"/>
   </g>
   <g id="LineCollection_35">
    <path clip-path="url(#p613b30c446)" d="M 648 404.550263 
L 631.997989 423.936 
L 620.1 436.853289 
L 612.957826 446.112 
L 606.270272 453.677648 
" style="fill:none;stroke:#287c8e;stroke-width:1.5;"/>
    <path clip-path="url(#p613b30c446)" d="M 581.073462 483.429247 
L 575.291338 490.464 
L 564.3 502.92105 
L 555.320637 512.64 
" style="fill:none;stroke:#287c8e;stroke-width:1.5;"/>
   </g>
   <g id="LineCollection_36">
    <path clip-path="url(#p613b30c446)" d="M 648 408.274654 
L 635.072298 423.936 
L 620.1 440.190974 
L 615.532518 446.112 
L 608.688977 453.758024 
" style="fill:none;stroke:#277f8e;stroke-width:1.5;"/>
    <path clip-path="url(#p613b30c446)" d="M 583.602895 483.584068 
L 577.948024 490.464 
L 564.3 505.932008 
L 558.102469 512.64 
" style="fill:none;stroke:#277f8e;stroke-width:1.5;"/>
   </g>
   <g id="LineCollection_37">
    <path clip-path="url(#p613b30c446)" d="M 648 411.999046 
L 638.146607 423.936 
L 620.1 443.528659 
L 618.10721 446.112 
L 611.106198 453.838068 
" style="fill:none;stroke:#26828e;stroke-width:1.5;"/>
    <path clip-path="url(#p613b30c446)" d="M 586.132328 483.738888 
L 580.604709 490.464 
L 564.3 508.942967 
L 560.884302 512.64 
" style="fill:none;stroke:#26828e;stroke-width:1.5;"/>
   </g>
   <g id="LineCollection_38">
    <path clip-path="url(#p613b30c446)" d="M 648 415.723437 
L 641.220917 423.936 
L 620.684491 446.112 
L 620.1 446.687264 
L 613.502326 453.899785 
" style="fill:none;stroke:#25848e;stroke-width:1.5;"/>
    <path clip-path="url(#p613b30c446)" d="M 588.661761 483.893708 
L 583.261395 490.464 
L 564.3 511.953926 
L 563.666134 512.64 
" style="fill:none;stroke:#25848e;stroke-width:1.5;"/>
   </g>
   <g id="LineCollection_39">
    <path clip-path="url(#p613b30c446)" d="M 648 419.447828 
L 644.295226 423.936 
L 623.270638 446.112 
L 620.1 449.232587 
L 615.830667 453.899785 
" style="fill:none;stroke:#24878e;stroke-width:1.5;"/>
    <path clip-path="url(#p613b30c446)" d="M 591.191194 484.048529 
L 585.91808 490.464 
L 566.064364 512.64 
" style="fill:none;stroke:#24878e;stroke-width:1.5;"/>
   </g>
   <g id="LineCollection_40">
    <path clip-path="url(#p613b30c446)" d="M 648 423.17222 
L 647.369535 423.936 
L 625.856785 446.112 
L 620.1 451.77791 
L 618.159009 453.899785 
" style="fill:none;stroke:#238a8d;stroke-width:1.5;"/>
    <path clip-path="url(#p613b30c446)" d="M 593.599735 484.110275 
L 592.2 486.053401 
L 588.574766 490.464 
L 568.349394 512.64 
" style="fill:none;stroke:#238a8d;stroke-width:1.5;"/>
   </g>
   <g id="LineCollection_41">
    <path clip-path="url(#p613b30c446)" d="M 648 426.045358 
L 628.442933 446.112 
L 622.647145 451.816296 
" style="fill:none;stroke:#228d8d;stroke-width:1.5;"/>
    <path clip-path="url(#p613b30c446)" d="M 594.174597 486.544472 
L 592.2 489.285626 
L 591.231451 490.464 
L 570.634423 512.64 
" style="fill:none;stroke:#228d8d;stroke-width:1.5;"/>
   </g>
   <g id="LineCollection_42">
    <path clip-path="url(#p613b30c446)" d="M 648 428.698889 
L 631.02908 446.112 
L 625.105719 451.941856 
" style="fill:none;stroke:#21918c;stroke-width:1.5;"/>
    <path clip-path="url(#p613b30c446)" d="M 596.372602 486.449873 
L 593.437148 490.464 
L 592.2 492.017067 
L 572.919452 512.64 
" style="fill:none;stroke:#21918c;stroke-width:1.5;"/>
   </g>
   <g id="LineCollection_43">
    <path clip-path="url(#p613b30c446)" d="M 648 431.352421 
L 633.615227 446.112 
L 627.564293 452.067415 
" style="fill:none;stroke:#20938c;stroke-width:1.5;"/>
    <path clip-path="url(#p613b30c446)" d="M 598.49991 486.30114 
L 595.384096 490.464 
L 592.2 494.461189 
L 575.204481 512.64 
" style="fill:none;stroke:#20938c;stroke-width:1.5;"/>
   </g>
   <g id="LineCollection_44">
    <path clip-path="url(#p613b30c446)" d="M 648 434.005952 
L 636.201374 446.112 
L 630.022866 452.192975 
" style="fill:none;stroke:#1f968b;stroke-width:1.5;"/>
    <path clip-path="url(#p613b30c446)" d="M 600.632133 486.15267 
L 597.331043 490.464 
L 592.2 496.905311 
L 577.489511 512.64 
" style="fill:none;stroke:#1f968b;stroke-width:1.5;"/>
   </g>
   <g id="LineCollection_45">
    <path clip-path="url(#p613b30c446)" d="M 648 436.659483 
L 638.787522 446.112 
L 632.48144 452.318534 
" style="fill:none;stroke:#1f998a;stroke-width:1.5;"/>
    <path clip-path="url(#p613b30c446)" d="M 602.769179 486.004562 
L 599.277991 490.464 
L 592.2 499.349432 
L 579.77454 512.64 
" style="fill:none;stroke:#1f998a;stroke-width:1.5;"/>
   </g>
   <g id="LineCollection_46">
    <path clip-path="url(#p613b30c446)" d="M 648 439.313015 
L 641.373669 446.112 
L 634.940014 452.444094 
" style="fill:none;stroke:#1e9c89;stroke-width:1.5;"/>
    <path clip-path="url(#p613b30c446)" d="M 604.910957 485.856908 
L 601.224939 490.464 
L 592.2 501.793554 
L 582.059569 512.64 
" style="fill:none;stroke:#1e9c89;stroke-width:1.5;"/>
   </g>
   <g id="LineCollection_47">
    <path clip-path="url(#p613b30c446)" d="M 648 441.966546 
L 643.959816 446.112 
L 636.129394 453.740983 
" style="fill:none;stroke:#1f9f88;stroke-width:1.5;"/>
    <path clip-path="url(#p613b30c446)" d="M 605.954491 487.02206 
L 603.171886 490.464 
L 592.2 504.237676 
L 584.344598 512.64 
" style="fill:none;stroke:#1f9f88;stroke-width:1.5;"/>
   </g>
   <g id="LineCollection_48">
    <path clip-path="url(#p613b30c446)" d="M 648 444.620077 
L 646.545963 446.112 
L 636.080139 456.111949 
" style="fill:none;stroke:#1fa187;stroke-width:1.5;"/>
    <path clip-path="url(#p613b30c446)" d="M 605.954491 489.430335 
L 605.118834 490.464 
L 592.2 506.681797 
L 586.629628 512.64 
" style="fill:none;stroke:#1fa187;stroke-width:1.5;"/>
   </g>
   <g id="LineCollection_49">
    <path clip-path="url(#p613b30c446)" d="M 648 446.996907 
L 625.475393 468.288 
L 621.273697 473.019613 
" style="fill:none;stroke:#20a486;stroke-width:1.5;"/>
    <path clip-path="url(#p613b30c446)" d="M 593.046833 508.062838 
L 592.2 509.125919 
L 588.914657 512.64 
" style="fill:none;stroke:#20a486;stroke-width:1.5;"/>
   </g>
   <g id="LineCollection_50">
    <path clip-path="url(#p613b30c446)" d="M 648 449.018353 
L 627.613953 468.288 
L 623.32998 473.112267 
" style="fill:none;stroke:#22a785;stroke-width:1.5;"/>
    <path clip-path="url(#p613b30c446)" d="M 594.993781 508.062838 
L 592.2 511.570041 
L 591.199686 512.64 
" style="fill:none;stroke:#22a785;stroke-width:1.5;"/>
   </g>
   <g id="LineCollection_51">
    <path clip-path="url(#p613b30c446)" d="M 648 451.039799 
L 635.539401 462.818018 
" style="fill:none;stroke:#25ab82;stroke-width:1.5;"/>
    <path clip-path="url(#p613b30c446)" d="M 605.99749 496.689677 
L 593.284257 512.64 
" style="fill:none;stroke:#25ab82;stroke-width:1.5;"/>
   </g>
   <g id="LineCollection_52">
    <path clip-path="url(#p613b30c446)" d="M 648 453.061245 
L 635.33736 465.030441 
" style="fill:none;stroke:#27ad81;stroke-width:1.5;"/>
    <path clip-path="url(#p613b30c446)" d="M 606.009818 499.107871 
L 595.212747 512.64 
" style="fill:none;stroke:#27ad81;stroke-width:1.5;"/>
   </g>
   <g id="LineCollection_53">
    <path clip-path="url(#p613b30c446)" d="M 648 455.082691 
L 635.135319 467.242863 
" style="fill:none;stroke:#2ab07f;stroke-width:1.5;"/>
    <path clip-path="url(#p613b30c446)" d="M 606.019688 501.5241 
L 597.141236 512.64 
" style="fill:none;stroke:#2ab07f;stroke-width:1.5;"/>
   </g>
   <g id="LineCollection_54">
    <path clip-path="url(#p613b30c446)" d="M 648 457.104137 
L 636.168192 468.288 
L 635.039876 469.558619 
" style="fill:none;stroke:#2eb37c;stroke-width:1.5;"/>
    <path clip-path="url(#p613b30c446)" d="M 606.027106 503.938366 
L 599.069725 512.64 
" style="fill:none;stroke:#2eb37c;stroke-width:1.5;"/>
   </g>
   <g id="LineCollection_55">
    <path clip-path="url(#p613b30c446)" d="M 648 459.125583 
L 638.306752 468.288 
L 635.039876 471.966894 
" style="fill:none;stroke:#32b67a;stroke-width:1.5;"/>
    <path clip-path="url(#p613b30c446)" d="M 606.032076 506.350669 
L 600.998214 512.64 
" style="fill:none;stroke:#32b67a;stroke-width:1.5;"/>
   </g>
   <g id="LineCollection_56">
    <path clip-path="url(#p613b30c446)" d="M 648 461.147029 
L 640.445312 468.288 
L 635.658912 473.662027 
" style="fill:none;stroke:#37b878;stroke-width:1.5;"/>
    <path clip-path="url(#p613b30c446)" d="M 606.62498 508.022692 
L 602.926704 512.64 
" style="fill:none;stroke:#37b878;stroke-width:1.5;"/>
   </g>
   <g id="LineCollection_57">
    <path clip-path="url(#p613b30c446)" d="M 648 463.168475 
L 642.583872 468.288 
L 637.685818 473.734325 
" style="fill:none;stroke:#3bbb75;stroke-width:1.5;"/>
    <path clip-path="url(#p613b30c446)" d="M 608.56038 508.014063 
L 604.855193 512.64 
" style="fill:none;stroke:#3bbb75;stroke-width:1.5;"/>
   </g>
   <g id="LineCollection_58">
    <path clip-path="url(#p613b30c446)" d="M 648 465.189921 
L 644.722431 468.288 
L 639.711685 473.806385 
" style="fill:none;stroke:#40bd72;stroke-width:1.5;"/>
    <path clip-path="url(#p613b30c446)" d="M 610.495781 508.005434 
L 606.783682 512.64 
" style="fill:none;stroke:#40bd72;stroke-width:1.5;"/>
   </g>
   <g id="LineCollection_59">
    <path clip-path="url(#p613b30c446)" d="M 648 467.211367 
L 646.860991 468.288 
L 641.736526 473.878201 
" style="fill:none;stroke:#48c16e;stroke-width:1.5;"/>
    <path clip-path="url(#p613b30c446)" d="M 612.431181 507.996806 
L 608.712171 512.64 
" style="fill:none;stroke:#48c16e;stroke-width:1.5;"/>
   </g>
   <g id="LineCollection_60">
    <path clip-path="url(#p613b30c446)" d="M 648 469.2753 
L 634.692893 483.718997 
" style="fill:none;stroke:#4ec36b;stroke-width:1.5;"/>
   </g>
   <g id="LineCollection_61">
    <path clip-path="url(#p613b30c446)" d="M 648 471.387647 
L 630.424787 490.464 
L 620.1 503.237713 
L 612.56915 512.64 
" style="fill:none;stroke:#54c568;stroke-width:1.5;"/>
   </g>
   <g id="LineCollection_62">
    <path clip-path="url(#p613b30c446)" d="M 648 473.499995 
L 632.370911 490.464 
L 620.1 505.645437 
L 614.497639 512.64 
" style="fill:none;stroke:#5ac864;stroke-width:1.5;"/>
   </g>
   <g id="LineCollection_63">
    <path clip-path="url(#p613b30c446)" d="M 648 475.612342 
L 634.317036 490.464 
L 620.1 508.053161 
L 616.426128 512.64 
" style="fill:none;stroke:#60ca60;stroke-width:1.5;"/>
   </g>
   <g id="LineCollection_64">
    <path clip-path="url(#p613b30c446)" d="M 648 477.72469 
L 636.26316 490.464 
L 620.1 510.460885 
L 618.354617 512.64 
" style="fill:none;stroke:#67cc5c;stroke-width:1.5;"/>
   </g>
   <g id="LineCollection_65">
    <path clip-path="url(#p613b30c446)" d="M 648 479.837037 
L 638.209285 490.464 
L 620.254022 512.64 
" style="fill:none;stroke:#6ece58;stroke-width:1.5;"/>
   </g>
   <g id="LineCollection_66">
    <path clip-path="url(#p613b30c446)" d="M 648 481.949385 
L 640.155409 490.464 
L 621.876194 512.64 
" style="fill:none;stroke:#75d054;stroke-width:1.5;"/>
   </g>
   <g id="LineCollection_67">
    <path clip-path="url(#p613b30c446)" d="M 648 484.061732 
L 642.101534 490.464 
L 623.498366 512.64 
" style="fill:none;stroke:#7fd34e;stroke-width:1.5;"/>
   </g>
   <g id="LineCollection_68">
    <path clip-path="url(#p613b30c446)" d="M 648 486.17408 
L 644.047658 490.464 
L 625.120538 512.64 
" style="fill:none;stroke:#86d549;stroke-width:1.5;"/>
   </g>
   <g id="LineCollection_69">
    <path clip-path="url(#p613b30c446)" d="M 648 488.286427 
L 645.993783 490.464 
L 626.74271 512.64 
" style="fill:none;stroke:#8ed645;stroke-width:1.5;"/>
   </g>
   <g id="LineCollection_70">
    <path clip-path="url(#p613b30c446)" d="M 648 490.398775 
L 647.939907 490.464 
L 628.364882 512.64 
" style="fill:none;stroke:#95d840;stroke-width:1.5;"/>
   </g>
   <g id="LineCollection_71">
    <path clip-path="url(#p613b30c446)" d="M 648 492.244058 
L 629.987054 512.64 
" style="fill:none;stroke:#9dd93b;stroke-width:1.5;"/>
   </g>
   <g id="LineCollection_72">
    <path clip-path="url(#p613b30c446)" d="M 648 494.080833 
L 631.609225 512.64 
" style="fill:none;stroke:#a5db36;stroke-width:1.5;"/>
   </g>
   <g id="LineCollection_73">
    <path clip-path="url(#p613b30c446)" d="M 648 495.917608 
L 633.231397 512.64 
" style="fill:none;stroke:#addc30;stroke-width:1.5;"/>
   </g>
   <g id="LineCollection_74">
    <path clip-path="url(#p613b30c446)" d="M 648 497.754382 
L 634.853569 512.64 
" style="fill:none;stroke:#b5de2b;stroke-width:1.5;"/>
   </g>
   <g id="LineCollection_75">
    <path clip-path="url(#p613b30c446)" d="M 648 499.591157 
L 636.475741 512.64 
" style="fill:none;stroke:#c0df25;stroke-width:1.5;"/>
   </g>
   <g id="LineCollection_76">
    <path clip-path="url(#p613b30c446)" d="M 648 501.427932 
L 638.097913 512.64 
" style="fill:none;stroke:#c8e020;stroke-width:1.5;"/>
   </g>
   <g id="LineCollection_77">
    <path clip-path="url(#p613b30c446)" d="M 648 503.264706 
L 639.720085 512.64 
" style="fill:none;stroke:#d0e11c;stroke-width:1.5;"/>
   </g>
   <g id="LineCollection_78">
    <path clip-path="url(#p613b30c446)" d="M 648 505.101481 
L 641.342257 512.64 
" style="fill:none;stroke:#d8e219;stroke-width:1.5;"/>
   </g>
   <g id="LineCollection_79">
    <path clip-path="url(#p613b30c446)" d="M 648 506.938255 
L 642.964429 512.64 
" style="fill:none;stroke:#dfe318;stroke-width:1.5;"/>
   </g>
   <g id="LineCollection_80">
    <path clip-path="url(#p613b30c446)" d="M 648 508.77503 
L 644.5866 512.64 
" style="fill:none;stroke:#e7e419;stroke-width:1.5;"/>
   </g>
   <g id="LineCollection_81">
    <path clip-path="url(#p613b30c446)" d="M 648 510.611805 
L 646.208772 512.64 
" style="fill:none;stroke:#efe51c;stroke-width:1.5;"/>
   </g>
   <g id="LineCollection_82">
    <path clip-path="url(#p613b30c446)" d="M 648 512.448579 
L 647.830944 512.64 
" style="fill:none;stroke:#f6e620;stroke-width:1.5;"/>
   </g>
   <g id="LineCollection_83"/>
   <g id="matplotlib.axis_1">
    <g id="xtick_1"/>
    <g id="xtick_2"/>
    <g id="xtick_3"/>
    <g id="xtick_4"/>
    <g id="xtick_5"/>
    <g id="xtick_6"/>
    <g id="xtick_7"/>
    <g id="text_1">
     <!-- 0.8908170688826016 -->
     <defs>
      <path d="M 31.78125 66.40625 
Q 24.171875 66.40625 20.328125 58.90625 
Q 16.5 51.421875 16.5 36.375 
Q 16.5 21.390625 20.328125 13.890625 
Q 24.171875 6.390625 31.78125 6.390625 
Q 39.453125 6.390625 43.28125 13.890625 
Q 47.125 21.390625 47.125 36.375 
Q 47.125 51.421875 43.28125 58.90625 
Q 39.453125 66.40625 31.78125 66.40625 
z
M 31.78125 74.21875 
Q 44.046875 74.21875 50.515625 64.515625 
Q 56.984375 54.828125 56.984375 36.375 
Q 56.984375 17.96875 50.515625 8.265625 
Q 44.046875 -1.421875 31.78125 -1.421875 
Q 19.53125 -1.421875 13.0625 8.265625 
Q 6.59375 17.96875 6.59375 36.375 
Q 6.59375 54.828125 13.0625 64.515625 
Q 19.53125 74.21875 31.78125 74.21875 
z
" id="DejaVuSans-48"/>
      <path d="M 10.6875 12.40625 
L 21 12.40625 
L 21 0 
L 10.6875 0 
z
" id="DejaVuSans-46"/>
      <path d="M 31.78125 34.625 
Q 24.75 34.625 20.71875 30.859375 
Q 16.703125 27.09375 16.703125 20.515625 
Q 16.703125 13.921875 20.71875 10.15625 
Q 24.75 6.390625 31.78125 6.390625 
Q 38.8125 6.390625 42.859375 10.171875 
Q 46.921875 13.96875 46.921875 20.515625 
Q 46.921875 27.09375 42.890625 30.859375 
Q 38.875 34.625 31.78125 34.625 
z
M 21.921875 38.8125 
Q 15.578125 40.375 12.03125 44.71875 
Q 8.5 49.078125 8.5 55.328125 
Q 8.5 64.0625 14.71875 69.140625 
Q 20.953125 74.21875 31.78125 74.21875 
Q 42.671875 74.21875 48.875 69.140625 
Q 55.078125 64.0625 55.078125 55.328125 
Q 55.078125 49.078125 51.53125 44.71875 
Q 48 40.375 41.703125 38.8125 
Q 48.828125 37.15625 52.796875 32.3125 
Q 56.78125 27.484375 56.78125 20.515625 
Q 56.78125 9.90625 50.3125 4.234375 
Q 43.84375 -1.421875 31.78125 -1.421875 
Q 19.734375 -1.421875 13.25 4.234375 
Q 6.78125 9.90625 6.78125 20.515625 
Q 6.78125 27.484375 10.78125 32.3125 
Q 14.796875 37.15625 21.921875 38.8125 
z
M 18.3125 54.390625 
Q 18.3125 48.734375 21.84375 45.5625 
Q 25.390625 42.390625 31.78125 42.390625 
Q 38.140625 42.390625 41.71875 45.5625 
Q 45.3125 48.734375 45.3125 54.390625 
Q 45.3125 60.0625 41.71875 63.234375 
Q 38.140625 66.40625 31.78125 66.40625 
Q 25.390625 66.40625 21.84375 63.234375 
Q 18.3125 60.0625 18.3125 54.390625 
z
" id="DejaVuSans-56"/>
      <path d="M 10.984375 1.515625 
L 10.984375 10.5 
Q 14.703125 8.734375 18.5 7.8125 
Q 22.3125 6.890625 25.984375 6.890625 
Q 35.75 6.890625 40.890625 13.453125 
Q 46.046875 20.015625 46.78125 33.40625 
Q 43.953125 29.203125 39.59375 26.953125 
Q 35.25 24.703125 29.984375 24.703125 
Q 19.046875 24.703125 12.671875 31.3125 
Q 6.296875 37.9375 6.296875 49.421875 
Q 6.296875 60.640625 12.9375 67.421875 
Q 19.578125 74.21875 30.609375 74.21875 
Q 43.265625 74.21875 49.921875 64.515625 
Q 56.59375 54.828125 56.59375 36.375 
Q 56.59375 19.140625 48.40625 8.859375 
Q 40.234375 -1.421875 26.421875 -1.421875 
Q 22.703125 -1.421875 18.890625 -0.6875 
Q 15.09375 0.046875 10.984375 1.515625 
z
M 30.609375 32.421875 
Q 37.25 32.421875 41.125 36.953125 
Q 45.015625 41.5 45.015625 49.421875 
Q 45.015625 57.28125 41.125 61.84375 
Q 37.25 66.40625 30.609375 66.40625 
Q 23.96875 66.40625 20.09375 61.84375 
Q 16.21875 57.28125 16.21875 49.421875 
Q 16.21875 41.5 20.09375 36.953125 
Q 23.96875 32.421875 30.609375 32.421875 
z
" id="DejaVuSans-57"/>
      <path d="M 12.40625 8.296875 
L 28.515625 8.296875 
L 28.515625 63.921875 
L 10.984375 60.40625 
L 10.984375 69.390625 
L 28.421875 72.90625 
L 38.28125 72.90625 
L 38.28125 8.296875 
L 54.390625 8.296875 
L 54.390625 0 
L 12.40625 0 
z
" id="DejaVuSans-49"/>
      <path d="M 8.203125 72.90625 
L 55.078125 72.90625 
L 55.078125 68.703125 
L 28.609375 0 
L 18.3125 0 
L 43.21875 64.59375 
L 8.203125 64.59375 
z
" id="DejaVuSans-55"/>
      <path d="M 33.015625 40.375 
Q 26.375 40.375 22.484375 35.828125 
Q 18.609375 31.296875 18.609375 23.390625 
Q 18.609375 15.53125 22.484375 10.953125 
Q 26.375 6.390625 33.015625 6.390625 
Q 39.65625 6.390625 43.53125 10.953125 
Q 47.40625 15.53125 47.40625 23.390625 
Q 47.40625 31.296875 43.53125 35.828125 
Q 39.65625 40.375 33.015625 40.375 
z
M 52.59375 71.296875 
L 52.59375 62.3125 
Q 48.875 64.0625 45.09375 64.984375 
Q 41.3125 65.921875 37.59375 65.921875 
Q 27.828125 65.921875 22.671875 59.328125 
Q 17.53125 52.734375 16.796875 39.40625 
Q 19.671875 43.65625 24.015625 45.921875 
Q 28.375 48.1875 33.59375 48.1875 
Q 44.578125 48.1875 50.953125 41.515625 
Q 57.328125 34.859375 57.328125 23.390625 
Q 57.328125 12.15625 50.6875 5.359375 
Q 44.046875 -1.421875 33.015625 -1.421875 
Q 20.359375 -1.421875 13.671875 8.265625 
Q 6.984375 17.96875 6.984375 36.375 
Q 6.984375 53.65625 15.1875 63.9375 
Q 23.390625 74.21875 37.203125 74.21875 
Q 40.921875 74.21875 44.703125 73.484375 
Q 48.484375 72.75 52.59375 71.296875 
z
" id="DejaVuSans-54"/>
      <path d="M 19.1875 8.296875 
L 53.609375 8.296875 
L 53.609375 0 
L 7.328125 0 
L 7.328125 8.296875 
Q 12.9375 14.109375 22.625 23.890625 
Q 32.328125 33.6875 34.8125 36.53125 
Q 39.546875 41.84375 41.421875 45.53125 
Q 43.3125 49.21875 43.3125 52.78125 
Q 43.3125 58.59375 39.234375 62.25 
Q 35.15625 65.921875 28.609375 65.921875 
Q 23.96875 65.921875 18.8125 64.3125 
Q 13.671875 62.703125 7.8125 59.421875 
L 7.8125 69.390625 
Q 13.765625 71.78125 18.9375 73 
Q 24.125 74.21875 28.421875 74.21875 
Q 39.75 74.21875 46.484375 68.546875 
Q 53.21875 62.890625 53.21875 53.421875 
Q 53.21875 48.921875 51.53125 44.890625 
Q 49.859375 40.875 45.40625 35.40625 
Q 44.1875 33.984375 37.640625 27.21875 
Q 31.109375 20.453125 19.1875 8.296875 
z
" id="DejaVuSans-50"/>
     </defs>
     <g transform="translate(313.329687 524.238438)scale(0.1 -0.1)">
      <use xlink:href="#DejaVuSans-48"/>
      <use x="63.623047" xlink:href="#DejaVuSans-46"/>
      <use x="95.410156" xlink:href="#DejaVuSans-56"/>
      <use x="159.033203" xlink:href="#DejaVuSans-57"/>
      <use x="222.65625" xlink:href="#DejaVuSans-48"/>
      <use x="286.279297" xlink:href="#DejaVuSans-56"/>
      <use x="349.902344" xlink:href="#DejaVuSans-49"/>
      <use x="413.525391" xlink:href="#DejaVuSans-55"/>
      <use x="477.148438" xlink:href="#DejaVuSans-48"/>
      <use x="540.771484" xlink:href="#DejaVuSans-54"/>
      <use x="604.394531" xlink:href="#DejaVuSans-56"/>
      <use x="668.017578" xlink:href="#DejaVuSans-56"/>
      <use x="731.640625" xlink:href="#DejaVuSans-56"/>
      <use x="795.263672" xlink:href="#DejaVuSans-50"/>
      <use x="858.886719" xlink:href="#DejaVuSans-54"/>
      <use x="922.509766" xlink:href="#DejaVuSans-48"/>
      <use x="986.132812" xlink:href="#DejaVuSans-49"/>
      <use x="1049.755859" xlink:href="#DejaVuSans-54"/>
     </g>
    </g>
   </g>
   <g id="matplotlib.axis_2">
    <g id="ytick_1">
     <g id="line2d_1">
      <defs>
       <path d="M 0 0 
L -3.5 0 
" id="m8f70f62d4c" style="stroke:#000000;stroke-width:0.8;"/>
      </defs>
      <g>
       <use style="stroke:#000000;stroke-width:0.8;" x="90" xlink:href="#m8f70f62d4c" y="483.779864"/>
      </g>
     </g>
     <g id="text_2">
      <!-- 0.3 -->
      <defs>
       <path d="M 10.59375 35.5 
L 73.1875 35.5 
L 73.1875 27.203125 
L 10.59375 27.203125 
z
" id="DejaVuSans-8722"/>
       <path d="M 40.578125 39.3125 
Q 47.65625 37.796875 51.625 33 
Q 55.609375 28.21875 55.609375 21.1875 
Q 55.609375 10.40625 48.1875 4.484375 
Q 40.765625 -1.421875 27.09375 -1.421875 
Q 22.515625 -1.421875 17.65625 -0.515625 
Q 12.796875 0.390625 7.625 2.203125 
L 7.625 11.71875 
Q 11.71875 9.328125 16.59375 8.109375 
Q 21.484375 6.890625 26.8125 6.890625 
Q 36.078125 6.890625 40.9375 10.546875 
Q 45.796875 14.203125 45.796875 21.1875 
Q 45.796875 27.640625 41.28125 31.265625 
Q 36.765625 34.90625 28.71875 34.90625 
L 20.21875 34.90625 
L 20.21875 43.015625 
L 29.109375 43.015625 
Q 36.375 43.015625 40.234375 45.921875 
Q 44.09375 48.828125 44.09375 54.296875 
Q 44.09375 59.90625 40.109375 62.90625 
Q 36.140625 65.921875 28.71875 65.921875 
Q 24.65625 65.921875 20.015625 65.03125 
Q 15.375 64.15625 9.8125 62.3125 
L 9.8125 71.09375 
Q 15.4375 72.65625 20.34375 73.4375 
Q 25.25 74.21875 29.59375 74.21875 
Q 40.828125 74.21875 47.359375 69.109375 
Q 53.90625 64.015625 53.90625 55.328125 
Q 53.90625 49.265625 50.4375 45.09375 
Q 46.96875 40.921875 40.578125 39.3125 
z
" id="DejaVuSans-51"/>
      </defs>
      <g transform="translate(58.717187 487.579083)scale(0.1 -0.1)">
       <use xlink:href="#DejaVuSans-8722"/>
       <use x="83.789062" xlink:href="#DejaVuSans-48"/>
       <use x="147.412109" xlink:href="#DejaVuSans-46"/>
       <use x="179.199219" xlink:href="#DejaVuSans-51"/>
      </g>
     </g>
    </g>
    <g id="ytick_2">
     <g id="line2d_2">
      <g>
       <use style="stroke:#000000;stroke-width:0.8;" x="90" xlink:href="#m8f70f62d4c" y="412.725036"/>
      </g>
     </g>
     <g id="text_3">
      <!-- 0.2 -->
      <g transform="translate(58.717187 416.524255)scale(0.1 -0.1)">
       <use xlink:href="#DejaVuSans-8722"/>
       <use x="83.789062" xlink:href="#DejaVuSans-48"/>
       <use x="147.412109" xlink:href="#DejaVuSans-46"/>
       <use x="179.199219" xlink:href="#DejaVuSans-50"/>
      </g>
     </g>
    </g>
    <g id="ytick_3">
     <g id="line2d_3">
      <g>
       <use style="stroke:#000000;stroke-width:0.8;" x="90" xlink:href="#m8f70f62d4c" y="341.670208"/>
      </g>
     </g>
     <g id="text_4">
      <!-- 0.1 -->
      <g transform="translate(58.717187 345.469427)scale(0.1 -0.1)">
       <use xlink:href="#DejaVuSans-8722"/>
       <use x="83.789062" xlink:href="#DejaVuSans-48"/>
       <use x="147.412109" xlink:href="#DejaVuSans-46"/>
       <use x="179.199219" xlink:href="#DejaVuSans-49"/>
      </g>
     </g>
    </g>
    <g id="ytick_4">
     <g id="line2d_4">
      <g>
       <use style="stroke:#000000;stroke-width:0.8;" x="90" xlink:href="#m8f70f62d4c" y="270.615381"/>
      </g>
     </g>
     <g id="text_5">
      <!-- 0.0 -->
      <g transform="translate(67.096875 274.414599)scale(0.1 -0.1)">
       <use xlink:href="#DejaVuSans-48"/>
       <use x="63.623047" xlink:href="#DejaVuSans-46"/>
       <use x="95.410156" xlink:href="#DejaVuSans-48"/>
      </g>
     </g>
    </g>
    <g id="ytick_5">
     <g id="line2d_5">
      <g>
       <use style="stroke:#000000;stroke-width:0.8;" x="90" xlink:href="#m8f70f62d4c" y="199.560553"/>
      </g>
     </g>
     <g id="text_6">
      <!-- 0.1 -->
      <g transform="translate(67.096875 203.359771)scale(0.1 -0.1)">
       <use xlink:href="#DejaVuSans-48"/>
       <use x="63.623047" xlink:href="#DejaVuSans-46"/>
       <use x="95.410156" xlink:href="#DejaVuSans-49"/>
      </g>
     </g>
    </g>
    <g id="ytick_6">
     <g id="line2d_6">
      <g>
       <use style="stroke:#000000;stroke-width:0.8;" x="90" xlink:href="#m8f70f62d4c" y="128.505725"/>
      </g>
     </g>
     <g id="text_7">
      <!-- 0.2 -->
      <g transform="translate(67.096875 132.304944)scale(0.1 -0.1)">
       <use xlink:href="#DejaVuSans-48"/>
       <use x="63.623047" xlink:href="#DejaVuSans-46"/>
       <use x="95.410156" xlink:href="#DejaVuSans-50"/>
      </g>
     </g>
    </g>
    <g id="text_8">
     <!-- 0.054433516807767535 -->
     <defs>
      <path d="M 10.796875 72.90625 
L 49.515625 72.90625 
L 49.515625 64.59375 
L 19.828125 64.59375 
L 19.828125 46.734375 
Q 21.96875 47.46875 24.109375 47.828125 
Q 26.265625 48.1875 28.421875 48.1875 
Q 40.625 48.1875 47.75 41.5 
Q 54.890625 34.8125 54.890625 23.390625 
Q 54.890625 11.625 47.5625 5.09375 
Q 40.234375 -1.421875 26.90625 -1.421875 
Q 22.3125 -1.421875 17.546875 -0.640625 
Q 12.796875 0.140625 7.71875 1.703125 
L 7.71875 11.625 
Q 12.109375 9.234375 16.796875 8.0625 
Q 21.484375 6.890625 26.703125 6.890625 
Q 35.15625 6.890625 40.078125 11.328125 
Q 45.015625 15.765625 45.015625 23.390625 
Q 45.015625 31 40.078125 35.4375 
Q 35.15625 39.890625 26.703125 39.890625 
Q 22.75 39.890625 18.8125 39.015625 
Q 14.890625 38.140625 10.796875 36.28125 
z
" id="DejaVuSans-53"/>
      <path d="M 37.796875 64.3125 
L 12.890625 25.390625 
L 37.796875 25.390625 
z
M 35.203125 72.90625 
L 47.609375 72.90625 
L 47.609375 25.390625 
L 58.015625 25.390625 
L 58.015625 17.1875 
L 47.609375 17.1875 
L 47.609375 0 
L 37.796875 0 
L 37.796875 17.1875 
L 4.890625 17.1875 
L 4.890625 26.703125 
z
" id="DejaVuSans-52"/>
     </defs>
     <g transform="translate(52.6375 352.912812)rotate(-90)scale(0.1 -0.1)">
      <use xlink:href="#DejaVuSans-48"/>
      <use x="63.623047" xlink:href="#DejaVuSans-46"/>
      <use x="95.410156" xlink:href="#DejaVuSans-48"/>
      <use x="159.033203" xlink:href="#DejaVuSans-53"/>
      <use x="222.65625" xlink:href="#DejaVuSans-52"/>
      <use x="286.279297" xlink:href="#DejaVuSans-52"/>
      <use x="349.902344" xlink:href="#DejaVuSans-51"/>
      <use x="413.525391" xlink:href="#DejaVuSans-51"/>
      <use x="477.148438" xlink:href="#DejaVuSans-53"/>
      <use x="540.771484" xlink:href="#DejaVuSans-49"/>
      <use x="604.394531" xlink:href="#DejaVuSans-54"/>
      <use x="668.017578" xlink:href="#DejaVuSans-56"/>
      <use x="731.640625" xlink:href="#DejaVuSans-48"/>
      <use x="795.263672" xlink:href="#DejaVuSans-55"/>
      <use x="858.886719" xlink:href="#DejaVuSans-55"/>
      <use x="922.509766" xlink:href="#DejaVuSans-54"/>
      <use x="986.132812" xlink:href="#DejaVuSans-55"/>
      <use x="1049.755859" xlink:href="#DejaVuSans-53"/>
      <use x="1113.378906" xlink:href="#DejaVuSans-51"/>
      <use x="1177.001953" xlink:href="#DejaVuSans-53"/>
     </g>
    </g>
   </g>
   <g id="patch_2">
    <path d="M 90 512.64 
L 90 69.12 
" style="fill:none;stroke:#000000;stroke-linecap:square;stroke-linejoin:miter;stroke-width:0.8;"/>
   </g>
   <g id="patch_3">
    <path d="M 648 512.64 
L 648 69.12 
" style="fill:none;stroke:#000000;stroke-linecap:square;stroke-linejoin:miter;stroke-width:0.8;"/>
   </g>
   <g id="patch_4">
    <path d="M 90 512.64 
L 648 512.64 
" style="fill:none;stroke:#000000;stroke-linecap:square;stroke-linejoin:miter;stroke-width:0.8;"/>
   </g>
   <g id="patch_5">
    <path d="M 90 69.12 
L 648 69.12 
" style="fill:none;stroke:#000000;stroke-linecap:square;stroke-linejoin:miter;stroke-width:0.8;"/>
   </g>
   <g id="text_9">
    <g clip-path="url(#p613b30c446)">
     <!-- 0.250 -->
     <g style="fill:#450559;" transform="translate(332.028566 171.39686)rotate(-312.920259)scale(0.1 -0.1)">
      <use xlink:href="#DejaVuSans-48"/>
      <use x="63.623047" xlink:href="#DejaVuSans-46"/>
      <use x="95.410156" xlink:href="#DejaVuSans-50"/>
      <use x="159.033203" xlink:href="#DejaVuSans-53"/>
      <use x="222.65625" xlink:href="#DejaVuSans-48"/>
     </g>
    </g>
   </g>
   <g id="text_10">
    <g clip-path="url(#p613b30c446)">
     <!-- 0.500 -->
     <g style="fill:#460a5d;" transform="translate(386.545065 182.360181)rotate(-304.350643)scale(0.1 -0.1)">
      <use xlink:href="#DejaVuSans-48"/>
      <use x="63.623047" xlink:href="#DejaVuSans-46"/>
      <use x="95.410156" xlink:href="#DejaVuSans-53"/>
      <use x="159.033203" xlink:href="#DejaVuSans-48"/>
      <use x="222.65625" xlink:href="#DejaVuSans-48"/>
     </g>
    </g>
   </g>
   <g id="text_11">
    <g clip-path="url(#p613b30c446)">
     <!-- 0.750 -->
     <g style="fill:#470e61;" transform="translate(449.047961 254.907147)rotate(-277.925587)scale(0.1 -0.1)">
      <use xlink:href="#DejaVuSans-48"/>
      <use x="63.623047" xlink:href="#DejaVuSans-46"/>
      <use x="95.410156" xlink:href="#DejaVuSans-55"/>
      <use x="159.033203" xlink:href="#DejaVuSans-53"/>
      <use x="222.65625" xlink:href="#DejaVuSans-48"/>
     </g>
    </g>
   </g>
   <g id="text_12">
    <g clip-path="url(#p613b30c446)">
     <!-- 1.000 -->
     <g style="fill:#471365;" transform="translate(469.606496 327.628631)rotate(-77.592053)scale(0.1 -0.1)">
      <use xlink:href="#DejaVuSans-49"/>
      <use x="63.623047" xlink:href="#DejaVuSans-46"/>
      <use x="95.410156" xlink:href="#DejaVuSans-48"/>
      <use x="159.033203" xlink:href="#DejaVuSans-48"/>
      <use x="222.65625" xlink:href="#DejaVuSans-48"/>
     </g>
    </g>
   </g>
   <g id="text_13">
    <g clip-path="url(#p613b30c446)">
     <!-- 1.250 -->
     <g style="fill:#481769;" transform="translate(443.288238 172.335251)rotate(-299.301773)scale(0.1 -0.1)">
      <use xlink:href="#DejaVuSans-49"/>
      <use x="63.623047" xlink:href="#DejaVuSans-46"/>
      <use x="95.410156" xlink:href="#DejaVuSans-50"/>
      <use x="159.033203" xlink:href="#DejaVuSans-53"/>
      <use x="222.65625" xlink:href="#DejaVuSans-48"/>
     </g>
    </g>
   </g>
   <g id="text_14">
    <g clip-path="url(#p613b30c446)">
     <!-- 1.500 -->
     <g style="fill:#481b6d;" transform="translate(476.25597 212.033718)rotate(-291.415272)scale(0.1 -0.1)">
      <use xlink:href="#DejaVuSans-49"/>
      <use x="63.623047" xlink:href="#DejaVuSans-46"/>
      <use x="95.410156" xlink:href="#DejaVuSans-53"/>
      <use x="159.033203" xlink:href="#DejaVuSans-48"/>
      <use x="222.65625" xlink:href="#DejaVuSans-48"/>
     </g>
    </g>
   </g>
   <g id="text_15">
    <g clip-path="url(#p613b30c446)">
     <!-- 1.750 -->
     <g style="fill:#481f70;" transform="translate(512.187676 327.595076)rotate(-83.255265)scale(0.1 -0.1)">
      <use xlink:href="#DejaVuSans-49"/>
      <use x="63.623047" xlink:href="#DejaVuSans-46"/>
      <use x="95.410156" xlink:href="#DejaVuSans-55"/>
      <use x="159.033203" xlink:href="#DejaVuSans-53"/>
      <use x="222.65625" xlink:href="#DejaVuSans-48"/>
     </g>
    </g>
   </g>
   <g id="text_16">
    <g clip-path="url(#p613b30c446)">
     <!-- 2.000 -->
     <g style="fill:#482374;" transform="translate(519.613656 349.79113)rotate(-76.203921)scale(0.1 -0.1)">
      <use xlink:href="#DejaVuSans-50"/>
      <use x="63.623047" xlink:href="#DejaVuSans-46"/>
      <use x="95.410156" xlink:href="#DejaVuSans-48"/>
      <use x="159.033203" xlink:href="#DejaVuSans-48"/>
      <use x="222.65625" xlink:href="#DejaVuSans-48"/>
     </g>
    </g>
   </g>
   <g id="text_17">
    <g clip-path="url(#p613b30c446)">
     <!-- 2.250 -->
     <g style="fill:#482878;" transform="translate(467.155164 125.023622)rotate(-302.301574)scale(0.1 -0.1)">
      <use xlink:href="#DejaVuSans-50"/>
      <use x="63.623047" xlink:href="#DejaVuSans-46"/>
      <use x="95.410156" xlink:href="#DejaVuSans-50"/>
      <use x="159.033203" xlink:href="#DejaVuSans-53"/>
      <use x="222.65625" xlink:href="#DejaVuSans-48"/>
     </g>
    </g>
   </g>
   <g id="text_18">
    <g clip-path="url(#p613b30c446)">
     <!-- 2.500 -->
     <g style="fill:#472c7a;" transform="translate(214.972265 464.301682)rotate(-344.348144)scale(0.1 -0.1)">
      <use xlink:href="#DejaVuSans-50"/>
      <use x="63.623047" xlink:href="#DejaVuSans-46"/>
      <use x="95.410156" xlink:href="#DejaVuSans-53"/>
      <use x="159.033203" xlink:href="#DejaVuSans-48"/>
      <use x="222.65625" xlink:href="#DejaVuSans-48"/>
     </g>
    </g>
   </g>
   <g id="text_19">
    <g clip-path="url(#p613b30c446)">
     <!-- 2.500 -->
     <g style="fill:#472c7a;" transform="translate(567.048664 305.358251)rotate(-85.781903)scale(0.1 -0.1)">
      <use xlink:href="#DejaVuSans-50"/>
      <use x="63.623047" xlink:href="#DejaVuSans-46"/>
      <use x="95.410156" xlink:href="#DejaVuSans-53"/>
      <use x="159.033203" xlink:href="#DejaVuSans-48"/>
      <use x="222.65625" xlink:href="#DejaVuSans-48"/>
     </g>
    </g>
   </g>
   <g id="text_20">
    <g clip-path="url(#p613b30c446)">
     <!-- 2.750 -->
     <g style="fill:#472f7d;" transform="translate(196.455229 466.540136)rotate(-342.202359)scale(0.1 -0.1)">
      <use xlink:href="#DejaVuSans-50"/>
      <use x="63.623047" xlink:href="#DejaVuSans-46"/>
      <use x="95.410156" xlink:href="#DejaVuSans-55"/>
      <use x="159.033203" xlink:href="#DejaVuSans-53"/>
      <use x="222.65625" xlink:href="#DejaVuSans-48"/>
     </g>
    </g>
   </g>
   <g id="text_21">
    <g clip-path="url(#p613b30c446)">
     <!-- 2.750 -->
     <g style="fill:#472f7d;" transform="translate(574.778203 349.798525)rotate(-76.854837)scale(0.1 -0.1)">
      <use xlink:href="#DejaVuSans-50"/>
      <use x="63.623047" xlink:href="#DejaVuSans-46"/>
      <use x="95.410156" xlink:href="#DejaVuSans-55"/>
      <use x="159.033203" xlink:href="#DejaVuSans-53"/>
      <use x="222.65625" xlink:href="#DejaVuSans-48"/>
     </g>
    </g>
   </g>
   <g id="text_22">
    <g clip-path="url(#p613b30c446)">
     <!-- 3.000 -->
     <g style="fill:#46337f;" transform="translate(187.162219 472.016975)rotate(-341.146702)scale(0.1 -0.1)">
      <use xlink:href="#DejaVuSans-51"/>
      <use x="63.623047" xlink:href="#DejaVuSans-46"/>
      <use x="95.410156" xlink:href="#DejaVuSans-48"/>
      <use x="159.033203" xlink:href="#DejaVuSans-48"/>
      <use x="222.65625" xlink:href="#DejaVuSans-48"/>
     </g>
    </g>
   </g>
   <g id="text_23">
    <g clip-path="url(#p613b30c446)">
     <!-- 3.000 -->
     <g style="fill:#46337f;" transform="translate(592.257749 337.399559)rotate(-79.315704)scale(0.1 -0.1)">
      <use xlink:href="#DejaVuSans-51"/>
      <use x="63.623047" xlink:href="#DejaVuSans-46"/>
      <use x="95.410156" xlink:href="#DejaVuSans-48"/>
      <use x="159.033203" xlink:href="#DejaVuSans-48"/>
      <use x="222.65625" xlink:href="#DejaVuSans-48"/>
     </g>
    </g>
   </g>
   <g id="text_24">
    <g clip-path="url(#p613b30c446)">
     <!-- 3.250 -->
     <g style="fill:#453781;" transform="translate(159.231876 472.825393)rotate(-342.062324)scale(0.1 -0.1)">
      <use xlink:href="#DejaVuSans-51"/>
      <use x="63.623047" xlink:href="#DejaVuSans-46"/>
      <use x="95.410156" xlink:href="#DejaVuSans-50"/>
      <use x="159.033203" xlink:href="#DejaVuSans-53"/>
      <use x="222.65625" xlink:href="#DejaVuSans-48"/>
     </g>
    </g>
   </g>
   <g id="text_25">
    <g clip-path="url(#p613b30c446)">
     <!-- 3.250 -->
     <g style="fill:#453781;" transform="translate(596.648017 349.805264)rotate(-80.486922)scale(0.1 -0.1)">
      <use xlink:href="#DejaVuSans-51"/>
      <use x="63.623047" xlink:href="#DejaVuSans-46"/>
      <use x="95.410156" xlink:href="#DejaVuSans-50"/>
      <use x="159.033203" xlink:href="#DejaVuSans-53"/>
      <use x="222.65625" xlink:href="#DejaVuSans-48"/>
     </g>
    </g>
   </g>
   <g id="text_26">
    <g clip-path="url(#p613b30c446)">
     <!-- 3.500 -->
     <g style="fill:#443a83;" transform="translate(159.233127 482.753548)rotate(-342.022242)scale(0.1 -0.1)">
      <use xlink:href="#DejaVuSans-51"/>
      <use x="63.623047" xlink:href="#DejaVuSans-46"/>
      <use x="95.410156" xlink:href="#DejaVuSans-53"/>
      <use x="159.033203" xlink:href="#DejaVuSans-48"/>
      <use x="222.65625" xlink:href="#DejaVuSans-48"/>
     </g>
    </g>
   </g>
   <g id="text_27">
    <g clip-path="url(#p613b30c446)">
     <!-- 3.500 -->
     <g style="fill:#443a83;" transform="translate(601.668409 349.808866)rotate(-79.665253)scale(0.1 -0.1)">
      <use xlink:href="#DejaVuSans-51"/>
      <use x="63.623047" xlink:href="#DejaVuSans-46"/>
      <use x="95.410156" xlink:href="#DejaVuSans-53"/>
      <use x="159.033203" xlink:href="#DejaVuSans-48"/>
      <use x="222.65625" xlink:href="#DejaVuSans-48"/>
     </g>
    </g>
   </g>
   <g id="text_28">
    <g clip-path="url(#p613b30c446)">
     <!-- 3.750 -->
     <g style="fill:#433e85;" transform="translate(151.734815 488.118518)rotate(-339.829805)scale(0.1 -0.1)">
      <use xlink:href="#DejaVuSans-51"/>
      <use x="63.623047" xlink:href="#DejaVuSans-46"/>
      <use x="95.410156" xlink:href="#DejaVuSans-55"/>
      <use x="159.033203" xlink:href="#DejaVuSans-53"/>
      <use x="222.65625" xlink:href="#DejaVuSans-48"/>
     </g>
    </g>
   </g>
   <g id="text_29">
    <g clip-path="url(#p613b30c446)">
     <!-- 3.750 -->
     <g style="fill:#433e85;" transform="translate(606.65687 349.809299)rotate(-78.718202)scale(0.1 -0.1)">
      <use xlink:href="#DejaVuSans-51"/>
      <use x="63.623047" xlink:href="#DejaVuSans-46"/>
      <use x="95.410156" xlink:href="#DejaVuSans-55"/>
      <use x="159.033203" xlink:href="#DejaVuSans-53"/>
      <use x="222.65625" xlink:href="#DejaVuSans-48"/>
     </g>
    </g>
   </g>
   <g id="text_30">
    <g clip-path="url(#p613b30c446)">
     <!-- 4.000 -->
     <g style="fill:#424186;" transform="translate(131.525647 486.812928)rotate(-337.381577)scale(0.1 -0.1)">
      <use xlink:href="#DejaVuSans-52"/>
      <use x="63.623047" xlink:href="#DejaVuSans-46"/>
      <use x="95.410156" xlink:href="#DejaVuSans-48"/>
      <use x="159.033203" xlink:href="#DejaVuSans-48"/>
      <use x="222.65625" xlink:href="#DejaVuSans-48"/>
     </g>
    </g>
   </g>
   <g id="text_31">
    <g clip-path="url(#p613b30c446)">
     <!-- 4.000 -->
     <g style="fill:#424186;" transform="translate(603.758252 371.90092)rotate(-72.909922)scale(0.1 -0.1)">
      <use xlink:href="#DejaVuSans-52"/>
      <use x="63.623047" xlink:href="#DejaVuSans-46"/>
      <use x="95.410156" xlink:href="#DejaVuSans-48"/>
      <use x="159.033203" xlink:href="#DejaVuSans-48"/>
      <use x="222.65625" xlink:href="#DejaVuSans-48"/>
     </g>
    </g>
   </g>
   <g id="text_32">
    <g clip-path="url(#p613b30c446)">
     <!-- 4.250 -->
     <g style="fill:#404688;" transform="translate(117.381445 487.464217)rotate(-337.213549)scale(0.1 -0.1)">
      <use xlink:href="#DejaVuSans-52"/>
      <use x="63.623047" xlink:href="#DejaVuSans-46"/>
      <use x="95.410156" xlink:href="#DejaVuSans-50"/>
      <use x="159.033203" xlink:href="#DejaVuSans-53"/>
      <use x="222.65625" xlink:href="#DejaVuSans-48"/>
     </g>
    </g>
   </g>
   <g id="text_33">
    <g clip-path="url(#p613b30c446)">
     <!-- 4.250 -->
     <g style="fill:#404688;" transform="translate(600.190161 393.951584)rotate(-69.351227)scale(0.1 -0.1)">
      <use xlink:href="#DejaVuSans-52"/>
      <use x="63.623047" xlink:href="#DejaVuSans-46"/>
      <use x="95.410156" xlink:href="#DejaVuSans-50"/>
      <use x="159.033203" xlink:href="#DejaVuSans-53"/>
      <use x="222.65625" xlink:href="#DejaVuSans-48"/>
     </g>
    </g>
   </g>
   <g id="text_34">
    <g clip-path="url(#p613b30c446)">
     <!-- 4.500 -->
     <g style="fill:#3e4989;" transform="translate(103.505842 488.810022)rotate(-339.989498)scale(0.1 -0.1)">
      <use xlink:href="#DejaVuSans-52"/>
      <use x="63.623047" xlink:href="#DejaVuSans-46"/>
      <use x="95.410156" xlink:href="#DejaVuSans-53"/>
      <use x="159.033203" xlink:href="#DejaVuSans-48"/>
      <use x="222.65625" xlink:href="#DejaVuSans-48"/>
     </g>
    </g>
   </g>
   <g id="text_35">
    <g clip-path="url(#p613b30c446)">
     <!-- 4.500 -->
     <g style="fill:#3e4989;" transform="translate(604.170354 393.890699)rotate(-68.025591)scale(0.1 -0.1)">
      <use xlink:href="#DejaVuSans-52"/>
      <use x="63.623047" xlink:href="#DejaVuSans-46"/>
      <use x="95.410156" xlink:href="#DejaVuSans-53"/>
      <use x="159.033203" xlink:href="#DejaVuSans-48"/>
      <use x="222.65625" xlink:href="#DejaVuSans-48"/>
     </g>
    </g>
   </g>
   <g id="text_36">
    <g clip-path="url(#p613b30c446)">
     <!-- 4.750 -->
     <g style="fill:#3d4d8a;" transform="translate(103.454989 495.001438)rotate(-341.355082)scale(0.1 -0.1)">
      <use xlink:href="#DejaVuSans-52"/>
      <use x="63.623047" xlink:href="#DejaVuSans-46"/>
      <use x="95.410156" xlink:href="#DejaVuSans-55"/>
      <use x="159.033203" xlink:href="#DejaVuSans-53"/>
      <use x="222.65625" xlink:href="#DejaVuSans-48"/>
     </g>
    </g>
   </g>
   <g id="text_37">
    <g clip-path="url(#p613b30c446)">
     <!-- 4.750 -->
     <g style="fill:#3d4d8a;" transform="translate(595.824424 415.644677)rotate(-61.351992)scale(0.1 -0.1)">
      <use xlink:href="#DejaVuSans-52"/>
      <use x="63.623047" xlink:href="#DejaVuSans-46"/>
      <use x="95.410156" xlink:href="#DejaVuSans-55"/>
      <use x="159.033203" xlink:href="#DejaVuSans-53"/>
      <use x="222.65625" xlink:href="#DejaVuSans-48"/>
     </g>
    </g>
   </g>
   <g id="text_38">
    <g clip-path="url(#p613b30c446)">
     <!-- 5.000 -->
     <g style="fill:#3c508b;" transform="translate(103.459792 500.814112)rotate(-341.216032)scale(0.1 -0.1)">
      <use xlink:href="#DejaVuSans-53"/>
      <use x="63.623047" xlink:href="#DejaVuSans-46"/>
      <use x="95.410156" xlink:href="#DejaVuSans-48"/>
      <use x="159.033203" xlink:href="#DejaVuSans-48"/>
      <use x="222.65625" xlink:href="#DejaVuSans-48"/>
     </g>
    </g>
   </g>
   <g id="text_39">
    <g clip-path="url(#p613b30c446)">
     <!-- 5.000 -->
     <g style="fill:#3c508b;" transform="translate(599.11698 415.57851)rotate(-60.517305)scale(0.1 -0.1)">
      <use xlink:href="#DejaVuSans-53"/>
      <use x="63.623047" xlink:href="#DejaVuSans-46"/>
      <use x="95.410156" xlink:href="#DejaVuSans-48"/>
      <use x="159.033203" xlink:href="#DejaVuSans-48"/>
      <use x="222.65625" xlink:href="#DejaVuSans-48"/>
     </g>
    </g>
   </g>
   <g id="text_40">
    <g clip-path="url(#p613b30c446)">
     <!-- 5.250 -->
     <g style="fill:#3a538b;" transform="translate(103.424488 506.936336)rotate(-342.303825)scale(0.1 -0.1)">
      <use xlink:href="#DejaVuSans-53"/>
      <use x="63.623047" xlink:href="#DejaVuSans-46"/>
      <use x="95.410156" xlink:href="#DejaVuSans-50"/>
      <use x="159.033203" xlink:href="#DejaVuSans-53"/>
      <use x="222.65625" xlink:href="#DejaVuSans-48"/>
     </g>
    </g>
   </g>
   <g id="text_41">
    <g clip-path="url(#p613b30c446)">
     <!-- 5.250 -->
     <g style="fill:#3a538b;" transform="translate(587.69196 437.225758)rotate(-54.823917)scale(0.1 -0.1)">
      <use xlink:href="#DejaVuSans-53"/>
      <use x="63.623047" xlink:href="#DejaVuSans-46"/>
      <use x="95.410156" xlink:href="#DejaVuSans-50"/>
      <use x="159.033203" xlink:href="#DejaVuSans-53"/>
      <use x="222.65625" xlink:href="#DejaVuSans-48"/>
     </g>
    </g>
   </g>
   <g id="text_42">
    <g clip-path="url(#p613b30c446)">
     <!-- 5.500 -->
     <g style="fill:#39568c;" transform="translate(590.617609 437.240201)rotate(-54.962424)scale(0.1 -0.1)">
      <use xlink:href="#DejaVuSans-53"/>
      <use x="63.623047" xlink:href="#DejaVuSans-46"/>
      <use x="95.410156" xlink:href="#DejaVuSans-53"/>
      <use x="159.033203" xlink:href="#DejaVuSans-48"/>
      <use x="222.65625" xlink:href="#DejaVuSans-48"/>
     </g>
    </g>
   </g>
   <g id="text_43">
    <g clip-path="url(#p613b30c446)">
     <!-- 5.750 -->
     <g style="fill:#375a8c;" transform="translate(585.705758 447.209815)rotate(-52.633745)scale(0.1 -0.1)">
      <use xlink:href="#DejaVuSans-53"/>
      <use x="63.623047" xlink:href="#DejaVuSans-46"/>
      <use x="95.410156" xlink:href="#DejaVuSans-55"/>
      <use x="159.033203" xlink:href="#DejaVuSans-53"/>
      <use x="222.65625" xlink:href="#DejaVuSans-48"/>
     </g>
    </g>
   </g>
   <g id="text_44">
    <g clip-path="url(#p613b30c446)">
     <!-- 6.000 -->
     <g style="fill:#365d8d;" transform="translate(585.639826 451.245667)rotate(-52.343932)scale(0.1 -0.1)">
      <use xlink:href="#DejaVuSans-54"/>
      <use x="63.623047" xlink:href="#DejaVuSans-46"/>
      <use x="95.410156" xlink:href="#DejaVuSans-48"/>
      <use x="159.033203" xlink:href="#DejaVuSans-48"/>
      <use x="222.65625" xlink:href="#DejaVuSans-48"/>
     </g>
    </g>
   </g>
   <g id="text_45">
    <g clip-path="url(#p613b30c446)">
     <!-- 6.250 -->
     <g style="fill:#34618d;" transform="translate(585.526484 455.256797)rotate(-51.84398)scale(0.1 -0.1)">
      <use xlink:href="#DejaVuSans-54"/>
      <use x="63.623047" xlink:href="#DejaVuSans-46"/>
      <use x="95.410156" xlink:href="#DejaVuSans-50"/>
      <use x="159.033203" xlink:href="#DejaVuSans-53"/>
      <use x="222.65625" xlink:href="#DejaVuSans-48"/>
     </g>
    </g>
   </g>
   <g id="text_46">
    <g clip-path="url(#p613b30c446)">
     <!-- 6.500 -->
     <g style="fill:#32648e;" transform="translate(585.509806 458.979688)rotate(-51.058831)scale(0.1 -0.1)">
      <use xlink:href="#DejaVuSans-54"/>
      <use x="63.623047" xlink:href="#DejaVuSans-46"/>
      <use x="95.410156" xlink:href="#DejaVuSans-53"/>
      <use x="159.033203" xlink:href="#DejaVuSans-48"/>
      <use x="222.65625" xlink:href="#DejaVuSans-48"/>
     </g>
    </g>
   </g>
   <g id="text_47">
    <g clip-path="url(#p613b30c446)">
     <!-- 6.750 -->
     <g style="fill:#31678e;" transform="translate(588.057216 458.965126)rotate(-50.937284)scale(0.1 -0.1)">
      <use xlink:href="#DejaVuSans-54"/>
      <use x="63.623047" xlink:href="#DejaVuSans-46"/>
      <use x="95.410156" xlink:href="#DejaVuSans-55"/>
      <use x="159.033203" xlink:href="#DejaVuSans-53"/>
      <use x="222.65625" xlink:href="#DejaVuSans-48"/>
     </g>
    </g>
   </g>
   <g id="text_48">
    <g clip-path="url(#p613b30c446)">
     <!-- 7.000 -->
     <g style="fill:#306a8e;" transform="translate(590.605472 458.950945)rotate(-50.819378)scale(0.1 -0.1)">
      <use xlink:href="#DejaVuSans-55"/>
      <use x="63.623047" xlink:href="#DejaVuSans-46"/>
      <use x="95.410156" xlink:href="#DejaVuSans-48"/>
      <use x="159.033203" xlink:href="#DejaVuSans-48"/>
      <use x="222.65625" xlink:href="#DejaVuSans-48"/>
     </g>
    </g>
   </g>
   <g id="text_49">
    <g clip-path="url(#p613b30c446)">
     <!-- 7.250 -->
     <g style="fill:#2e6d8e;" transform="translate(593.154569 458.937149)rotate(-50.705093)scale(0.1 -0.1)">
      <use xlink:href="#DejaVuSans-55"/>
      <use x="63.623047" xlink:href="#DejaVuSans-46"/>
      <use x="95.410156" xlink:href="#DejaVuSans-50"/>
      <use x="159.033203" xlink:href="#DejaVuSans-53"/>
      <use x="222.65625" xlink:href="#DejaVuSans-48"/>
     </g>
    </g>
   </g>
   <g id="text_50">
    <g clip-path="url(#p613b30c446)">
     <!-- 7.500 -->
     <g style="fill:#2d708e;" transform="translate(595.697219 458.919783)rotate(-50.56185)scale(0.1 -0.1)">
      <use xlink:href="#DejaVuSans-55"/>
      <use x="63.623047" xlink:href="#DejaVuSans-46"/>
      <use x="95.410156" xlink:href="#DejaVuSans-53"/>
      <use x="159.033203" xlink:href="#DejaVuSans-48"/>
      <use x="222.65625" xlink:href="#DejaVuSans-48"/>
     </g>
    </g>
   </g>
   <g id="text_51">
    <g clip-path="url(#p613b30c446)">
     <!-- 7.750 -->
     <g style="fill:#2c728e;" transform="translate(584.815524 473.518522)rotate(-48.653556)scale(0.1 -0.1)">
      <use xlink:href="#DejaVuSans-55"/>
      <use x="63.623047" xlink:href="#DejaVuSans-46"/>
      <use x="95.410156" xlink:href="#DejaVuSans-55"/>
      <use x="159.033203" xlink:href="#DejaVuSans-53"/>
      <use x="222.65625" xlink:href="#DejaVuSans-48"/>
     </g>
    </g>
   </g>
   <g id="text_52">
    <g clip-path="url(#p613b30c446)">
     <!-- 8.000 -->
     <g style="fill:#2b758e;" transform="translate(584.904001 476.501126)rotate(-49.056056)scale(0.1 -0.1)">
      <use xlink:href="#DejaVuSans-56"/>
      <use x="63.623047" xlink:href="#DejaVuSans-46"/>
      <use x="95.410156" xlink:href="#DejaVuSans-48"/>
      <use x="159.033203" xlink:href="#DejaVuSans-48"/>
      <use x="222.65625" xlink:href="#DejaVuSans-48"/>
     </g>
    </g>
   </g>
   <g id="text_53">
    <g clip-path="url(#p613b30c446)">
     <!-- 8.250 -->
     <g style="fill:#29798e;" transform="translate(584.99064 479.481856)rotate(-49.448618)scale(0.1 -0.1)">
      <use xlink:href="#DejaVuSans-56"/>
      <use x="63.623047" xlink:href="#DejaVuSans-46"/>
      <use x="95.410156" xlink:href="#DejaVuSans-50"/>
      <use x="159.033203" xlink:href="#DejaVuSans-53"/>
      <use x="222.65625" xlink:href="#DejaVuSans-48"/>
     </g>
    </g>
   </g>
   <g id="text_54">
    <g clip-path="url(#p613b30c446)">
     <!-- 8.500 -->
     <g style="fill:#287c8e;" transform="translate(586.222793 481.001338)rotate(-49.794012)scale(0.1 -0.1)">
      <use xlink:href="#DejaVuSans-56"/>
      <use x="63.623047" xlink:href="#DejaVuSans-46"/>
      <use x="95.410156" xlink:href="#DejaVuSans-53"/>
      <use x="159.033203" xlink:href="#DejaVuSans-48"/>
      <use x="222.65625" xlink:href="#DejaVuSans-48"/>
     </g>
    </g>
   </g>
   <g id="text_55">
    <g clip-path="url(#p613b30c446)">
     <!-- 8.750 -->
     <g style="fill:#277f8e;" transform="translate(588.619318 481.039353)rotate(-50.100837)scale(0.1 -0.1)">
      <use xlink:href="#DejaVuSans-56"/>
      <use x="63.623047" xlink:href="#DejaVuSans-46"/>
      <use x="95.410156" xlink:href="#DejaVuSans-55"/>
      <use x="159.033203" xlink:href="#DejaVuSans-53"/>
      <use x="222.65625" xlink:href="#DejaVuSans-48"/>
     </g>
    </g>
   </g>
   <g id="text_56">
    <g clip-path="url(#p613b30c446)">
     <!-- 9.000 -->
     <g style="fill:#26828e;" transform="translate(591.016549 481.077278)rotate(-50.409923)scale(0.1 -0.1)">
      <use xlink:href="#DejaVuSans-57"/>
      <use x="63.623047" xlink:href="#DejaVuSans-46"/>
      <use x="95.410156" xlink:href="#DejaVuSans-48"/>
      <use x="159.033203" xlink:href="#DejaVuSans-48"/>
      <use x="222.65625" xlink:href="#DejaVuSans-48"/>
     </g>
    </g>
   </g>
   <g id="text_57">
    <g clip-path="url(#p613b30c446)">
     <!-- 9.250 -->
     <g style="fill:#25848e;" transform="translate(593.423246 481.119828)rotate(-50.760372)scale(0.1 -0.1)">
      <use xlink:href="#DejaVuSans-57"/>
      <use x="63.623047" xlink:href="#DejaVuSans-46"/>
      <use x="95.410156" xlink:href="#DejaVuSans-50"/>
      <use x="159.033203" xlink:href="#DejaVuSans-53"/>
      <use x="222.65625" xlink:href="#DejaVuSans-48"/>
     </g>
    </g>
   </g>
   <g id="text_58">
    <g clip-path="url(#p613b30c446)">
     <!-- 9.500 -->
     <g style="fill:#24878e;" transform="translate(595.780862 481.135567)rotate(-50.891008)scale(0.1 -0.1)">
      <use xlink:href="#DejaVuSans-57"/>
      <use x="63.623047" xlink:href="#DejaVuSans-46"/>
      <use x="95.410156" xlink:href="#DejaVuSans-53"/>
      <use x="159.033203" xlink:href="#DejaVuSans-48"/>
      <use x="222.65625" xlink:href="#DejaVuSans-48"/>
     </g>
    </g>
   </g>
   <g id="text_59">
    <g clip-path="url(#p613b30c446)">
     <!-- 9.750 -->
     <g style="fill:#238a8d;" transform="translate(598.109203 481.135567)rotate(-50.891008)scale(0.1 -0.1)">
      <use xlink:href="#DejaVuSans-57"/>
      <use x="63.623047" xlink:href="#DejaVuSans-46"/>
      <use x="95.410156" xlink:href="#DejaVuSans-55"/>
      <use x="159.033203" xlink:href="#DejaVuSans-53"/>
      <use x="222.65625" xlink:href="#DejaVuSans-48"/>
     </g>
    </g>
   </g>
   <g id="text_60">
    <g clip-path="url(#p613b30c446)">
     <!-- 10.000 -->
     <g style="fill:#228d8d;" transform="translate(598.430819 483.60405)rotate(-50.891008)scale(0.1 -0.1)">
      <use xlink:href="#DejaVuSans-49"/>
      <use x="63.623047" xlink:href="#DejaVuSans-48"/>
      <use x="127.246094" xlink:href="#DejaVuSans-46"/>
      <use x="159.033203" xlink:href="#DejaVuSans-48"/>
      <use x="222.65625" xlink:href="#DejaVuSans-48"/>
      <use x="286.279297" xlink:href="#DejaVuSans-48"/>
     </g>
    </g>
   </g>
   <g id="text_61">
    <g clip-path="url(#p613b30c446)">
     <!-- 10.250 -->
     <g style="fill:#21918c;" transform="translate(600.648363 483.539165)rotate(-50.475649)scale(0.1 -0.1)">
      <use xlink:href="#DejaVuSans-49"/>
      <use x="63.623047" xlink:href="#DejaVuSans-48"/>
      <use x="127.246094" xlink:href="#DejaVuSans-46"/>
      <use x="159.033203" xlink:href="#DejaVuSans-50"/>
      <use x="222.65625" xlink:href="#DejaVuSans-53"/>
      <use x="286.279297" xlink:href="#DejaVuSans-48"/>
     </g>
    </g>
   </g>
   <g id="text_62">
    <g clip-path="url(#p613b30c446)">
     <!-- 10.500 -->
     <g style="fill:#20938c;" transform="translate(602.815869 483.443043)rotate(-49.869518)scale(0.1 -0.1)">
      <use xlink:href="#DejaVuSans-49"/>
      <use x="63.623047" xlink:href="#DejaVuSans-48"/>
      <use x="127.246094" xlink:href="#DejaVuSans-46"/>
      <use x="159.033203" xlink:href="#DejaVuSans-53"/>
      <use x="222.65625" xlink:href="#DejaVuSans-48"/>
      <use x="286.279297" xlink:href="#DejaVuSans-48"/>
     </g>
    </g>
   </g>
   <g id="text_63">
    <g clip-path="url(#p613b30c446)">
     <!-- 10.750 -->
     <g style="fill:#1f968b;" transform="translate(604.985713 483.346037)rotate(-49.268377)scale(0.1 -0.1)">
      <use xlink:href="#DejaVuSans-49"/>
      <use x="63.623047" xlink:href="#DejaVuSans-48"/>
      <use x="127.246094" xlink:href="#DejaVuSans-46"/>
      <use x="159.033203" xlink:href="#DejaVuSans-55"/>
      <use x="222.65625" xlink:href="#DejaVuSans-53"/>
      <use x="286.279297" xlink:href="#DejaVuSans-48"/>
     </g>
    </g>
   </g>
   <g id="text_64">
    <g clip-path="url(#p613b30c446)">
     <!-- 11.000 -->
     <g style="fill:#1f998a;" transform="translate(607.157888 483.2482)rotate(-48.672234)scale(0.1 -0.1)">
      <use xlink:href="#DejaVuSans-49"/>
      <use x="63.623047" xlink:href="#DejaVuSans-49"/>
      <use x="127.246094" xlink:href="#DejaVuSans-46"/>
      <use x="159.033203" xlink:href="#DejaVuSans-48"/>
      <use x="222.65625" xlink:href="#DejaVuSans-48"/>
      <use x="286.279297" xlink:href="#DejaVuSans-48"/>
     </g>
    </g>
   </g>
   <g id="text_65">
    <g clip-path="url(#p613b30c446)">
     <!-- 11.250 -->
     <g style="fill:#1e9c89;" transform="translate(609.332386 483.149585)rotate(-48.081094)scale(0.1 -0.1)">
      <use xlink:href="#DejaVuSans-49"/>
      <use x="63.623047" xlink:href="#DejaVuSans-49"/>
      <use x="127.246094" xlink:href="#DejaVuSans-46"/>
      <use x="159.033203" xlink:href="#DejaVuSans-50"/>
      <use x="222.65625" xlink:href="#DejaVuSans-53"/>
      <use x="286.279297" xlink:href="#DejaVuSans-48"/>
     </g>
    </g>
   </g>
   <g id="text_66">
    <g clip-path="url(#p613b30c446)">
     <!-- 11.500 -->
     <g style="fill:#1f9f88;" transform="translate(610.402668 484.345781)rotate(-47.840492)scale(0.1 -0.1)">
      <use xlink:href="#DejaVuSans-49"/>
      <use x="63.623047" xlink:href="#DejaVuSans-49"/>
      <use x="127.246094" xlink:href="#DejaVuSans-46"/>
      <use x="159.033203" xlink:href="#DejaVuSans-53"/>
      <use x="222.65625" xlink:href="#DejaVuSans-48"/>
      <use x="286.279297" xlink:href="#DejaVuSans-48"/>
     </g>
    </g>
   </g>
   <g id="text_67">
    <g clip-path="url(#p613b30c446)">
     <!-- 11.750 -->
     <g style="fill:#1fa187;" transform="translate(610.446112 486.78239)rotate(-48.008279)scale(0.1 -0.1)">
      <use xlink:href="#DejaVuSans-49"/>
      <use x="63.623047" xlink:href="#DejaVuSans-49"/>
      <use x="127.246094" xlink:href="#DejaVuSans-46"/>
      <use x="159.033203" xlink:href="#DejaVuSans-55"/>
      <use x="222.65625" xlink:href="#DejaVuSans-53"/>
      <use x="286.279297" xlink:href="#DejaVuSans-48"/>
     </g>
    </g>
   </g>
   <g id="text_68">
    <g clip-path="url(#p613b30c446)">
     <!-- 12.000 -->
     <g style="fill:#20a486;" transform="translate(598.267888 505.835961)rotate(-51.253127)scale(0.1 -0.1)">
      <use xlink:href="#DejaVuSans-49"/>
      <use x="63.623047" xlink:href="#DejaVuSans-50"/>
      <use x="127.246094" xlink:href="#DejaVuSans-46"/>
      <use x="159.033203" xlink:href="#DejaVuSans-48"/>
      <use x="222.65625" xlink:href="#DejaVuSans-48"/>
      <use x="286.279297" xlink:href="#DejaVuSans-48"/>
     </g>
    </g>
   </g>
   <g id="text_69">
    <g clip-path="url(#p613b30c446)">
     <!-- 12.250 -->
     <g style="fill:#22a785;" transform="translate(600.207637 505.831838)rotate(-51.226292)scale(0.1 -0.1)">
      <use xlink:href="#DejaVuSans-49"/>
      <use x="63.623047" xlink:href="#DejaVuSans-50"/>
      <use x="127.246094" xlink:href="#DejaVuSans-46"/>
      <use x="159.033203" xlink:href="#DejaVuSans-50"/>
      <use x="222.65625" xlink:href="#DejaVuSans-53"/>
      <use x="286.279297" xlink:href="#DejaVuSans-48"/>
     </g>
    </g>
   </g>
   <g id="text_70">
    <g clip-path="url(#p613b30c446)">
     <!-- 12.500 -->
     <g style="fill:#25ab82;" transform="translate(610.77752 494.217484)rotate(-49.277969)scale(0.1 -0.1)">
      <use xlink:href="#DejaVuSans-49"/>
      <use x="63.623047" xlink:href="#DejaVuSans-50"/>
      <use x="127.246094" xlink:href="#DejaVuSans-46"/>
      <use x="159.033203" xlink:href="#DejaVuSans-53"/>
      <use x="222.65625" xlink:href="#DejaVuSans-48"/>
      <use x="286.279297" xlink:href="#DejaVuSans-48"/>
     </g>
    </g>
   </g>
   <g id="text_71">
    <g clip-path="url(#p613b30c446)">
     <!-- 12.750 -->
     <g style="fill:#27ad81;" transform="translate(610.902961 496.702693)rotate(-49.754003)scale(0.1 -0.1)">
      <use xlink:href="#DejaVuSans-49"/>
      <use x="63.623047" xlink:href="#DejaVuSans-50"/>
      <use x="127.246094" xlink:href="#DejaVuSans-46"/>
      <use x="159.033203" xlink:href="#DejaVuSans-55"/>
      <use x="222.65625" xlink:href="#DejaVuSans-53"/>
      <use x="286.279297" xlink:href="#DejaVuSans-48"/>
     </g>
    </g>
   </g>
   <g id="text_72">
    <g clip-path="url(#p613b30c446)">
     <!-- 13.000 -->
     <g style="fill:#2ab07f;" transform="translate(610.918138 499.120179)rotate(-49.811434)scale(0.1 -0.1)">
      <use xlink:href="#DejaVuSans-49"/>
      <use x="63.623047" xlink:href="#DejaVuSans-51"/>
      <use x="127.246094" xlink:href="#DejaVuSans-46"/>
      <use x="159.033203" xlink:href="#DejaVuSans-48"/>
      <use x="222.65625" xlink:href="#DejaVuSans-48"/>
      <use x="286.279297" xlink:href="#DejaVuSans-48"/>
     </g>
    </g>
   </g>
   <g id="text_73">
    <g clip-path="url(#p613b30c446)">
     <!-- 13.250 -->
     <g style="fill:#2eb37c;" transform="translate(610.923112 501.531468)rotate(-49.830249)scale(0.1 -0.1)">
      <use xlink:href="#DejaVuSans-49"/>
      <use x="63.623047" xlink:href="#DejaVuSans-51"/>
      <use x="127.246094" xlink:href="#DejaVuSans-46"/>
      <use x="159.033203" xlink:href="#DejaVuSans-50"/>
      <use x="222.65625" xlink:href="#DejaVuSans-53"/>
      <use x="286.279297" xlink:href="#DejaVuSans-48"/>
     </g>
    </g>
   </g>
   <g id="text_74">
    <g clip-path="url(#p613b30c446)">
     <!-- 13.500 -->
     <g style="fill:#32b67a;" transform="translate(610.926766 503.941956)rotate(-49.844067)scale(0.1 -0.1)">
      <use xlink:href="#DejaVuSans-49"/>
      <use x="63.623047" xlink:href="#DejaVuSans-51"/>
      <use x="127.246094" xlink:href="#DejaVuSans-46"/>
      <use x="159.033203" xlink:href="#DejaVuSans-53"/>
      <use x="222.65625" xlink:href="#DejaVuSans-48"/>
      <use x="286.279297" xlink:href="#DejaVuSans-48"/>
     </g>
    </g>
   </g>
   <g id="text_75">
    <g clip-path="url(#p613b30c446)">
     <!-- 13.750 -->
     <g style="fill:#37b878;" transform="translate(611.509718 505.608176)rotate(-49.80166)scale(0.1 -0.1)">
      <use xlink:href="#DejaVuSans-49"/>
      <use x="63.623047" xlink:href="#DejaVuSans-51"/>
      <use x="127.246094" xlink:href="#DejaVuSans-46"/>
      <use x="159.033203" xlink:href="#DejaVuSans-55"/>
      <use x="222.65625" xlink:href="#DejaVuSans-53"/>
      <use x="286.279297" xlink:href="#DejaVuSans-48"/>
     </g>
    </g>
   </g>
   <g id="text_76">
    <g clip-path="url(#p613b30c446)">
     <!-- 14.000 -->
     <g style="fill:#3bbb75;" transform="translate(613.413604 505.582479)rotate(-49.64172)scale(0.1 -0.1)">
      <use xlink:href="#DejaVuSans-49"/>
      <use x="63.623047" xlink:href="#DejaVuSans-52"/>
      <use x="127.246094" xlink:href="#DejaVuSans-46"/>
      <use x="159.033203" xlink:href="#DejaVuSans-48"/>
      <use x="222.65625" xlink:href="#DejaVuSans-48"/>
      <use x="286.279297" xlink:href="#DejaVuSans-48"/>
     </g>
    </g>
   </g>
   <g id="text_77">
    <g clip-path="url(#p613b30c446)">
     <!-- 14.250 -->
     <g style="fill:#40bd72;" transform="translate(615.317874 505.556856)rotate(-49.482967)scale(0.1 -0.1)">
      <use xlink:href="#DejaVuSans-49"/>
      <use x="63.623047" xlink:href="#DejaVuSans-52"/>
      <use x="127.246094" xlink:href="#DejaVuSans-46"/>
      <use x="159.033203" xlink:href="#DejaVuSans-50"/>
      <use x="222.65625" xlink:href="#DejaVuSans-53"/>
      <use x="286.279297" xlink:href="#DejaVuSans-48"/>
     </g>
    </g>
   </g>
   <g id="text_78">
    <g clip-path="url(#p613b30c446)">
     <!-- 14.500 -->
     <g style="fill:#48c16e;" transform="translate(617.222525 505.531308)rotate(-49.325391)scale(0.1 -0.1)">
      <use xlink:href="#DejaVuSans-49"/>
      <use x="63.623047" xlink:href="#DejaVuSans-52"/>
      <use x="127.246094" xlink:href="#DejaVuSans-46"/>
      <use x="159.033203" xlink:href="#DejaVuSans-53"/>
      <use x="222.65625" xlink:href="#DejaVuSans-48"/>
      <use x="286.279297" xlink:href="#DejaVuSans-48"/>
     </g>
    </g>
   </g>
   <g id="text_79">
    <g clip-path="url(#p613b30c446)">
     <!-- 14.750 -->
     <g style="fill:#4ec36b;" transform="translate(611.1397 516.107853)rotate(-50.645939)scale(0.1 -0.1)">
      <use xlink:href="#DejaVuSans-49"/>
      <use x="63.623047" xlink:href="#DejaVuSans-52"/>
      <use x="127.246094" xlink:href="#DejaVuSans-46"/>
      <use x="159.033203" xlink:href="#DejaVuSans-55"/>
      <use x="222.65625" xlink:href="#DejaVuSans-53"/>
      <use x="286.279297" xlink:href="#DejaVuSans-48"/>
     </g>
    </g>
   </g>
   <g id="line2d_7">
    <path clip-path="url(#p613b30c446)" d="M 524 414.08 
L 503.110976 371.469435 
L 483.981245 331.793998 
L 466.18275 297.378167 
L 449.474132 267.67591 
L 432.777405 242.493216 
L 416.605584 221.005528 
L 400.447301 202.865777 
L 384.414864 188.844467 
L 368.430353 178.588269 
L 352.677345 171.455381 
L 337.077905 168.282216 
L 322.02799 167.68 
L 307.687684 170.167974 
L 293.3953 176.038573 
L 279.611839 184.86775 
L 266.339294 196.414657 
L 253.636998 209.388279 
L 240.695038 225.924857 
L 228.311886 243.788561 
L 214 270.615381 
" style="fill:none;stroke:#000000;stroke-linecap:square;stroke-width:1.5;"/>
   </g>
   <g id="PathCollection_1">
    <defs>
     <path d="M 0 3 
C 0.795609 3 1.55874 2.683901 2.12132 2.12132 
C 2.683901 1.55874 3 0.795609 3 0 
C 3 -0.795609 2.683901 -1.55874 2.12132 -2.12132 
C 1.55874 -2.683901 0.795609 -3 0 -3 
C -0.795609 -3 -1.55874 -2.683901 -2.12132 -2.12132 
C -2.683901 -1.55874 -3 -0.795609 -3 0 
C -3 0.795609 -2.683901 1.55874 -2.12132 2.12132 
C -1.55874 2.683901 -0.795609 3 0 3 
z
" id="C0_0_1e31ea95c3"/>
    </defs>
    <g clip-path="url(#p613b30c446)">
     <use style="fill:#ffffd0;stroke:#000000;" x="524" xlink:href="#C0_0_1e31ea95c3" y="414.08"/>
    </g>
    <g clip-path="url(#p613b30c446)">
     <use style="fill:#ffffa0;stroke:#000000;" x="503.110976" xlink:href="#C0_0_1e31ea95c3" y="371.469435"/>
    </g>
    <g clip-path="url(#p613b30c446)">
     <use style="fill:#ffff71;stroke:#000000;" x="483.981245" xlink:href="#C0_0_1e31ea95c3" y="331.793998"/>
    </g>
    <g clip-path="url(#p613b30c446)">
     <use style="fill:#ffff42;stroke:#000000;" x="466.18275" xlink:href="#C0_0_1e31ea95c3" y="297.378167"/>
    </g>
    <g clip-path="url(#p613b30c446)">
     <use style="fill:#ffff13;stroke:#000000;" x="449.474132" xlink:href="#C0_0_1e31ea95c3" y="267.67591"/>
    </g>
    <g clip-path="url(#p613b30c446)">
     <use style="fill:#ffe900;stroke:#000000;" x="432.777405" xlink:href="#C0_0_1e31ea95c3" y="242.493216"/>
    </g>
    <g clip-path="url(#p613b30c446)">
     <use style="fill:#ffca00;stroke:#000000;" x="416.605584" xlink:href="#C0_0_1e31ea95c3" y="221.005528"/>
    </g>
    <g clip-path="url(#p613b30c446)">
     <use style="fill:#ffaa00;stroke:#000000;" x="400.447301" xlink:href="#C0_0_1e31ea95c3" y="202.865777"/>
    </g>
    <g clip-path="url(#p613b30c446)">
     <use style="fill:#ff8b00;stroke:#000000;" x="384.414864" xlink:href="#C0_0_1e31ea95c3" y="188.844467"/>
    </g>
    <g clip-path="url(#p613b30c446)">
     <use style="fill:#ff6b00;stroke:#000000;" x="368.430353" xlink:href="#C0_0_1e31ea95c3" y="178.588269"/>
    </g>
    <g clip-path="url(#p613b30c446)">
     <use style="fill:#ff4900;stroke:#000000;" x="352.677345" xlink:href="#C0_0_1e31ea95c3" y="171.455381"/>
    </g>
    <g clip-path="url(#p613b30c446)">
     <use style="fill:#ff2a00;stroke:#000000;" x="337.077905" xlink:href="#C0_0_1e31ea95c3" y="168.282216"/>
    </g>
    <g clip-path="url(#p613b30c446)">
     <use style="fill:#ff0a00;stroke:#000000;" x="322.02799" xlink:href="#C0_0_1e31ea95c3" y="167.68"/>
    </g>
    <g clip-path="url(#p613b30c446)">
     <use style="fill:#ea0000;stroke:#000000;" x="307.687684" xlink:href="#C0_0_1e31ea95c3" y="170.167974"/>
    </g>
    <g clip-path="url(#p613b30c446)">
     <use style="fill:#ca0000;stroke:#000000;" x="293.3953" xlink:href="#C0_0_1e31ea95c3" y="176.038573"/>
    </g>
    <g clip-path="url(#p613b30c446)">
     <use style="fill:#a80000;stroke:#000000;" x="279.611839" xlink:href="#C0_0_1e31ea95c3" y="184.86775"/>
    </g>
    <g clip-path="url(#p613b30c446)">
     <use style="fill:#890000;stroke:#000000;" x="266.339294" xlink:href="#C0_0_1e31ea95c3" y="196.414657"/>
    </g>
    <g clip-path="url(#p613b30c446)">
     <use style="fill:#690000;stroke:#000000;" x="253.636998" xlink:href="#C0_0_1e31ea95c3" y="209.388279"/>
    </g>
    <g clip-path="url(#p613b30c446)">
     <use style="fill:#4a0000;stroke:#000000;" x="240.695038" xlink:href="#C0_0_1e31ea95c3" y="225.924857"/>
    </g>
    <g clip-path="url(#p613b30c446)">
     <use style="fill:#2a0000;stroke:#000000;" x="228.311886" xlink:href="#C0_0_1e31ea95c3" y="243.788561"/>
    </g>
    <g clip-path="url(#p613b30c446)">
     <use style="fill:#0b0000;stroke:#000000;" x="214" xlink:href="#C0_0_1e31ea95c3" y="270.615381"/>
    </g>
   </g>
   <g id="line2d_8">
    <path clip-path="url(#p613b30c446)" d="M 524 414.08 
" style="fill:none;stroke:#1f77b4;stroke-linecap:square;stroke-width:1.5;"/>
    <defs>
     <path d="M -0 5 
L 5 -5 
L -5 -5 
z
" id="mb4518c5c01" style="stroke:#000000;stroke-linejoin:miter;"/>
    </defs>
    <g clip-path="url(#p613b30c446)">
     <use style="stroke:#000000;stroke-linejoin:miter;" x="524" xlink:href="#mb4518c5c01" y="414.08"/>
    </g>
   </g>
   <g id="line2d_9">
    <path clip-path="url(#p613b30c446)" d="M 214 270.615381 
" style="fill:none;stroke:#ff7f0e;stroke-linecap:square;stroke-width:1.5;"/>
    <defs>
     <path d="M -2.5 5 
L 0 2.5 
L 2.5 5 
L 5 2.5 
L 2.5 0 
L 5 -2.5 
L 2.5 -5 
L 0 -2.5 
L -2.5 -5 
L -5 -2.5 
L -2.5 0 
L -5 2.5 
z
" id="mb11c49ce22" style="stroke:#ff0000;stroke-linejoin:miter;"/>
    </defs>
    <g clip-path="url(#p613b30c446)">
     <use style="fill:#ff0000;stroke:#ff0000;stroke-linejoin:miter;" x="214" xlink:href="#mb11c49ce22" y="270.615381"/>
    </g>
   </g>
  </g>
 </g>
 <defs>
  <clipPath id="p613b30c446">
   <rect height="443.52" width="558" x="90" y="69.12"/>
  </clipPath>
 </defs>
</svg>
